<?xml version="1.0" encoding="utf-8"?>
<!-- Generator: Adobe Illustrator 25.2.1, SVG Export Plug-In . SVG Version: 6.00 Build 0)  -->
<svg version="1.1" id="ëÎÓÈ_1" xmlns="http://www.w3.org/2000/svg" xmlns:xlink="http://www.w3.org/1999/xlink" x="0px" y="0px"
	 viewBox="0 0 89.21 105.92" style="enable-background:new 0 0 89.21 105.92;" xml:space="preserve">
<style type="text/css">
	.st0{fill:#D39775;}
	.st1{fill:#C68463;}
	.st2{fill:#FFC197;}
	.st3{fill:#FCA76D;}
	.st4{fill:#FF8599;}
	.st5{fill:#DD7B45;}
	.st6{clip-path:url(#SVGID_2_);}
	.st7{fill:#4E899B;}
	.st8{fill:#FFFFFF;}
	.st9{fill:#B28C79;}
	.st10{clip-path:url(#SVGID_4_);}
	.st11{fill:#FFA892;}
	.st12{fill:#E8A982;}
	.st13{fill:#FF7B6D;}
	.st14{fill:#04AEB7;}
	.st15{fill:#EA6835;}
	.st16{clip-path:url(#SVGID_6_);}
	.st17{clip-path:url(#SVGID_8_);}
	.st18{fill:#B68461;}
	.st19{fill:#915F3D;}
	.st20{fill:#F7F5ED;}
	.st21{fill:#E87870;}
	.st22{fill:#93322B;}
	.st23{fill:#725440;}
	.st24{clip-path:url(#SVGID_10_);}
	.st25{fill:#543927;}
	.st26{clip-path:url(#SVGID_12_);}
	.st27{fill:#2B211A;}
	.st28{fill:#492B14;}
	.st29{fill:#845535;}
	.st30{clip-path:url(#SVGID_14_);}
	.st31{fill:#186858;}
	.st32{clip-path:url(#SVGID_16_);}
	.st33{fill:#F95548;}
	.st34{fill:#C93F14;}
	.st35{fill:#77B232;}
	.st36{clip-path:url(#SVGID_18_);}
	.st37{fill:#407046;}
	.st38{clip-path:url(#SVGID_20_);}
	.st39{fill:#FF6666;}
	.st40{clip-path:url(#SVGID_22_);}
	.st41{fill:#5E361B;}
	.st42{clip-path:url(#SVGID_24_);}
	.st43{fill:#E2233A;}
	.st44{clip-path:url(#SVGID_26_);}
	.st45{fill:#82543D;}
	.st46{clip-path:url(#SVGID_28_);}
	.st47{fill:#E63236;}
	.st48{fill:#3D2C22;}
	.st49{clip-path:url(#SVGID_30_);}
	.st50{fill:#536784;}
	.st51{clip-path:url(#SVGID_32_);}
	.st52{fill:#52728A;}
	.st53{clip-path:url(#SVGID_34_);}
	.st54{clip-path:url(#SVGID_36_);}
	.st55{fill:#A30C0C;}
	.st56{clip-path:url(#SVGID_38_);}
	.st57{clip-path:url(#SVGID_40_);}
	.st58{fill:#75380E;}
	.st59{clip-path:url(#SVGID_42_);}
	.st60{clip-path:url(#SVGID_44_);}
	.st61{clip-path:url(#SVGID_46_);}
	.st62{clip-path:url(#SVGID_48_);}
	.st63{fill:#FC6054;}
	.st64{fill:#CC9A79;}
</style>
<g>
	<g>
		<path class="st2" d="M89.21,105.92c-1.57-4.97-3.14-9.08-4.68-11.83c-0.1-0.21-0.19-0.41-0.31-0.61
			c-0.25-0.42-0.55-0.83-0.87-1.22c-0.45-0.6-0.89-1.09-1.33-1.42c-0.02-0.01-0.04-0.02-0.05-0.04c-7.2-6.54-23.29-8.71-23.29-12.68
			c0-4.48,0-19.12,0-19.12H30.55c0,0,0,14.65,0,19.12c0,3.97-16,6.13-23.23,12.63c-0.04,0.03-0.08,0.06-0.13,0.09
			c-0.51,0.39-1.03,0.97-1.55,1.72c-0.23,0.3-0.44,0.61-0.63,0.92c-0.07,0.13-0.13,0.26-0.2,0.39c-1.58,2.75-3.2,6.94-4.81,12.04
			H89.21z"/>
		<path class="st3" d="M58.68,73.11c0-6,0-14.12,0-14.12H30.55c0,0,0,12.34,0,17.83c0.7-2.06,5.39,0.43,11.6,1.65
			C48.48,79.72,55.63,77.72,58.68,73.11z"/>
		<path class="st52" d="M84.53,94.09c-0.1-0.21-0.19-0.41-0.31-0.61c-0.25-0.42-0.55-0.83-0.87-1.22c-0.45-0.6-0.89-1.09-1.33-1.42
			c-0.02-0.01-0.04-0.02-0.05-0.04c-5.22-4.74-15.09-7.18-20.14-9.68C57.68,86,51.51,89.1,44.61,89.1c-6.9,0-13.07-3.09-17.22-7.97
			c-5.04,2.49-14.85,4.92-20.07,9.62c-0.04,0.03-0.08,0.06-0.13,0.09c-0.51,0.39-1.03,0.97-1.55,1.72c-0.23,0.3-0.44,0.61-0.63,0.92
			c-0.07,0.13-0.13,0.26-0.2,0.39c-1.58,2.75-3.2,6.94-4.81,12.04h89.21C87.65,100.95,86.07,96.84,84.53,94.09z"/>
	</g>
	<g>
		<path class="st48" d="M58.77,3.83C63.91,0,87.8,18.04,73.93,56.55c-3.5,3.41-7.2,5.58-11.04,6.83
			C67.2,37.58,63.05,28.29,58.77,3.83z"/>
		<g>
			<g>
				<path class="st2" d="M19.63,42.02c0,0-3.98-4.97-7.99-2.8c-6.83,3.69-0.98,19.13,7.44,16.22L19.63,42.02z"/>
				<path class="st3" d="M18.11,43.01c0,0-2.77-3.16-5.52-1.78c-4.67,2.35,1.06,13.44,5.25,10.31L18.11,43.01z"/>
			</g>
			<g>
				<path class="st2" d="M67.11,42.02c0,0,3.98-4.97,7.99-2.8c6.83,3.69,0.98,19.13-7.44,16.22L67.11,42.02z"/>
				<path class="st3" d="M68.63,43.01c0,0,2.77-3.16,5.52-1.78c4.67,2.35-1.06,13.44-5.25,10.31L68.63,43.01z"/>
			</g>
		</g>
		<path class="st2" d="M43.78,3.18c-14.96,0.15-27.03,8.72-27.03,28.44c0,8.71,0.24,23.43,3.69,28.9
			c3.46,5.47,13.14,14.86,23.33,14.86c10.2,0,19.87-9.4,23.33-14.86c3.46-5.47,3.69-20.19,3.69-28.9
			C70.81,11.91,58.74,3.33,43.78,3.18z"/>
		<path class="st5" d="M48.43,55.23c-0.08-0.34-0.26-0.62-0.42-0.81c-0.17-0.19-0.33-0.31-0.45-0.38c-0.12-0.07-0.2-0.09-0.22-0.06
			c-0.05,0.06,0.16,0.28,0.37,0.66c0.11,0.19,0.21,0.42,0.25,0.69c0.04,0.26,0.03,0.57-0.1,0.81c-0.13,0.24-0.37,0.37-0.54,0.33
			c-0.09-0.01-0.21-0.08-0.32-0.14c-0.11-0.07-0.23-0.14-0.36-0.2c-0.1-0.04-0.2-0.06-0.29-0.07c0.16-0.28,0.2-0.46,0.16-0.48
			c-0.07-0.04-0.29,0.27-0.73,0.66c-0.22,0.19-0.49,0.41-0.82,0.57c-0.33,0.17-0.72,0.29-1.14,0.3c-0.42,0-0.81-0.1-1.15-0.26
			c-0.34-0.16-0.62-0.36-0.85-0.54c-0.45-0.37-0.69-0.67-0.76-0.63c-0.03,0.02,0,0.17,0.13,0.39c-0.08,0.01-0.17,0.03-0.25,0.07
			c-0.13,0.05-0.24,0.13-0.36,0.2c-0.11,0.07-0.23,0.13-0.32,0.14c-0.18,0.04-0.42-0.09-0.54-0.33c-0.13-0.23-0.14-0.54-0.1-0.81
			c0.04-0.27,0.14-0.5,0.25-0.69c0.22-0.38,0.42-0.6,0.37-0.66c-0.02-0.03-0.1-0.01-0.22,0.06c-0.12,0.07-0.29,0.19-0.45,0.38
			c-0.17,0.19-0.34,0.46-0.42,0.81c-0.08,0.34-0.1,0.76,0.11,1.16c0.11,0.2,0.27,0.36,0.47,0.47c0.2,0.11,0.44,0.14,0.65,0.08
			c0.21-0.06,0.35-0.17,0.46-0.26c0.11-0.09,0.2-0.17,0.28-0.23c0.09-0.07,0.19-0.1,0.27-0.11c0.05,0.07,0.11,0.15,0.18,0.22
			c0.21,0.24,0.5,0.5,0.89,0.71c0.38,0.21,0.86,0.36,1.38,0.35c0.52-0.01,0.99-0.17,1.37-0.4c0.38-0.22,0.66-0.5,0.86-0.74
			c0.04-0.05,0.08-0.1,0.11-0.15c0.09,0.01,0.19,0.04,0.3,0.11c0.08,0.06,0.17,0.14,0.28,0.23c0.11,0.09,0.25,0.2,0.46,0.26
			c0.21,0.06,0.46,0.02,0.65-0.08c0.2-0.11,0.36-0.27,0.47-0.47C48.53,55.99,48.51,55.57,48.43,55.23z"/>
		<g>
			<path class="st11" d="M32.14,52.88c0,1.62-2.53,2.93-5.65,2.93s-5.65-1.31-5.65-2.93s2.53-2.93,5.65-2.93
				S32.14,51.26,32.14,52.88z"/>
			<path class="st11" d="M66.71,52.88c0,1.62-2.53,2.93-5.65,2.93c-3.12,0-5.65-1.31-5.65-2.93s2.53-2.93,5.65-2.93
				C64.18,49.95,66.71,51.26,66.71,52.88z"/>
		</g>
		<g>
			<g>
				<g>
					<defs>
						<path id="SVGID_33_" d="M50.11,46.16c0,0,1.62-2.19,6.55-2.19c4.93,0,6.31,1.91,6.31,1.91s-1.3,2.83-6.36,2.83
							C51.55,48.72,50.11,46.16,50.11,46.16z"/>
					</defs>
					<use xlink:href="#SVGID_33_"  style="overflow:visible;fill:#FFFFFF;"/>
					<clipPath id="SVGID_2_">
						<use xlink:href="#SVGID_33_"  style="overflow:visible;"/>
					</clipPath>
					<g class="st6">
						<path class="st52" d="M60.01,45.53c0,1.85-1.5,3.36-3.36,3.36c-1.85,0-3.36-1.5-3.36-3.36c0-1.85,1.5-3.36,3.36-3.36
							C58.51,42.18,60.01,43.68,60.01,45.53z"/>
						<path d="M58.54,45.53c0,1.04-0.84,1.88-1.88,1.88c-1.04,0-1.88-0.84-1.88-1.88c0-1.04,0.84-1.88,1.88-1.88
							C57.69,43.65,58.54,44.5,58.54,45.53z"/>
						<path class="st8" d="M57.85,44.71c0,0.21-0.17,0.38-0.38,0.38c-0.21,0-0.38-0.17-0.38-0.38s0.17-0.38,0.38-0.38
							C57.68,44.33,57.85,44.5,57.85,44.71z"/>
					</g>
				</g>
				<path class="st9" d="M50.11,46.16c0,0,0.73-3.33,6.55-3.33s6.31,3.06,6.31,3.06C59.04,43.26,53.69,43.61,50.11,46.16z"/>
			</g>
			<g>
				<g>
					<defs>
						<path id="SVGID_35_" d="M37.45,46.16c0,0-1.62-2.19-6.55-2.19s-6.31,1.91-6.31,1.91s1.3,2.83,6.36,2.83
							C36,48.72,37.45,46.16,37.45,46.16z"/>
					</defs>
					<use xlink:href="#SVGID_35_"  style="overflow:visible;fill:#FFFFFF;"/>
					<clipPath id="SVGID_4_">
						<use xlink:href="#SVGID_35_"  style="overflow:visible;"/>
					</clipPath>
					<g class="st10">
						<path class="st52" d="M27.54,45.53c0,1.85,1.5,3.36,3.36,3.36c1.85,0,3.36-1.5,3.36-3.36c0-1.85-1.5-3.36-3.36-3.36
							C29.05,42.18,27.54,43.68,27.54,45.53z"/>
						<path d="M29.02,45.53c0,1.04,0.84,1.88,1.88,1.88c1.04,0,1.88-0.84,1.88-1.88c0-1.04-0.84-1.88-1.88-1.88
							C29.86,43.65,29.02,44.5,29.02,45.53z"/>
						<path class="st8" d="M31.33,44.71c0,0.21,0.17,0.38,0.38,0.38c0.21,0,0.38-0.17,0.38-0.38s-0.17-0.38-0.38-0.38
							C31.5,44.33,31.33,44.5,31.33,44.71z"/>
					</g>
				</g>
				<path class="st9" d="M37.45,46.16c0,0-0.73-3.33-6.55-3.33s-6.31,3.06-6.31,3.06C28.52,43.26,33.86,43.61,37.45,46.16z"/>
			</g>
		</g>
		<g>
			<path class="st48" d="M64.15,40.93c-0.07,0.05-0.24-0.03-0.5-0.18c-0.26-0.14-0.63-0.34-1.09-0.51
				c-0.46-0.17-1.02-0.31-1.63-0.37c-0.61-0.06-1.28-0.06-1.97-0.01c-0.69,0.05-1.4,0.15-2.1,0.23c-0.69,0.08-1.35,0.16-1.93,0.22
				c-1.15,0.13-1.99,0.21-2.17,0.22c-0.7,0.04-1.31-0.46-1.35-1.12c-0.04-0.66,0.5-1.22,1.2-1.26c0.18-0.01,1.02-0.03,2.18-0.03
				c0.58,0,1.24,0,1.94,0c0.7,0,1.45,0,2.23,0.06c0.77,0.06,1.55,0.17,2.26,0.39c0.71,0.21,1.33,0.52,1.81,0.86
				c0.48,0.34,0.8,0.7,0.98,0.98C64.18,40.69,64.22,40.89,64.15,40.93z"/>
			<path class="st48" d="M23.4,40.93c0.07,0.05,0.24-0.03,0.5-0.18c0.26-0.14,0.63-0.34,1.09-0.51c0.46-0.17,1.02-0.31,1.63-0.37
				c0.61-0.06,1.28-0.06,1.97-0.01c0.69,0.05,1.4,0.15,2.1,0.23c0.69,0.08,1.35,0.16,1.93,0.22c1.15,0.13,1.99,0.21,2.17,0.22
				c0.7,0.04,1.31-0.46,1.35-1.12c0.04-0.66-0.5-1.22-1.2-1.26c-0.18-0.01-1.02-0.03-2.18-0.03c-0.58,0-1.24,0-1.94,0
				c-0.7,0-1.45,0-2.23,0.06c-0.77,0.06-1.55,0.17-2.26,0.39c-0.71,0.21-1.33,0.52-1.81,0.86c-0.48,0.34-0.8,0.7-0.98,0.98
				C23.38,40.69,23.34,40.89,23.4,40.93z"/>
		</g>
		<path class="st48" d="M27.04,72.59c-16.08-7.92-18.5-25.42-18.5-25.42S8.28,22.26,18.74,11.1C30.33-1.26,48.48-2.7,58.77,3.83
			c17.42,11.21,13.49,32.46,13.49,32.46l-1.55,2.9c-2.47-7.88-7.37-17.41-13.08-22.58C57.63,16.62,14.36,24.83,27.04,72.59z"/>
		<g>
			<g>
				<path class="st13" d="M46.05,60.6c-1.07,0.08-1.26,0.54-2.27,0.54c-1.01-0.01-1.2-0.47-2.27-0.54c-2.24-0.2-3.65,0.2-6.31,1.56
					c1.81,2.78,4.84,5.73,8.58,5.73c3.74,0,6.77-2.95,8.58-5.73C49.7,60.8,48.29,60.4,46.05,60.6z"/>
			</g>
			<g>
				<path class="st55" d="M43.78,61.88c-5.93,0-7.46,0.55-7.46,0.55s4.21,2.16,7.46,2.16c3.26,0,7.46-2.16,7.46-2.16
					S49.7,61.88,43.78,61.88z"/>
			</g>
			<path class="st8" d="M37.55,62.19c1.49,0.64,4.07,1.59,6.23,1.59c2.16,0,4.74-0.95,6.23-1.59c-1.08-0.15-3-0.31-6.23-0.31
				C40.55,61.88,38.63,62.04,37.55,62.19z"/>
		</g>
	</g>
</g>
</svg>
