<?xml version="1.0" encoding="utf-8"?>
<!-- Generator: Adobe Illustrator 25.2.1, SVG Export Plug-In . SVG Version: 6.00 Build 0)  -->
<svg version="1.1" id="ëÎÓÈ_1" xmlns="http://www.w3.org/2000/svg" xmlns:xlink="http://www.w3.org/1999/xlink" x="0px" y="0px"
	 viewBox="0 0 89.21 110.37" style="enable-background:new 0 0 89.21 110.37;" xml:space="preserve">
<style type="text/css">
	.st0{fill:#D39775;}
	.st1{fill:#C68463;}
	.st2{fill:#FFC197;}
	.st3{fill:#FCA76D;}
	.st4{fill:#FF8599;}
	.st5{fill:#DD7B45;}
	.st6{clip-path:url(#SVGID_2_);}
	.st7{fill:#4E899B;}
	.st8{fill:#FFFFFF;}
	.st9{fill:#B28C79;}
	.st10{clip-path:url(#SVGID_4_);}
	.st11{fill:#FFA892;}
	.st12{fill:#E8A982;}
	.st13{fill:#FF7B6D;}
	.st14{fill:#04AEB7;}
	.st15{fill:#EA6835;}
	.st16{clip-path:url(#SVGID_6_);}
	.st17{clip-path:url(#SVGID_8_);}
	.st18{fill:#B68461;}
	.st19{fill:#915F3D;}
	.st20{fill:#F7F5ED;}
	.st21{fill:#E87870;}
	.st22{fill:#93322B;}
	.st23{fill:#725440;}
	.st24{clip-path:url(#SVGID_10_);}
	.st25{fill:#543927;}
	.st26{clip-path:url(#SVGID_12_);}
	.st27{fill:#2B211A;}
	.st28{fill:#492B14;}
	.st29{fill:#845535;}
	.st30{clip-path:url(#SVGID_14_);}
	.st31{fill:#186858;}
	.st32{clip-path:url(#SVGID_16_);}
	.st33{fill:#F95548;}
	.st34{fill:#C93F14;}
	.st35{fill:#77B232;}
	.st36{clip-path:url(#SVGID_18_);}
	.st37{fill:#407046;}
	.st38{clip-path:url(#SVGID_20_);}
	.st39{fill:#FF6666;}
	.st40{clip-path:url(#SVGID_22_);}
	.st41{fill:#5E361B;}
	.st42{clip-path:url(#SVGID_24_);}
	.st43{fill:#E2233A;}
	.st44{clip-path:url(#SVGID_26_);}
	.st45{fill:#82543D;}
	.st46{clip-path:url(#SVGID_28_);}
	.st47{fill:#E63236;}
	.st48{fill:#3D2C22;}
	.st49{clip-path:url(#SVGID_30_);}
	.st50{fill:#536784;}
	.st51{clip-path:url(#SVGID_32_);}
	.st52{fill:#52728A;}
	.st53{clip-path:url(#SVGID_34_);}
	.st54{clip-path:url(#SVGID_36_);}
	.st55{fill:#A30C0C;}
	.st56{clip-path:url(#SVGID_38_);}
	.st57{clip-path:url(#SVGID_40_);}
	.st58{fill:#75380E;}
	.st59{clip-path:url(#SVGID_42_);}
	.st60{clip-path:url(#SVGID_44_);}
	.st61{clip-path:url(#SVGID_46_);}
	.st62{clip-path:url(#SVGID_48_);}
	.st63{fill:#FC6054;}
	.st64{fill:#CC9A79;}
</style>
<g>
	<g>
		<path class="st2" d="M89.21,110.37c-1.57-4.97-3.14-9.08-4.68-11.83c-0.1-0.21-0.19-0.41-0.31-0.61
			c-0.25-0.42-0.55-0.83-0.87-1.22c-0.45-0.6-0.89-1.09-1.33-1.42c-0.02-0.01-0.04-0.02-0.05-0.04c-7.2-6.54-23.29-8.71-23.29-12.68
			c0-4.48,0-19.13,0-19.13H30.55c0,0,0,14.65,0,19.13c0,3.97-16,6.13-23.23,12.63c-0.04,0.03-0.08,0.06-0.13,0.09
			c-0.51,0.39-1.03,0.97-1.55,1.72c-0.23,0.3-0.44,0.61-0.63,0.92c-0.07,0.13-0.13,0.26-0.2,0.39c-1.58,2.75-3.2,6.94-4.81,12.04
			H89.21z"/>
		<path class="st3" d="M58.68,77.56c0-6,0-14.12,0-14.12H30.55c0,0,0,12.34,0,17.83c0.7-2.06,5.39,0.43,11.6,1.65
			C48.48,84.18,55.63,82.17,58.68,77.56z"/>
		<path class="st35" d="M84.53,98.54c-0.1-0.21-0.19-0.41-0.31-0.61c-0.25-0.42-0.55-0.83-0.87-1.22c-0.45-0.6-0.89-1.09-1.33-1.42
			c-0.02-0.01-0.04-0.02-0.05-0.04c-5.22-4.74-15.09-7.18-20.14-9.68c-4.15,4.88-10.32,7.97-17.22,7.97
			c-6.9,0-13.07-3.09-17.22-7.97c-5.04,2.49-14.85,4.92-20.07,9.62c-0.04,0.03-0.08,0.06-0.13,0.09c-0.51,0.39-1.03,0.97-1.55,1.72
			c-0.23,0.3-0.44,0.61-0.63,0.92c-0.07,0.13-0.13,0.26-0.2,0.39c-1.58,2.75-3.2,6.94-4.81,12.04h89.21
			C87.65,105.4,86.07,101.29,84.53,98.54z"/>
	</g>
	<g>
		<g>
			<g>
				<path class="st2" d="M19.95,46.65c0,0-3.98-4.97-7.99-2.8c-6.83,3.69-0.98,19.13,7.44,16.22L19.95,46.65z"/>
				<path class="st3" d="M18.43,47.64c0,0-2.77-3.16-5.52-1.78c-4.67,2.35,1.06,13.44,5.25,10.31L18.43,47.64z"/>
			</g>
			<g>
				<path class="st2" d="M67.43,46.65c0,0,3.98-4.97,7.99-2.8c6.83,3.69,0.98,19.13-7.44,16.22L67.43,46.65z"/>
				<path class="st3" d="M68.95,47.64c0,0,2.77-3.16,5.52-1.78c4.67,2.35-1.06,13.44-5.25,10.31L68.95,47.64z"/>
			</g>
		</g>
		<path class="st2" d="M44.09,7.81c-14.96,0.15-27.03,8.94-27.03,29.15c0,8.92,0.24,24.01,3.69,29.61
			c3.46,5.6,8.09,7.98,11.91,10.21c3.71,2.17,7.01,3.65,11.42,3.73c4.42-0.09,7.71-1.56,11.42-3.73c3.82-2.23,8.45-4.61,11.91-10.21
			c3.46-5.6,3.69-20.69,3.69-29.61C71.12,16.75,59.06,7.96,44.09,7.81z"/>
		<path class="st5" d="M48.75,59.86c-0.08-0.34-0.26-0.62-0.42-0.81c-0.17-0.19-0.33-0.31-0.45-0.38c-0.12-0.07-0.2-0.09-0.22-0.06
			c-0.05,0.06,0.16,0.28,0.37,0.66c0.11,0.19,0.21,0.42,0.25,0.69c0.04,0.26,0.03,0.57-0.1,0.81c-0.13,0.24-0.37,0.37-0.54,0.33
			c-0.09-0.01-0.21-0.08-0.32-0.14c-0.11-0.07-0.23-0.14-0.36-0.2c-0.1-0.04-0.2-0.06-0.29-0.07c0.16-0.28,0.2-0.46,0.16-0.48
			c-0.07-0.04-0.29,0.27-0.73,0.66c-0.22,0.19-0.49,0.41-0.82,0.57c-0.33,0.17-0.72,0.29-1.14,0.3c-0.42,0-0.81-0.1-1.15-0.26
			c-0.34-0.16-0.62-0.36-0.85-0.54c-0.45-0.37-0.69-0.67-0.76-0.63c-0.03,0.02,0,0.17,0.13,0.39c-0.08,0.01-0.17,0.03-0.25,0.07
			c-0.13,0.05-0.24,0.13-0.36,0.2c-0.11,0.07-0.23,0.13-0.32,0.14c-0.18,0.04-0.42-0.09-0.54-0.33c-0.13-0.23-0.14-0.54-0.1-0.81
			c0.04-0.27,0.14-0.5,0.25-0.69c0.22-0.38,0.42-0.6,0.37-0.66c-0.02-0.03-0.1-0.01-0.22,0.06c-0.12,0.07-0.29,0.19-0.45,0.38
			c-0.17,0.19-0.34,0.46-0.42,0.81c-0.08,0.34-0.1,0.76,0.11,1.16c0.11,0.2,0.27,0.36,0.47,0.47c0.2,0.11,0.44,0.14,0.65,0.08
			c0.21-0.06,0.35-0.17,0.46-0.26c0.11-0.09,0.2-0.17,0.28-0.23c0.09-0.07,0.19-0.1,0.27-0.11c0.05,0.07,0.11,0.15,0.18,0.22
			c0.21,0.24,0.5,0.5,0.89,0.71c0.38,0.21,0.86,0.36,1.38,0.35c0.52-0.01,0.99-0.17,1.37-0.4c0.38-0.22,0.66-0.5,0.86-0.74
			c0.04-0.05,0.08-0.1,0.11-0.15c0.09,0.01,0.19,0.04,0.3,0.11c0.08,0.06,0.17,0.14,0.28,0.23c0.11,0.09,0.25,0.2,0.46,0.26
			c0.21,0.06,0.46,0.02,0.65-0.08c0.2-0.11,0.36-0.27,0.47-0.47C48.84,60.62,48.83,60.2,48.75,59.86z"/>
		<g>
			<path class="st11" d="M32.46,57.51c0,1.62-2.53,2.93-5.65,2.93c-3.12,0-5.65-1.31-5.65-2.93c0-1.62,2.53-2.93,5.65-2.93
				C29.93,54.58,32.46,55.89,32.46,57.51z"/>
			<path class="st11" d="M67.03,57.51c0,1.62-2.53,2.93-5.65,2.93c-3.12,0-5.65-1.31-5.65-2.93c0-1.62,2.53-2.93,5.65-2.93
				C64.5,54.58,67.03,55.89,67.03,57.51z"/>
		</g>
		<path class="st48" d="M12.43,33.21c-0.76,0-1.52,0-2.28,0c0.57-1.01,1.14-2.01,1.71-3.02c-0.52-0.21-1.04-0.42-1.55-0.63
			c1.9-2.27,2.68-5.2,3.37-8.04c0.69-2.84,1.39-5.78,3.17-8.14c1.78-2.36,4.97-3.99,7.84-3.09c5.15-8.02,16.46-11.74,26-9.78
			s17.5,9.02,21.55,17.62c0.88,1.87,1.61,3.84,2.83,5.52c1.22,1.68,3.07,3.09,5.19,3.22c-0.31,1.76-1.93,3.22-3.77,3.39
			c0.56,0.34,1.12,0.68,1.68,1.01c-1.15,0.73-2.31,1.47-3.46,2.2c0.77,0.15,1.54,0.31,2.31,0.46c-2.52,2.33-3,9.42-3,9.42
			c-1.6-0.23-2.96,0.45-2.96,0.45s-1.67-2.77-2.29-6.27c-0.18-1.04-0.42-2.08-0.71-3.11c-1.76,0.41-3.59,0.5-5.37,0.24
			c0.63,0.47,1.26,0.94,1.89,1.41c-5.31,1.47-11.01,1.42-16.27-0.14c0.83,0.74,1.66,1.47,2.49,2.21c-4.14,0.51-8.61-0.02-13.07-7.06
			c-1.23-1.95-3.23-14.49-8.37-9.03c-2.43-0.93-5.31,0.75-6.66,2.94c-5.72,9.25-5.53,19.25-5.53,19.25s-0.85-0.67-2.83-0.94
			c-0.49-1.8-0.52-2.99-1.01-4.79c-0.79,0.04-1.59,0.08-2.38,0.13C12.14,37.12,12.7,35.12,12.43,33.21z"/>
		<g>
			<g>
				<g>
					<defs>
						<path id="SVGID_29_" d="M51.01,50.77c0,0,1.54-2.07,6.21-2.07s5.99,1.81,5.99,1.81s-1.23,2.69-6.03,2.69
							S51.01,50.77,51.01,50.77z"/>
					</defs>
					<use xlink:href="#SVGID_29_"  style="overflow:visible;fill:#FFFFFF;"/>
					<clipPath id="SVGID_2_">
						<use xlink:href="#SVGID_29_"  style="overflow:visible;"/>
					</clipPath>
					<g class="st6">
						<circle class="st50" cx="57.22" cy="50.58" r="3.18"/>
						<circle cx="57.22" cy="50.58" r="1.78"/>
						<path class="st8" d="M58.35,49.8c0,0.2-0.16,0.36-0.36,0.36c-0.2,0-0.36-0.16-0.36-0.36c0-0.2,0.16-0.36,0.36-0.36
							C58.19,49.44,58.35,49.6,58.35,49.8z"/>
					</g>
				</g>
				<path class="st9" d="M51.01,50.77c0,0,0.69-3.16,6.21-3.16s5.99,2.9,5.99,2.9C59.48,48.02,54.41,48.35,51.01,50.77z"/>
			</g>
			<g>
				<g>
					<defs>
						<path id="SVGID_31_" d="M37.18,50.77c0,0-1.54-2.07-6.21-2.07s-5.99,1.81-5.99,1.81s1.23,2.69,6.03,2.69
							S37.18,50.77,37.18,50.77z"/>
					</defs>
					<use xlink:href="#SVGID_31_"  style="overflow:visible;fill:#FFFFFF;"/>
					<clipPath id="SVGID_4_">
						<use xlink:href="#SVGID_31_"  style="overflow:visible;"/>
					</clipPath>
					<g class="st10">
						<circle class="st50" cx="30.97" cy="50.58" r="3.18"/>
						<circle cx="30.97" cy="50.58" r="1.78"/>
						<path class="st8" d="M31.37,49.8c0,0.2,0.16,0.36,0.36,0.36s0.36-0.16,0.36-0.36c0-0.2-0.16-0.36-0.36-0.36
							S31.37,49.6,31.37,49.8z"/>
					</g>
				</g>
				<path class="st9" d="M37.18,50.77c0,0-0.69-3.16-6.21-3.16s-5.99,2.9-5.99,2.9C28.71,48.02,33.78,48.35,37.18,50.77z"/>
			</g>
		</g>
		<g>
			<path class="st48" d="M64.47,46.98c-0.07,0.05-0.24-0.03-0.5-0.18c-0.26-0.14-0.63-0.34-1.09-0.51
				c-0.46-0.17-1.02-0.31-1.63-0.37c-0.61-0.06-1.28-0.06-1.97-0.01c-0.69,0.05-1.4,0.15-2.1,0.23c-0.69,0.08-1.35,0.16-1.93,0.22
				c-1.15,0.13-1.99,0.21-2.17,0.22c-0.7,0.04-1.31-0.46-1.35-1.12c-0.04-0.66,0.5-1.22,1.2-1.26c0.18-0.01,1.02-0.03,2.18-0.03
				c0.58,0,1.24,0,1.94,0c0.7,0,1.45,0,2.23,0.06c0.77,0.06,1.55,0.17,2.26,0.39c0.71,0.21,1.33,0.52,1.81,0.86
				c0.48,0.34,0.8,0.7,0.98,0.98C64.49,46.74,64.53,46.93,64.47,46.98z"/>
			<path class="st48" d="M23.72,46.98c0.07,0.05,0.24-0.03,0.5-0.18c0.26-0.14,0.63-0.34,1.09-0.51c0.46-0.17,1.02-0.31,1.63-0.37
				c0.61-0.06,1.28-0.06,1.97-0.01c0.69,0.05,1.4,0.15,2.1,0.23c0.69,0.08,1.35,0.16,1.93,0.22c1.15,0.13,1.99,0.21,2.17,0.22
				c0.7,0.04,1.31-0.46,1.35-1.12c0.04-0.66-0.5-1.22-1.2-1.26c-0.18-0.01-1.02-0.03-2.18-0.03c-0.58,0-1.24,0-1.94,0
				c-0.7,0-1.45,0-2.23,0.06c-0.77,0.06-1.55,0.17-2.26,0.39c-0.71,0.21-1.33,0.52-1.81,0.86c-0.48,0.34-0.8,0.7-0.98,0.98
				C23.69,46.74,23.66,46.93,23.72,46.98z"/>
		</g>
		<g>
			<path class="st13" d="M48.62,64.36c-1.29,0.09-3.59,0.49-4.53,0.65c-0.94-0.16-3.24-0.56-4.53-0.65
				c-2.94-0.16-5.54-0.34-8.42-1.34c1.36,1.36,5.91,9.04,12.64,9.12c0.11,0,0.51,0,0.62,0c6.73-0.08,11.29-7.76,12.64-9.12
				C54.17,64.02,51.57,64.2,48.62,64.36z"/>
			<path class="st8" d="M44.09,66.41c-5.84,0-10.33-2.02-10.33-2.02c1.08,0.6,4.72,4,10.09,4.03c0.08,0,0.41,0,0.49,0
				c5.37-0.04,9-3.43,10.09-4.03C54.43,64.4,49.94,66.41,44.09,66.41z"/>
		</g>
	</g>
</g>
</svg>
