<?xml version="1.0" encoding="utf-8"?>
<!-- Generator: Adobe Illustrator 25.2.1, SVG Export Plug-In . SVG Version: 6.00 Build 0)  -->
<svg version="1.1" id="ëÎÓÈ_1" xmlns="http://www.w3.org/2000/svg" xmlns:xlink="http://www.w3.org/1999/xlink" x="0px" y="0px"
	 viewBox="0 0 89.21 113.99" style="enable-background:new 0 0 89.21 113.99;" xml:space="preserve">
<style type="text/css">
	.st0{fill:#D39775;}
	.st1{fill:#C68463;}
	.st2{fill:#FFC197;}
	.st3{fill:#FCA76D;}
	.st4{fill:#FF8599;}
	.st5{fill:#DD7B45;}
	.st6{clip-path:url(#SVGID_2_);}
	.st7{fill:#4E899B;}
	.st8{fill:#FFFFFF;}
	.st9{fill:#B28C79;}
	.st10{clip-path:url(#SVGID_4_);}
	.st11{fill:#FFA892;}
	.st12{fill:#E8A982;}
	.st13{fill:#FF7B6D;}
	.st14{fill:#04AEB7;}
	.st15{fill:#EA6835;}
	.st16{clip-path:url(#SVGID_6_);}
	.st17{clip-path:url(#SVGID_8_);}
	.st18{fill:#B68461;}
	.st19{fill:#915F3D;}
	.st20{fill:#F7F5ED;}
	.st21{fill:#E87870;}
	.st22{fill:#93322B;}
	.st23{fill:#725440;}
	.st24{clip-path:url(#SVGID_10_);}
	.st25{fill:#543927;}
	.st26{clip-path:url(#SVGID_12_);}
	.st27{fill:#2B211A;}
	.st28{fill:#492B14;}
	.st29{fill:#845535;}
	.st30{clip-path:url(#SVGID_14_);}
	.st31{fill:#186858;}
	.st32{clip-path:url(#SVGID_16_);}
	.st33{fill:#F95548;}
	.st34{fill:#C93F14;}
	.st35{fill:#77B232;}
	.st36{clip-path:url(#SVGID_18_);}
	.st37{fill:#407046;}
	.st38{clip-path:url(#SVGID_20_);}
	.st39{fill:#FF6666;}
	.st40{clip-path:url(#SVGID_22_);}
	.st41{fill:#5E361B;}
	.st42{clip-path:url(#SVGID_24_);}
	.st43{fill:#E2233A;}
	.st44{clip-path:url(#SVGID_26_);}
	.st45{fill:#82543D;}
	.st46{clip-path:url(#SVGID_28_);}
	.st47{fill:#E63236;}
	.st48{fill:#3D2C22;}
	.st49{clip-path:url(#SVGID_30_);}
	.st50{fill:#536784;}
	.st51{clip-path:url(#SVGID_32_);}
	.st52{fill:#52728A;}
	.st53{clip-path:url(#SVGID_34_);}
	.st54{clip-path:url(#SVGID_36_);}
	.st55{fill:#A30C0C;}
	.st56{clip-path:url(#SVGID_38_);}
	.st57{clip-path:url(#SVGID_40_);}
	.st58{fill:#75380E;}
	.st59{clip-path:url(#SVGID_42_);}
	.st60{clip-path:url(#SVGID_44_);}
	.st61{clip-path:url(#SVGID_46_);}
	.st62{clip-path:url(#SVGID_48_);}
	.st63{fill:#FC6054;}
	.st64{fill:#CC9A79;}
</style>
<g>
	<g>
		<path class="st2" d="M89.21,113.99c-1.57-4.97-3.14-9.08-4.68-11.83c-0.1-0.21-0.19-0.41-0.31-0.61
			c-0.25-0.42-0.55-0.83-0.87-1.22c-0.45-0.6-0.89-1.09-1.33-1.42c-0.02-0.01-0.04-0.02-0.05-0.04c-7.2-6.54-23.29-8.71-23.29-12.68
			c0-4.48,0-19.12,0-19.12H30.55c0,0,0,14.65,0,19.12c0,3.97-16,6.13-23.23,12.63c-0.04,0.03-0.08,0.06-0.13,0.09
			c-0.51,0.39-1.03,0.97-1.55,1.72c-0.23,0.3-0.44,0.61-0.63,0.92c-0.07,0.13-0.13,0.26-0.2,0.39c-1.58,2.75-3.2,6.94-4.81,12.04
			H89.21z"/>
		<path class="st3" d="M58.68,81.19c0-6,0-14.12,0-14.12H30.55c0,0,0,12.34,0,17.83c0.7-2.06,5.39,0.43,11.6,1.65
			C48.48,87.8,55.63,85.79,58.68,81.19z"/>
		<path class="st14" d="M84.53,102.16c-0.1-0.21-0.19-0.41-0.31-0.61c-0.25-0.42-0.55-0.83-0.87-1.22c-0.45-0.6-0.89-1.09-1.33-1.42
			c-0.02-0.01-0.04-0.02-0.05-0.04c-5.22-4.74-15.09-7.18-20.14-9.68c-4.15,4.88-10.32,7.97-17.22,7.97
			c-6.9,0-13.07-3.09-17.22-7.97c-5.04,2.49-14.85,4.92-20.07,9.62c-0.04,0.03-0.08,0.06-0.13,0.09c-0.51,0.39-1.03,0.97-1.55,1.72
			c-0.23,0.3-0.44,0.61-0.63,0.92c-0.07,0.13-0.13,0.26-0.2,0.39c-1.58,2.75-3.2,6.94-4.81,12.04h89.21
			C87.65,109.02,86.07,104.92,84.53,102.16z"/>
	</g>
	<g>
		<g>
			<g>
				<path class="st2" d="M20.62,50.27c0,0-3.98-4.97-7.99-2.8c-6.83,3.69-0.98,19.13,7.44,16.22L20.62,50.27z"/>
				<path class="st3" d="M19.1,51.27c0,0-2.77-3.16-5.52-1.78c-4.67,2.35,1.06,13.44,5.25,10.31L19.1,51.27z"/>
			</g>
			<g>
				<path class="st2" d="M68.09,50.27c0,0,3.98-4.97,7.99-2.8c6.83,3.69,0.98,19.13-7.44,16.22L68.09,50.27z"/>
				<path class="st3" d="M69.61,51.27c0,0,2.77-3.16,5.52-1.78c4.67,2.35-1.06,13.44-5.25,10.31L69.61,51.27z"/>
			</g>
		</g>
		<path class="st2" d="M44.76,11.43c-14.96,0.15-27.03,8.94-27.03,29.15c0,8.92,0.24,24.01,3.69,29.61
			c3.46,5.6,8.09,7.98,11.91,10.21c3.71,2.17,7.01,3.65,11.42,3.73c4.42-0.09,7.71-1.56,11.42-3.73C60,78.18,64.63,75.8,68.09,70.2
			c3.46-5.6,3.69-20.69,3.69-29.61C71.79,20.37,59.72,11.58,44.76,11.43z"/>
		<g>
			<path class="st13" d="M47.19,69.39c-1.13,0.17-1.32,0.28-2.42,0.3c-1.09-0.02-1.29-0.13-2.42-0.3c-2.38-0.49-3.86,0.12-6.88,0.22
				c1.59,2.9,5.15,6.19,9.29,6.19c4.14,0,7.71-3.29,9.29-6.19C51.05,69.51,49.57,68.9,47.19,69.39z"/>
			<path class="st8" d="M44.77,73.3c-3.96,0-7.08-2.65-7.08-2.65s5.92,0.01,7.33,0c0.71,0,6.87,0.12,6.87,0.12
				S48.73,73.3,44.77,73.3z"/>
		</g>
		<path class="st15" d="M73.71,41.54l-2.04,11.59l-0.51,0.01c0.41-7.36,3.22-36.91-26.84-36.91S17.93,45.5,18.35,53.14l-0.51-0.01
			l-1.79-11.11c0,0-5.29-34.7,29.65-34.7S73.71,41.54,73.71,41.54z"/>
		<path class="st5" d="M49.41,64.08c-0.08-0.34-0.26-0.62-0.42-0.81c-0.17-0.19-0.33-0.31-0.45-0.38c-0.12-0.07-0.2-0.09-0.22-0.06
			c-0.05,0.06,0.16,0.28,0.37,0.66c0.11,0.19,0.21,0.42,0.25,0.69c0.04,0.26,0.03,0.57-0.1,0.81c-0.13,0.24-0.37,0.37-0.54,0.33
			c-0.09-0.01-0.21-0.07-0.32-0.14c-0.11-0.07-0.23-0.14-0.36-0.2c-0.1-0.04-0.2-0.06-0.29-0.07c0.16-0.28,0.2-0.46,0.16-0.48
			c-0.07-0.04-0.29,0.27-0.73,0.66c-0.22,0.19-0.49,0.41-0.82,0.57c-0.33,0.17-0.72,0.29-1.14,0.3c-0.42,0-0.81-0.1-1.15-0.26
			c-0.34-0.16-0.62-0.36-0.85-0.54c-0.45-0.37-0.69-0.67-0.76-0.63c-0.03,0.02,0,0.17,0.13,0.39c-0.08,0.01-0.17,0.03-0.25,0.07
			c-0.13,0.05-0.24,0.13-0.36,0.2c-0.11,0.07-0.23,0.13-0.32,0.14c-0.18,0.04-0.42-0.09-0.54-0.33c-0.13-0.23-0.14-0.54-0.1-0.81
			c0.04-0.27,0.14-0.5,0.25-0.69c0.22-0.38,0.42-0.6,0.37-0.66c-0.02-0.03-0.1-0.01-0.22,0.06c-0.12,0.07-0.29,0.19-0.45,0.38
			c-0.17,0.19-0.34,0.46-0.42,0.81c-0.08,0.34-0.1,0.76,0.11,1.16c0.11,0.2,0.27,0.36,0.47,0.47c0.2,0.11,0.44,0.14,0.65,0.08
			c0.21-0.06,0.35-0.17,0.46-0.26c0.11-0.09,0.2-0.17,0.28-0.23c0.09-0.07,0.19-0.1,0.27-0.11c0.05,0.07,0.11,0.15,0.18,0.22
			c0.21,0.24,0.5,0.5,0.89,0.71c0.38,0.21,0.86,0.36,1.38,0.35c0.52-0.01,0.99-0.17,1.37-0.4c0.38-0.22,0.66-0.5,0.86-0.74
			c0.04-0.05,0.08-0.1,0.11-0.15c0.09,0.01,0.19,0.04,0.3,0.11c0.08,0.06,0.17,0.14,0.28,0.23c0.11,0.09,0.25,0.2,0.46,0.26
			c0.21,0.06,0.46,0.02,0.65-0.08c0.2-0.11,0.36-0.27,0.47-0.47C49.51,64.84,49.49,64.42,49.41,64.08z"/>
		<path class="st15" d="M69.83,30.44c-2.05,2.73-0.84,7.24,2.29,8.59c-1.78,0.72-2.61,3.17-1.63,4.82c0.98,1.66,3.52,2.11,5.01,0.9
			c1.49-1.22,1.57-3.79,0.14-5.09c1.09,0.84,2.82,0.43,3.67-0.65c0.85-1.08,0.95-2.62,0.56-3.94c-0.38-1.32-1.18-2.49-1.98-3.61
			c2.67-1.06,4.41-4.09,3.97-6.93c-0.44-2.84-3.02-5.2-5.89-5.39c0.65-1.41,0.24-3.23-0.96-4.22c-1.2-0.99-3.06-1.05-4.32-0.14
			c1.22-3.3,0.16-7.32-2.54-9.58c-2.7-2.26-6.83-2.61-9.87-0.84c-0.7-2.25-2.83-3.99-5.18-4.23s-4.78,1.03-5.93,3.09
			c-2.75-2.45-6.59-3.62-10.24-3.1c-3.64,0.52-7.02,2.71-8.97,5.83c-2.05-2.6-6.5-2.77-8.75-0.33c-1.56,1.7-2.06,4.27-3.9,5.65
			c-1.45,1.1-3.61,1.16-5.12,0.15C8.68,10.4,7.92,8.39,8.37,6.63C4.76,9.89,4.56,16.21,7.96,19.7c-1.11-0.09-2.23-0.17-3.34-0.26
			c0.76,4.62,3.59,8.87,7.56,11.36c-1.33,0.14-2.66,0.28-3.98,0.41c-0.51,3.18,1.82,6.56,4.97,7.22c-1.26,1.62-0.01,4.45,2.04,4.62
			c2.05,0.16,3.73-2.44,2.74-4.24c3.29,0.63,6.69-1.02,9.01-3.44c2.32-2.42,3.76-5.53,5.17-8.58c1.63,1.62,4.17,2.26,6.38,1.62
			c2.21-0.64,4-2.55,4.51-4.79c1.79,1.77,5.22,1.34,6.52-0.82c1.31,3.21,4.72,5.45,8.18,5.37c3.1-0.07,5.21-1.83,7.15-4
			C65.32,26.97,66.92,29.66,69.83,30.44z"/>
		<g>
			<g>
				<g>
					<defs>
						<path id="SVGID_5_" d="M51.03,52.95c0,0,1.66-2.24,6.7-2.24c5.04,0,6.45,1.96,6.45,1.96s-1.33,2.9-6.5,2.9
							S51.03,52.95,51.03,52.95z"/>
					</defs>
					<use xlink:href="#SVGID_5_"  style="overflow:visible;fill:#FFFFFF;"/>
					<clipPath id="SVGID_2_">
						<use xlink:href="#SVGID_5_"  style="overflow:visible;"/>
					</clipPath>
					<g class="st6">
						<path class="st7" d="M61.16,52.57c0,1.9-1.54,3.43-3.43,3.43s-3.43-1.54-3.43-3.43c0-1.9,1.54-3.43,3.43-3.43
							S61.16,50.67,61.16,52.57z"/>
						<path d="M59.65,52.57c0,1.06-0.86,1.92-1.92,1.92c-1.06,0-1.92-0.86-1.92-1.92c0-1.06,0.86-1.92,1.92-1.92
							C58.79,50.65,59.65,51.51,59.65,52.57z"/>
						<path class="st8" d="M58.95,51.73c0,0.21-0.17,0.39-0.39,0.39c-0.21,0-0.39-0.17-0.39-0.39c0-0.21,0.17-0.39,0.39-0.39
							C58.78,51.34,58.95,51.51,58.95,51.73z"/>
					</g>
				</g>
				<path class="st9" d="M51.03,52.95c0,0,0.74-3.4,6.7-3.4c5.96,0,6.45,3.13,6.45,3.13C60.16,49.97,54.7,50.33,51.03,52.95z"/>
			</g>
			<g>
				<g>
					<defs>
						<path id="SVGID_7_" d="M38.49,52.95c0,0-1.66-2.24-6.7-2.24c-5.04,0-6.45,1.96-6.45,1.96s1.33,2.9,6.5,2.9
							C37.01,55.56,38.49,52.95,38.49,52.95z"/>
					</defs>
					<use xlink:href="#SVGID_7_"  style="overflow:visible;fill:#FFFFFF;"/>
					<clipPath id="SVGID_4_">
						<use xlink:href="#SVGID_7_"  style="overflow:visible;"/>
					</clipPath>
					<g class="st10">
						<path class="st7" d="M28.36,52.57c0,1.9,1.54,3.43,3.43,3.43c1.9,0,3.43-1.54,3.43-3.43c0-1.9-1.54-3.43-3.43-3.43
							C29.89,49.14,28.36,50.67,28.36,52.57z"/>
						<path d="M29.87,52.57c0,1.06,0.86,1.92,1.92,1.92c1.06,0,1.92-0.86,1.92-1.92c0-1.06-0.86-1.92-1.92-1.92
							C30.73,50.65,29.87,51.51,29.87,52.57z"/>
						<path class="st8" d="M32.23,51.73c0,0.21,0.17,0.39,0.39,0.39c0.21,0,0.39-0.17,0.39-0.39c0-0.21-0.17-0.39-0.39-0.39
							C32.4,51.34,32.23,51.51,32.23,51.73z"/>
					</g>
				</g>
				<path class="st9" d="M38.49,52.95c0,0-0.74-3.4-6.7-3.4c-5.96,0-6.45,3.13-6.45,3.13C29.35,49.97,34.82,50.33,38.49,52.95z"/>
			</g>
		</g>
		<g>
			<path class="st15" d="M65.07,46.9c-0.07,0.06-0.24-0.04-0.51-0.19c-0.27-0.15-0.64-0.36-1.11-0.53
				c-0.47-0.18-1.04-0.32-1.66-0.39c-0.62-0.07-1.3-0.06-2-0.01c-0.7,0.05-1.42,0.15-2.13,0.24c-0.7,0.08-1.37,0.16-1.96,0.23
				c-1.17,0.13-2.02,0.22-2.2,0.23c-0.72,0.04-1.33-0.48-1.37-1.17c-0.04-0.69,0.5-1.28,1.22-1.32c0.18-0.01,1.03-0.03,2.21-0.04
				c0.59,0,1.26,0,1.97,0c0.71,0,1.48,0,2.26,0.06c0.78,0.06,1.57,0.18,2.29,0.41c0.72,0.22,1.35,0.55,1.83,0.9
				c0.48,0.35,0.81,0.73,0.99,1.03C65.09,46.65,65.13,46.85,65.07,46.9z"/>
			<path class="st15" d="M24.45,46.9c0.07,0.06,0.24-0.04,0.51-0.19c0.27-0.15,0.64-0.36,1.11-0.53c0.47-0.18,1.04-0.32,1.66-0.39
				c0.62-0.07,1.3-0.06,2-0.01c0.7,0.05,1.42,0.15,2.13,0.24c0.7,0.08,1.37,0.16,1.96,0.23c1.17,0.13,2.02,0.22,2.2,0.23
				c0.72,0.04,1.33-0.48,1.37-1.17c0.04-0.69-0.5-1.28-1.22-1.32c-0.18-0.01-1.03-0.03-2.21-0.04c-0.59,0-1.26,0-1.97,0
				c-0.71,0-1.48,0-2.26,0.06c-0.78,0.06-1.57,0.18-2.29,0.41c-0.72,0.22-1.35,0.55-1.83,0.9c-0.48,0.35-0.81,0.73-0.99,1.03
				C24.43,46.65,24.39,46.85,24.45,46.9z"/>
		</g>
		<g>
			<path class="st11" d="M33.12,61.13c0,1.62-2.53,2.93-5.65,2.93c-3.12,0-5.65-1.31-5.65-2.93c0-1.62,2.53-2.93,5.65-2.93
				C30.59,58.2,33.12,59.51,33.12,61.13z"/>
			<path class="st11" d="M67.7,61.13c0,1.62-2.53,2.93-5.65,2.93s-5.65-1.31-5.65-2.93c0-1.62,2.53-2.93,5.65-2.93
				S67.7,59.51,67.7,61.13z"/>
		</g>
	</g>
</g>
</svg>
