<?xml version="1.0" encoding="utf-8"?>
<!-- Generator: Adobe Illustrator 25.2.1, SVG Export Plug-In . SVG Version: 6.00 Build 0)  -->
<svg version="1.1" id="ëÎÓÈ_1" xmlns="http://www.w3.org/2000/svg" xmlns:xlink="http://www.w3.org/1999/xlink" x="0px" y="0px"
	 viewBox="0 0 89.21 114.66" style="enable-background:new 0 0 89.21 114.66;" xml:space="preserve">
<style type="text/css">
	.st0{fill:#D39775;}
	.st1{fill:#C68463;}
	.st2{fill:#FFC197;}
	.st3{fill:#FCA76D;}
	.st4{fill:#FF8599;}
	.st5{fill:#DD7B45;}
	.st6{clip-path:url(#SVGID_2_);}
	.st7{fill:#4E899B;}
	.st8{fill:#FFFFFF;}
	.st9{fill:#B28C79;}
	.st10{clip-path:url(#SVGID_4_);}
	.st11{fill:#FFA892;}
	.st12{fill:#E8A982;}
	.st13{fill:#FF7B6D;}
	.st14{fill:#04AEB7;}
	.st15{fill:#EA6835;}
	.st16{clip-path:url(#SVGID_6_);}
	.st17{clip-path:url(#SVGID_8_);}
	.st18{fill:#B68461;}
	.st19{fill:#915F3D;}
	.st20{fill:#F7F5ED;}
	.st21{fill:#E87870;}
	.st22{fill:#93322B;}
	.st23{fill:#725440;}
	.st24{clip-path:url(#SVGID_10_);}
	.st25{fill:#543927;}
	.st26{clip-path:url(#SVGID_12_);}
	.st27{fill:#2B211A;}
	.st28{fill:#492B14;}
	.st29{fill:#845535;}
	.st30{clip-path:url(#SVGID_14_);}
	.st31{fill:#186858;}
	.st32{clip-path:url(#SVGID_16_);}
	.st33{fill:#F95548;}
	.st34{fill:#C93F14;}
	.st35{fill:#77B232;}
	.st36{clip-path:url(#SVGID_18_);}
	.st37{fill:#407046;}
	.st38{clip-path:url(#SVGID_20_);}
	.st39{fill:#FF6666;}
	.st40{clip-path:url(#SVGID_22_);}
	.st41{fill:#5E361B;}
	.st42{clip-path:url(#SVGID_24_);}
	.st43{fill:#E2233A;}
	.st44{clip-path:url(#SVGID_26_);}
	.st45{fill:#82543D;}
	.st46{clip-path:url(#SVGID_28_);}
	.st47{fill:#E63236;}
	.st48{fill:#3D2C22;}
	.st49{clip-path:url(#SVGID_30_);}
	.st50{fill:#536784;}
	.st51{clip-path:url(#SVGID_32_);}
	.st52{fill:#52728A;}
	.st53{clip-path:url(#SVGID_34_);}
	.st54{clip-path:url(#SVGID_36_);}
	.st55{fill:#A30C0C;}
	.st56{clip-path:url(#SVGID_38_);}
	.st57{clip-path:url(#SVGID_40_);}
	.st58{fill:#75380E;}
	.st59{clip-path:url(#SVGID_42_);}
	.st60{clip-path:url(#SVGID_44_);}
	.st61{clip-path:url(#SVGID_46_);}
	.st62{clip-path:url(#SVGID_48_);}
	.st63{fill:#FC6054;}
	.st64{fill:#CC9A79;}
</style>
<g>
	<g>
		<path class="st18" d="M89.21,114.66c-1.57-4.97-3.14-9.08-4.68-11.83c-0.1-0.21-0.19-0.41-0.31-0.61
			c-0.25-0.42-0.55-0.83-0.87-1.22c-0.45-0.6-0.89-1.09-1.33-1.42c-0.02-0.01-0.04-0.02-0.05-0.04c-7.2-6.54-23.29-8.71-23.29-12.68
			c0-4.48,0-19.12,0-19.12H30.55c0,0,0,14.65,0,19.12c0,3.97-16,6.13-23.23,12.63c-0.04,0.03-0.08,0.06-0.13,0.09
			c-0.51,0.39-1.03,0.97-1.55,1.72c-0.23,0.3-0.44,0.61-0.63,0.92c-0.07,0.13-0.13,0.26-0.2,0.39c-1.58,2.75-3.2,6.94-4.81,12.04
			H89.21z"/>
		<path class="st19" d="M58.68,81.86c0-6,0-14.12,0-14.12H30.55c0,0,0,12.34,0,17.83c0.7-2.06,5.39,0.43,11.6,1.65
			C48.48,88.47,55.63,86.46,58.68,81.86z"/>
		<path class="st20" d="M84.53,102.83c-0.1-0.21-0.19-0.41-0.31-0.61c-0.25-0.42-0.55-0.83-0.87-1.22c-0.45-0.6-0.89-1.09-1.33-1.42
			c-0.02-0.01-0.04-0.02-0.05-0.04c-5.22-4.74-15.09-7.18-20.14-9.68c-4.15,4.88-10.32,7.97-17.22,7.97
			c-6.9,0-13.07-3.09-17.22-7.97c-5.04,2.49-14.85,4.92-20.07,9.62c-0.04,0.03-0.08,0.06-0.13,0.09c-0.51,0.39-1.03,0.97-1.55,1.72
			c-0.23,0.3-0.44,0.61-0.63,0.92c-0.07,0.13-0.13,0.26-0.2,0.39c-1.58,2.75-3.2,6.94-4.81,12.04h89.21
			C87.65,109.69,86.07,105.59,84.53,102.83z"/>
	</g>
	<g>
		<g>
			<g>
				<path class="st18" d="M20.87,50.94c0,0-3.98-4.97-7.99-2.8c-6.83,3.69-0.98,19.13,7.44,16.22L20.87,50.94z"/>
				<path class="st19" d="M19.35,51.94c0,0-2.77-3.16-5.52-1.78c-4.67,2.35,1.06,13.44,5.25,10.31L19.35,51.94z"/>
			</g>
			<g>
				<path class="st18" d="M68.35,50.94c0,0,3.98-4.97,7.99-2.8c6.83,3.69,0.98,19.13-7.44,16.22L68.35,50.94z"/>
				<path class="st19" d="M69.87,51.94c0,0,2.77-3.16,5.52-1.78c4.67,2.35-1.06,13.44-5.25,10.31L69.87,51.94z"/>
			</g>
		</g>
		<path class="st18" d="M45.01,12.1c-14.96,0.15-27.03,8.94-27.03,29.15c0,8.92,0.24,24.01,3.69,29.61
			c3.46,5.6,8.09,7.98,11.91,10.21c3.71,2.17,7.01,3.65,11.42,3.73c4.42-0.09,7.71-1.56,11.42-3.73c3.82-2.23,8.45-4.61,11.91-10.21
			c3.46-5.6,3.69-20.69,3.69-29.61C72.04,21.04,59.97,12.25,45.01,12.1z"/>
		<g>
			<path class="st21" d="M46.78,70.02c-1.02,0.07-1.21,0.8-2.17,0.81c-0.97-0.01-1.15-0.74-2.17-0.81c-2.15-0.19-3.5,0.19-6.04,1.49
				c1.74,2.66,1.45,5.23,8.22,5.49c6.76-0.26,6.48-2.83,8.22-5.49C50.28,70.21,48.93,69.83,46.78,70.02z"/>
			<path class="st22" d="M52.32,71.57c0.02,0.03-0.15,0.18-0.5,0.39c-0.35,0.21-0.9,0.46-1.62,0.62c-0.18,0.04-2.89,0.57-5.59,0.55
				c-2.6-0.02-5.21-0.57-5.56-0.64c-0.72-0.13-1.29-0.34-1.65-0.54c-0.09-0.05-0.17-0.09-0.24-0.14c-0.06-0.05-0.12-0.09-0.16-0.12
				c-0.08-0.07-0.12-0.11-0.11-0.13c0.01-0.02,0.07,0,0.17,0.03c0.05,0.02,0.11,0.04,0.18,0.07c0.07,0.03,0.15,0.05,0.25,0.09
				c0.37,0.13,0.92,0.27,1.62,0.35c0.7,0.08,1.54,0.11,2.47,0.09c0.93-0.01,1.96-0.07,3.04-0.07c0.55,0,1.08,0.03,1.59,0.06
				c0.51,0.03,1,0.07,1.46,0.09c0.47,0.02,0.91,0.03,1.32,0.02c0.41-0.02,0.79-0.04,1.14-0.1C51.51,71.98,52.27,71.49,52.32,71.57z"
				/>
		</g>
		<path class="st23" d="M49.66,64.75c-0.08-0.34-0.26-0.62-0.42-0.81c-0.17-0.19-0.33-0.31-0.45-0.38c-0.12-0.07-0.2-0.09-0.22-0.06
			c-0.05,0.06,0.16,0.28,0.37,0.66c0.11,0.19,0.21,0.42,0.25,0.69c0.04,0.26,0.03,0.57-0.1,0.81c-0.13,0.24-0.37,0.37-0.54,0.33
			c-0.09-0.01-0.21-0.08-0.32-0.14c-0.11-0.07-0.23-0.14-0.36-0.2c-0.1-0.04-0.2-0.06-0.29-0.07c0.16-0.28,0.2-0.46,0.16-0.48
			c-0.07-0.04-0.29,0.27-0.73,0.66c-0.22,0.19-0.49,0.41-0.82,0.57c-0.33,0.17-0.72,0.29-1.14,0.3c-0.42,0-0.81-0.1-1.15-0.26
			c-0.34-0.16-0.62-0.36-0.85-0.54c-0.45-0.37-0.69-0.67-0.76-0.63c-0.03,0.02,0,0.17,0.13,0.39c-0.08,0.01-0.17,0.03-0.25,0.07
			c-0.13,0.05-0.24,0.13-0.36,0.2c-0.11,0.07-0.23,0.13-0.32,0.14c-0.18,0.04-0.42-0.09-0.54-0.33c-0.13-0.23-0.14-0.54-0.1-0.81
			c0.04-0.27,0.14-0.5,0.25-0.69c0.22-0.38,0.42-0.6,0.37-0.66c-0.02-0.03-0.1-0.01-0.22,0.06c-0.12,0.07-0.29,0.19-0.45,0.38
			c-0.17,0.19-0.34,0.46-0.42,0.81c-0.08,0.34-0.1,0.76,0.11,1.16c0.11,0.2,0.27,0.36,0.47,0.47c0.2,0.11,0.44,0.14,0.65,0.08
			c0.21-0.06,0.35-0.17,0.46-0.26c0.11-0.09,0.2-0.17,0.28-0.23c0.09-0.07,0.19-0.1,0.27-0.11c0.05,0.07,0.11,0.15,0.18,0.22
			c0.21,0.24,0.5,0.5,0.89,0.71c0.38,0.21,0.86,0.36,1.38,0.35c0.52-0.01,0.99-0.17,1.37-0.4c0.38-0.22,0.66-0.5,0.86-0.74
			c0.04-0.05,0.08-0.1,0.11-0.15c0.09,0.01,0.19,0.04,0.29,0.11c0.08,0.06,0.17,0.14,0.28,0.23c0.11,0.09,0.25,0.2,0.46,0.26
			c0.21,0.06,0.46,0.02,0.65-0.08c0.2-0.11,0.36-0.27,0.47-0.47C49.76,65.51,49.74,65.09,49.66,64.75z"/>
		<g>
			<g>
				<g>
					<defs>
						<path id="SVGID_9_" d="M51.62,53.43c-0.08-1.67,3.6-3.56,5.68-3.54c1.84,0.01,5.66,1.09,5.47,3.29
							c-0.11,1.27-1.1,2.45-5.47,2.45S51.67,54.43,51.62,53.43z"/>
					</defs>
					<use xlink:href="#SVGID_9_"  style="overflow:visible;fill:#FFFFFF;"/>
					<clipPath id="SVGID_2_">
						<use xlink:href="#SVGID_9_"  style="overflow:visible;"/>
					</clipPath>
					<g class="st6">
						<path class="st25" d="M60.55,52.76c0,1.79-1.45,3.24-3.24,3.24c-1.79,0-3.24-1.45-3.24-3.24s1.45-3.24,3.24-3.24
							C59.1,49.52,60.55,50.97,60.55,52.76z"/>
						<path d="M59.12,52.76c0,1-0.81,1.82-1.82,1.82c-1,0-1.82-0.81-1.82-1.82s0.81-1.82,1.82-1.82
							C58.31,50.94,59.12,51.76,59.12,52.76z"/>
						<path class="st8" d="M58.77,53.13c0,0.2-0.16,0.37-0.37,0.37c-0.2,0-0.37-0.16-0.37-0.37c0-0.2,0.16-0.37,0.37-0.37
							C58.61,52.76,58.77,52.92,58.77,53.13z"/>
					</g>
				</g>
				<path class="st23" d="M51.62,53.27c-0.16-2.32,3.42-3.76,5.68-3.75c2.11,0.01,5.92,1.09,5.46,3.66
					C58.73,50.23,54.17,51.54,51.62,53.27z"/>
			</g>
			<g>
				<g>
					<defs>
						<path id="SVGID_11_" d="M37.59,53.43c0.08-1.67-3.6-3.56-5.68-3.54c-1.84,0.01-5.66,1.09-5.47,3.29
							c0.11,1.27,1.1,2.45,5.47,2.45S37.55,54.43,37.59,53.43z"/>
					</defs>
					<use xlink:href="#SVGID_11_"  style="overflow:visible;fill:#FFFFFF;"/>
					<clipPath id="SVGID_4_">
						<use xlink:href="#SVGID_11_"  style="overflow:visible;"/>
					</clipPath>
					<g class="st10">
						<circle class="st25" cx="31.91" cy="52.76" r="3.24"/>
						<path d="M30.09,52.76c0,1,0.81,1.82,1.82,1.82c1,0,1.82-0.81,1.82-1.82s-0.81-1.82-1.82-1.82
							C30.91,50.94,30.09,51.76,30.09,52.76z"/>
						<path class="st8" d="M32.62,53.13c0,0.2,0.16,0.37,0.37,0.37c0.2,0,0.37-0.16,0.37-0.37c0-0.2-0.16-0.37-0.37-0.37
							C32.78,52.76,32.62,52.92,32.62,53.13z"/>
					</g>
				</g>
				<path class="st23" d="M37.59,53.27c0.16-2.32-3.42-3.76-5.68-3.75c-2.11,0.01-5.92,1.09-5.46,3.66
					C30.48,50.23,35.04,51.54,37.59,53.27z"/>
			</g>
		</g>
		<g>
			<path class="st27" d="M65.28,48.44c-0.08,0.06-0.28-0.04-0.58-0.22c-0.31-0.18-0.73-0.42-1.27-0.62
				c-0.54-0.21-1.19-0.37-1.9-0.45c-0.71-0.08-1.49-0.07-2.3-0.01c-0.8,0.06-1.63,0.18-2.44,0.28c-0.81,0.1-1.57,0.19-2.24,0.27
				c-1.34,0.16-2.32,0.26-2.52,0.27c-0.82,0.05-1.52-0.56-1.57-1.36c-0.05-0.8,0.58-1.49,1.4-1.54c0.2-0.01,1.18-0.03,2.54-0.04
				c0.68,0,1.45,0,2.26,0c0.81,0,1.69,0,2.59,0.07c0.9,0.07,1.8,0.21,2.63,0.48c0.83,0.26,1.55,0.64,2.1,1.05
				c0.55,0.41,0.93,0.86,1.14,1.2C65.31,48.15,65.36,48.38,65.28,48.44z"/>
			<path class="st27" d="M24.74,48.44c0.08,0.06,0.28-0.04,0.58-0.22c0.31-0.18,0.73-0.42,1.27-0.62c0.54-0.21,1.19-0.37,1.9-0.45
				c0.71-0.08,1.49-0.07,2.3-0.01c0.8,0.06,1.63,0.18,2.44,0.28c0.81,0.1,1.57,0.19,2.24,0.27c1.34,0.16,2.32,0.26,2.52,0.27
				c0.82,0.05,1.52-0.56,1.57-1.36c0.05-0.8-0.58-1.49-1.4-1.54c-0.2-0.01-1.18-0.03-2.54-0.04c-0.68,0-1.45,0-2.26,0
				c-0.81,0-1.69,0-2.59,0.07c-0.9,0.07-1.8,0.21-2.63,0.48c-0.83,0.26-1.55,0.64-2.1,1.05c-0.55,0.41-0.93,0.86-1.14,1.2
				C24.71,48.15,24.66,48.38,24.74,48.44z"/>
		</g>
		<path class="st27" d="M27.32,14.89c-0.43-2.26,0.64-4.61,2.25-6.26c1.61-1.65,3.71-2.72,5.78-3.72C39.04,3.14,42.81,1.5,46.62,0
			c-0.21,0.76-0.43,1.51-0.64,2.27c5.33-0.47,10.7-0.39,16.01,0.25c-0.47,0.5-0.95,0.99-1.42,1.49c3.96,0.15,7.93,0.3,11.89,0.45
			c-0.75,1.36-1.51,2.72-2.26,4.08c0.82,0.01,1.64,0.03,2.46,0.04c0.33,2.92,0.66,5.85,0.99,8.77c0.41-0.3,0.82-0.59,1.23-0.89
			c0.54,9.81,0.28,31.26,0.28,31.26c-1.66-0.3-3.18,0.41-3.18,0.41l-0.16,4.45l-0.54-0.13c0.81-16.78-1.79-24.09-6.83-27.04
			c-5.2-3.04-5.53,0.81-19.22,0.59s-15.9-3.95-22.18,2c-2.39,2.27-4.39,24.16-4.39,24.16h-0.45l-0.13-3.61
			c-0.84-0.44-1.52-0.78-2.32-0.89c0,0-0.75-13.08,0.92-16.63c-0.55,0.57-1.09,1.15-1.64,1.72c0.24-4.28,1.47-8.51,3.57-12.25
			c-0.6,0.04-1.2,0.08-1.81,0.13C18.8,16.38,23.55,13.87,27.32,14.89z"/>
	</g>
</g>
</svg>
