<?xml version="1.0" encoding="utf-8"?>
<!-- Generator: Adobe Illustrator 25.2.1, SVG Export Plug-In . SVG Version: 6.00 Build 0)  -->
<svg version="1.1" id="ëÎÓÈ_1" xmlns="http://www.w3.org/2000/svg" xmlns:xlink="http://www.w3.org/1999/xlink" x="0px" y="0px"
	 viewBox="0 0 123.79 119.62" style="enable-background:new 0 0 123.79 119.62;" xml:space="preserve">
<style type="text/css">
	.st0{fill:#D39775;}
	.st1{fill:#C68463;}
	.st2{fill:#FFC197;}
	.st3{fill:#FCA76D;}
	.st4{fill:#FF8599;}
	.st5{fill:#DD7B45;}
	.st6{clip-path:url(#SVGID_2_);}
	.st7{fill:#4E899B;}
	.st8{fill:#FFFFFF;}
	.st9{fill:#B28C79;}
	.st10{clip-path:url(#SVGID_4_);}
	.st11{fill:#FFA892;}
	.st12{fill:#E8A982;}
	.st13{fill:#FF7B6D;}
	.st14{fill:#04AEB7;}
	.st15{fill:#EA6835;}
	.st16{clip-path:url(#SVGID_6_);}
	.st17{clip-path:url(#SVGID_8_);}
	.st18{fill:#B68461;}
	.st19{fill:#915F3D;}
	.st20{fill:#F7F5ED;}
	.st21{fill:#E87870;}
	.st22{fill:#93322B;}
	.st23{fill:#725440;}
	.st24{clip-path:url(#SVGID_10_);}
	.st25{fill:#543927;}
	.st26{clip-path:url(#SVGID_12_);}
	.st27{fill:#2B211A;}
	.st28{fill:#492B14;}
	.st29{fill:#845535;}
	.st30{clip-path:url(#SVGID_14_);}
	.st31{fill:#186858;}
	.st32{clip-path:url(#SVGID_16_);}
	.st33{fill:#F95548;}
	.st34{fill:#C93F14;}
	.st35{fill:#77B232;}
	.st36{clip-path:url(#SVGID_18_);}
	.st37{fill:#407046;}
	.st38{clip-path:url(#SVGID_20_);}
	.st39{fill:#FF6666;}
	.st40{clip-path:url(#SVGID_22_);}
	.st41{fill:#5E361B;}
	.st42{clip-path:url(#SVGID_24_);}
	.st43{fill:#E2233A;}
	.st44{clip-path:url(#SVGID_26_);}
	.st45{fill:#82543D;}
	.st46{clip-path:url(#SVGID_28_);}
	.st47{fill:#E63236;}
	.st48{fill:#3D2C22;}
	.st49{clip-path:url(#SVGID_30_);}
	.st50{fill:#536784;}
	.st51{clip-path:url(#SVGID_32_);}
	.st52{fill:#52728A;}
	.st53{clip-path:url(#SVGID_34_);}
	.st54{clip-path:url(#SVGID_36_);}
	.st55{fill:#A30C0C;}
	.st56{clip-path:url(#SVGID_38_);}
	.st57{clip-path:url(#SVGID_40_);}
	.st58{fill:#75380E;}
	.st59{clip-path:url(#SVGID_42_);}
	.st60{clip-path:url(#SVGID_44_);}
	.st61{clip-path:url(#SVGID_46_);}
	.st62{clip-path:url(#SVGID_48_);}
	.st63{fill:#FC6054;}
	.st64{fill:#CC9A79;}
</style>
<g>
	<path class="st34" d="M67.61,102.95c-4.65,3.52-10.59,5.42-16.48,5.27c-5.9-0.14-11.72-2.32-16.17-6.06
		c-2.98,1.53-6.66,1.71-9.78,0.5c-3.12-1.22-5.64-3.81-6.69-6.91c-5.36,0.84-5.25-8.61-4.09-11.36c1.15-2.76,0.51-5.86,0.02-8.79
		c-0.49-2.93-0.73-6.2,1.05-8.63c1.51-2.07,4.25-3.15,5.51-5.38c1.59-2.8,0.29-6.21-0.42-9.32c-2.12-9.31,0.1-17.36,7.87-23.19
		c5.03-3.77,5.33-10.04,7.12-12.34C37,14.86,42.73,2.1,61.77,8.1c8.12-4.16,14.24-1.62,19.81,1.62c5.68,3.3,8.35,11.18,13.55,15.04
		c2.55,1.9,5.31,4.1,5.77,7.19c0.47,3.07-1.45,6.49,0.19,9.15c0.96,1.55,2.83,2.29,4.51,3.08c1.68,0.8,3.44,1.99,3.69,3.79
		c0.4,2.82-3.13,5.1-2.77,7.92c0.25,1.94,2.22,3.16,3.93,4.2c1.72,1.03,3.58,2.52,3.43,4.48c-0.22,2.81-4.42,4.18-4.49,7
		c-0.06,2.15,2.3,3.49,3.65,5.2c1.35,1.71,1.73,4.09,0.97,6.12c-0.76,2.02-2.63,3.63-4.79,4.11c-1.09,1.09-1.55,3.01-0.6,4.21
		c0.96,1.2,2.86,1.56,4.23,0.82c1.16,3.24-1.78,6.79-5.22,7.64c-3.44,0.84-7.04-0.26-10.33-1.55c-3.72,4.46-9.2,7.53-15.05,8.42
		C76.4,107.41,72.56,106.1,67.61,102.95z"/>
	<g>
		<path class="st2" d="M107.84,109.82c-1.57-4.97-3.14-9.08-4.68-11.83c-0.1-0.21-0.19-0.41-0.31-0.61
			c-0.25-0.42-0.55-0.83-0.87-1.22c-0.45-0.6-0.89-1.09-1.33-1.42c-0.02-0.01-0.04-0.02-0.05-0.04C93.39,88.16,77.3,86,77.3,82.02
			c0-4.48,0-19.12,0-19.12H49.17c0,0,0,14.65,0,19.12c0,3.97-16,6.13-23.23,12.63c-0.04,0.03-0.08,0.06-0.13,0.09
			c-0.51,0.39-1.03,0.97-1.55,1.72c-0.23,0.3-0.44,0.61-0.63,0.92c-0.07,0.13-0.13,0.26-0.2,0.39c-1.58,2.75-3.2,6.94-4.81,12.04
			H107.84z"/>
		<path class="st3" d="M77.3,77.01c0-6,0-14.12,0-14.12H49.17c0,0,0,12.34,0,17.83c0.7-2.06,5.39,0.43,11.6,1.65
			C67.1,83.62,74.26,81.62,77.3,77.01z"/>
		<path class="st35" d="M103.15,97.99c-0.1-0.21-0.19-0.41-0.31-0.61c-0.25-0.42-0.55-0.83-0.87-1.22c-0.45-0.6-0.89-1.09-1.33-1.42
			c-0.02-0.01-0.04-0.02-0.05-0.04c-5.22-4.74-15.09-7.18-20.14-9.68C76.31,89.9,70.13,93,63.23,93c-6.9,0-13.07-3.09-17.22-7.97
			c-5.04,2.49-14.85,4.92-20.07,9.62c-0.04,0.03-0.08,0.06-0.13,0.09c-0.51,0.39-1.03,0.97-1.55,1.72c-0.23,0.3-0.44,0.61-0.63,0.92
			c-0.07,0.13-0.13,0.26-0.2,0.39c-1.58,2.75-3.2,6.94-4.81,12.04h89.21C106.27,104.85,104.69,100.74,103.15,97.99z"/>
	</g>
	<g>
		<path class="st2" d="M63.56,6.62C48.6,6.77,36.53,15.56,36.53,35.77c0,8.92,0.24,24.01,3.69,29.61c3.46,5.6,8.09,7.98,11.91,10.21
			c3.71,2.17,7.01,3.65,11.42,3.73c4.42-0.09,7.71-1.56,11.42-3.73c3.82-2.23,8.45-4.61,11.91-10.21c3.46-5.6,3.69-20.69,3.69-29.61
			C90.59,15.56,78.52,6.77,63.56,6.62z"/>
		<g>
			<g>
				<path class="st2" d="M39.42,45.46c0,0-3.98-4.97-7.99-2.8c-6.83,3.69-0.98,19.13,7.44,16.22L39.42,45.46z"/>
				<path class="st3" d="M37.9,46.45c0,0-2.77-3.16-5.52-1.78c-4.67,2.35,1.06,13.44,5.25,10.31L37.9,46.45z"/>
			</g>
			<g>
				<path class="st2" d="M86.89,45.46c0,0,3.98-4.97,7.99-2.8c6.83,3.69,0.98,19.13-7.44,16.22L86.89,45.46z"/>
				<path class="st3" d="M88.41,46.45c0,0,2.77-3.16,5.52-1.78c4.67,2.35-1.06,13.44-5.25,10.31L88.41,46.45z"/>
			</g>
		</g>
		<path class="st5" d="M68.21,56.84c-0.08-0.34-0.26-0.62-0.42-0.81c-0.17-0.19-0.33-0.31-0.45-0.38c-0.12-0.07-0.2-0.09-0.22-0.06
			c-0.05,0.06,0.16,0.28,0.37,0.66c0.11,0.19,0.21,0.42,0.25,0.69c0.04,0.26,0.03,0.57-0.1,0.81c-0.13,0.24-0.37,0.37-0.54,0.33
			c-0.09-0.01-0.21-0.08-0.32-0.14c-0.11-0.07-0.23-0.14-0.36-0.2c-0.1-0.04-0.2-0.06-0.29-0.07c0.16-0.28,0.2-0.46,0.16-0.48
			c-0.07-0.04-0.29,0.27-0.73,0.66c-0.22,0.19-0.49,0.41-0.82,0.57c-0.33,0.17-0.72,0.29-1.14,0.3c-0.42,0-0.81-0.1-1.15-0.26
			c-0.34-0.16-0.62-0.36-0.85-0.54c-0.45-0.37-0.69-0.67-0.76-0.63c-0.03,0.02,0,0.17,0.13,0.39c-0.08,0.01-0.17,0.03-0.25,0.07
			c-0.13,0.05-0.24,0.13-0.36,0.2c-0.11,0.07-0.23,0.13-0.32,0.14c-0.18,0.04-0.42-0.09-0.54-0.33c-0.13-0.23-0.14-0.54-0.1-0.81
			c0.04-0.27,0.14-0.5,0.25-0.69c0.22-0.38,0.42-0.6,0.37-0.66c-0.02-0.03-0.1-0.01-0.22,0.06c-0.12,0.07-0.29,0.19-0.45,0.38
			c-0.17,0.19-0.34,0.46-0.42,0.81c-0.08,0.34-0.1,0.76,0.11,1.16c0.11,0.2,0.27,0.36,0.47,0.47c0.2,0.11,0.44,0.14,0.65,0.08
			c0.21-0.06,0.35-0.17,0.46-0.26c0.11-0.09,0.2-0.17,0.28-0.23c0.09-0.07,0.19-0.1,0.27-0.11c0.05,0.07,0.11,0.15,0.18,0.22
			c0.21,0.24,0.5,0.5,0.89,0.71c0.38,0.21,0.86,0.36,1.38,0.35c0.52-0.01,0.99-0.17,1.37-0.4c0.38-0.22,0.66-0.5,0.86-0.74
			c0.04-0.05,0.08-0.1,0.11-0.15c0.09,0.01,0.19,0.04,0.3,0.11c0.08,0.06,0.17,0.14,0.28,0.23c0.11,0.09,0.25,0.2,0.46,0.26
			c0.21,0.06,0.46,0.02,0.65-0.08c0.2-0.11,0.36-0.27,0.47-0.47C68.31,57.59,68.29,57.17,68.21,56.84z"/>
		<g>
			<g>
				<g>
					<defs>
						<path id="SVGID_17_" d="M70.28,48.23c0,0,1.42-2.33,6.33-2.78s6.47,1.33,6.47,1.33s-1.04,2.94-6.08,3.4
							C71.96,50.65,70.28,48.23,70.28,48.23z"/>
					</defs>
					<use xlink:href="#SVGID_17_"  style="overflow:visible;fill:#FFFFFF;"/>
					<clipPath id="SVGID_2_">
						<use xlink:href="#SVGID_17_"  style="overflow:visible;"/>
					</clipPath>
					<g class="st6">
						<path class="st37" d="M80.14,46.75c0.17,1.85-1.19,3.48-3.04,3.65c-1.85,0.17-3.48-1.19-3.65-3.04
							c-0.17-1.85,1.19-3.48,3.04-3.65C78.34,43.54,79.97,44.91,80.14,46.75z"/>
						<path d="M78.67,46.89c0.09,1.04-0.67,1.95-1.7,2.05c-1.04,0.09-1.95-0.67-2.05-1.7c-0.09-1.04,0.67-1.95,1.7-2.05
							C77.66,45.09,78.58,45.85,78.67,46.89z"/>
						<path class="st8" d="M77.91,46.13c0.02,0.21-0.13,0.39-0.34,0.41c-0.21,0.02-0.39-0.13-0.41-0.34
							c-0.02-0.21,0.13-0.39,0.34-0.41C77.71,45.77,77.89,45.92,77.91,46.13z"/>
					</g>
				</g>
				<path class="st9" d="M70.28,48.23c0,0,0.42-3.38,6.23-3.92c5.81-0.53,6.57,2.47,6.57,2.47C78.92,44.52,73.63,45.35,70.28,48.23z
					"/>
			</g>
			<g>
				<g>
					<defs>
						<path id="SVGID_19_" d="M56.84,48.23c0,0-1.42-2.33-6.33-2.78s-6.47,1.33-6.47,1.33s1.04,2.94,6.08,3.4
							C55.16,50.65,56.84,48.23,56.84,48.23z"/>
					</defs>
					<use xlink:href="#SVGID_19_"  style="overflow:visible;fill:#FFFFFF;"/>
					<clipPath id="SVGID_4_">
						<use xlink:href="#SVGID_19_"  style="overflow:visible;"/>
					</clipPath>
					<g class="st10">
						<path class="st37" d="M46.98,46.75c-0.17,1.85,1.19,3.48,3.04,3.65c1.85,0.17,3.48-1.19,3.65-3.04
							c0.17-1.85-1.19-3.48-3.04-3.65C48.78,43.54,47.15,44.91,46.98,46.75z"/>
						<path d="M48.45,46.89c-0.09,1.04,0.67,1.95,1.7,2.05c1.04,0.09,1.95-0.67,2.05-1.7c0.09-1.04-0.67-1.95-1.7-2.05
							S48.54,45.85,48.45,46.89z"/>
						<path class="st8" d="M51.03,46.35c-0.02,0.21,0.13,0.39,0.34,0.41c0.21,0.02,0.39-0.13,0.41-0.34
							c0.02-0.21-0.13-0.39-0.34-0.41C51.24,45.99,51.05,46.14,51.03,46.35z"/>
					</g>
				</g>
				<path class="st9" d="M56.84,48.23c0,0-0.42-3.38-6.23-3.92c-5.81-0.53-6.57,2.47-6.57,2.47C48.2,44.52,53.5,45.35,56.84,48.23z"
					/>
			</g>
		</g>
		<g>
			<path class="st11" d="M51.92,56.32c0,1.62-2.53,2.93-5.65,2.93c-3.12,0-5.65-1.31-5.65-2.93c0-1.62,2.53-2.93,5.65-2.93
				C49.39,53.39,51.92,54.7,51.92,56.32z"/>
			<path class="st11" d="M86.5,56.32c0,1.62-2.53,2.93-5.65,2.93c-3.12,0-5.65-1.31-5.65-2.93c0-1.62,2.53-2.93,5.65-2.93
				C83.97,53.39,86.5,54.7,86.5,56.32z"/>
		</g>
		<g>
			<path class="st34" d="M83.87,43.05c-0.07,0.06-0.24-0.04-0.51-0.19c-0.27-0.15-0.64-0.36-1.11-0.53
				c-0.47-0.18-1.04-0.32-1.66-0.39c-0.62-0.07-1.3-0.06-2-0.01c-0.7,0.05-1.42,0.15-2.13,0.24c-0.7,0.08-1.37,0.16-1.96,0.23
				c-1.17,0.13-2.02,0.22-2.2,0.23c-0.72,0.04-1.33-0.48-1.37-1.17c-0.04-0.69,0.5-1.28,1.22-1.32c0.18-0.01,1.03-0.03,2.21-0.04
				c0.59,0,1.26,0,1.97,0c0.71,0,1.48,0,2.26,0.06c0.78,0.06,1.57,0.18,2.29,0.41c0.72,0.22,1.35,0.55,1.83,0.9
				c0.48,0.35,0.81,0.73,0.99,1.03C83.89,42.8,83.93,43,83.87,43.05z"/>
			<path class="st34" d="M43.26,43.05c0.07,0.06,0.24-0.04,0.51-0.19c0.27-0.15,0.64-0.36,1.11-0.53c0.47-0.18,1.04-0.32,1.66-0.39
				c0.62-0.07,1.3-0.06,2-0.01c0.7,0.05,1.42,0.15,2.13,0.24c0.7,0.08,1.37,0.16,1.96,0.23c1.17,0.13,2.02,0.22,2.2,0.23
				c0.72,0.04,1.33-0.48,1.37-1.17c0.04-0.69-0.5-1.28-1.22-1.32c-0.18-0.01-1.03-0.03-2.21-0.04c-0.59,0-1.26,0-1.97,0
				c-0.71,0-1.48,0-2.26,0.06c-0.78,0.06-1.57,0.18-2.29,0.41c-0.72,0.22-1.35,0.55-1.83,0.9c-0.48,0.35-0.81,0.73-0.99,1.03
				C43.23,42.8,43.19,43,43.26,43.05z"/>
		</g>
		<g>
			<path class="st13" d="M68.27,62.81c-1.29,0.09-3.59,0.49-4.53,0.65c-0.94-0.16-3.24-0.56-4.53-0.65
				c-2.94-0.16-5.54-0.34-8.42-1.34c1.36,1.36,5.91,9.04,12.64,9.12c0.11,0,0.51,0,0.62,0c6.73-0.08,11.29-7.76,12.64-9.12
				C73.82,62.47,71.22,62.65,68.27,62.81z"/>
			<path class="st8" d="M63.74,64.86c-5.84,0-10.33-2.02-10.33-2.02c1.08,0.6,4.72,4,10.09,4.03c0.08,0,0.41,0,0.49,0
				c5.37-0.04,9-3.43,10.09-4.03C74.08,62.84,69.58,64.86,63.74,64.86z"/>
		</g>
		<g>
			<path class="st15" d="M123.19,98.82c-0.7,1.44-2.42,2.3-3.99,2.01c-1.57-0.29-2.87-1.72-3-3.31c-0.27-3.12,3.28-5.35,3.76-8.44
				c0.73-4.68-5.65-7.97-5.52-12.7c0.1-3.49,3.78-6.32,3.29-9.78c-0.51-3.55-5.06-5.22-6.1-8.66c-1.13-3.74,2.38-7.79,1.06-11.46
				c-1.39-3.87-7.07-4.5-8.95-8.16c-1.85-3.6,0.89-8.18-0.56-11.95c-1.56-4.05-6.81-4.94-10.21-7.64c-3.79-3.01-5.09-8.14-8-12
				c-2.69-3.57-6.85-6-11.29-6.59c-3.88-0.52-8.29,0.51-11.7,2.61c-3.61-1.18-10.16-2.8-14.55-0.77
				c-4.85,2.24-17.15,10.63-19.25,15.54c-1.49,3.5-1.1,7.57-2.56,11.08c-1.31,3.14-3.95,5.48-6.28,7.96s-4.51,5.48-4.48,8.88
				c0.02,2.79,1.52,5.31,2.57,7.89c1.05,2.58,1.61,5.75-0.05,7.98c-1.41,1.91-3.95,2.5-6.03,3.66c-4.41,2.45-6.8,8.06-5.51,12.95
				c0.47,1.79,1.37,3.43,2.06,5.15c0.7,1.71,1.2,3.59,0.83,5.41c-0.37,1.81-1.82,3.51-3.66,3.65c-1.67,0.12-3.13-3.06-3.13-3.06
				s-3.42,5.48-1.19,12.84c1.29,4.27,7.28,7.29,11.23,5.21c-0.34,3.49,1.48,7.11,4.49,8.92c3.01,1.81,7.06,1.71,9.98-0.25
				c1.95,3.03,5.99,4.54,9.45,3.52c3.46-1.02,6.04-4.47,6.04-8.07c0-2.95-1.54-5.7-1.87-8.64c-0.51-4.55,1.89-8.86,3.98-12.94
				c2.08-4.08,3.95-8.83,2.37-13.13c-1.41-3.84-5.15-6.2-8.13-9.01c-2.98-2.8-5.42-7.28-3.39-10.84c2.21-3.88,6.45-4.54,8.45-8.53
				c1.86-3.7,1.93-8.95,2.97-12.96c3.86-14.87,14.87-18.66,17.63-19.39c3.4,0.34,6.7,1.38,8.28,4.25c1.22,2.21,0.96,4.95,1.84,7.31
				c1.15,3.08,4.03,5.1,6.58,7.17c2.55,2.07,5.09,4.77,5.07,8.06c-0.03,4.36-4.58,7.87-4.15,12.21c0.5,5.07,7.25,7.31,8.76,12.18
				c1.92,6.18-5.57,12.03-4.55,18.43c0.51,3.25,3.19,5.96,3.23,9.24c0.06,4.25-4.18,7.29-5.48,11.34c-1.28,3.99,0.87,8.78,4.7,10.47
				c3.83,1.7,8.82,0.08,10.92-3.55c1.53,2.26,4.41,3.53,7.11,3.14c2.7-0.39,5.11-2.41,5.95-5.01c3.27,0.88,6.99-0.22,9.25-2.74
				C123.73,105.79,124.42,101.97,123.19,98.82z"/>
		</g>
	</g>
</g>
</svg>
