<?xml version="1.0" encoding="utf-8"?>
<!-- Generator: Adobe Illustrator 25.2.1, SVG Export Plug-In . SVG Version: 6.00 Build 0)  -->
<svg version="1.1" id="ëÎÓÈ_1" xmlns="http://www.w3.org/2000/svg" xmlns:xlink="http://www.w3.org/1999/xlink" x="0px" y="0px"
	 viewBox="0 0 93.29 129.32" style="enable-background:new 0 0 93.29 129.32;" xml:space="preserve">
<style type="text/css">
	.st0{fill:#D39775;}
	.st1{fill:#C68463;}
	.st2{fill:#FFC197;}
	.st3{fill:#FCA76D;}
	.st4{fill:#FF8599;}
	.st5{fill:#DD7B45;}
	.st6{clip-path:url(#SVGID_2_);}
	.st7{fill:#4E899B;}
	.st8{fill:#FFFFFF;}
	.st9{fill:#B28C79;}
	.st10{clip-path:url(#SVGID_4_);}
	.st11{fill:#FFA892;}
	.st12{fill:#E8A982;}
	.st13{fill:#FF7B6D;}
	.st14{fill:#04AEB7;}
	.st15{fill:#EA6835;}
	.st16{clip-path:url(#SVGID_6_);}
	.st17{clip-path:url(#SVGID_8_);}
	.st18{fill:#B68461;}
	.st19{fill:#915F3D;}
	.st20{fill:#F7F5ED;}
	.st21{fill:#E87870;}
	.st22{fill:#93322B;}
	.st23{fill:#725440;}
	.st24{clip-path:url(#SVGID_10_);}
	.st25{fill:#543927;}
	.st26{clip-path:url(#SVGID_12_);}
	.st27{fill:#2B211A;}
	.st28{fill:#492B14;}
	.st29{fill:#845535;}
	.st30{clip-path:url(#SVGID_14_);}
	.st31{fill:#186858;}
	.st32{clip-path:url(#SVGID_16_);}
	.st33{fill:#F95548;}
	.st34{fill:#C93F14;}
	.st35{fill:#77B232;}
	.st36{clip-path:url(#SVGID_18_);}
	.st37{fill:#407046;}
	.st38{clip-path:url(#SVGID_20_);}
	.st39{fill:#FF6666;}
	.st40{clip-path:url(#SVGID_22_);}
	.st41{fill:#5E361B;}
	.st42{clip-path:url(#SVGID_24_);}
	.st43{fill:#E2233A;}
	.st44{clip-path:url(#SVGID_26_);}
	.st45{fill:#82543D;}
	.st46{clip-path:url(#SVGID_28_);}
	.st47{fill:#E63236;}
	.st48{fill:#3D2C22;}
	.st49{clip-path:url(#SVGID_30_);}
	.st50{fill:#536784;}
	.st51{clip-path:url(#SVGID_32_);}
	.st52{fill:#52728A;}
	.st53{clip-path:url(#SVGID_34_);}
	.st54{clip-path:url(#SVGID_36_);}
	.st55{fill:#A30C0C;}
	.st56{clip-path:url(#SVGID_38_);}
	.st57{clip-path:url(#SVGID_40_);}
	.st58{fill:#75380E;}
	.st59{clip-path:url(#SVGID_42_);}
	.st60{clip-path:url(#SVGID_44_);}
	.st61{clip-path:url(#SVGID_46_);}
	.st62{clip-path:url(#SVGID_48_);}
	.st63{fill:#FC6054;}
	.st64{fill:#CC9A79;}
</style>
<g>
	<g>
		<path class="st2" d="M89.21,110.55c-1.57-4.97-3.14-9.08-4.68-11.83c-0.1-0.21-0.19-0.41-0.31-0.61
			c-0.25-0.42-0.55-0.83-0.87-1.22c-0.45-0.6-0.89-1.09-1.33-1.42c-0.02-0.01-0.04-0.02-0.05-0.04c-7.2-6.54-23.29-8.71-23.29-12.68
			c0-4.48,0-19.13,0-19.13H30.55c0,0,0,14.65,0,19.13c0,3.97-16,6.13-23.23,12.63c-0.04,0.03-0.08,0.06-0.13,0.09
			c-0.51,0.39-1.03,0.97-1.55,1.72c-0.23,0.3-0.44,0.61-0.63,0.92c-0.07,0.13-0.13,0.26-0.2,0.39c-1.58,2.75-3.2,6.94-4.81,12.04
			H89.21z"/>
		<path class="st3" d="M58.68,77.74c0-6,0-14.12,0-14.12H30.55c0,0,0,12.34,0,17.83c0.7-2.06,5.39,0.43,11.6,1.65
			C48.48,84.35,55.63,82.35,58.68,77.74z"/>
		<path d="M84.53,98.72c-0.1-0.21-0.19-0.41-0.31-0.61c-0.25-0.42-0.55-0.83-0.87-1.22c-0.45-0.6-0.89-1.09-1.33-1.42
			c-0.02-0.01-0.04-0.02-0.05-0.04c-5.22-4.74-15.09-7.18-20.14-9.68c-4.15,4.88-10.32,7.97-17.22,7.97
			c-6.9,0-13.07-3.09-17.22-7.97c-5.04,2.49-14.85,4.92-20.07,9.62c-0.04,0.03-0.08,0.06-0.13,0.09c-0.51,0.39-1.03,0.97-1.55,1.72
			c-0.23,0.3-0.44,0.61-0.63,0.92c-0.07,0.13-0.13,0.26-0.2,0.39c-1.58,2.75-3.2,6.94-4.81,12.04h89.21
			C87.65,105.58,86.07,101.47,84.53,98.72z"/>
	</g>
	<g>
		<path class="st18" d="M43.91,76.27c0,0-42.48-10.58-37.11-31.35c0.7-2.72,0.44-5.33-0.1-8.03c-1.64-8.06,0.22-18.43,7.6-23.02
			c2.22-1.39,4.77-2.46,6.45-4.39c1.36-1.56,3.31-3.13,4.93-4.43c6.78-5.46,13.15-2.6,15.03-0.74c2.16-3.65,7.27-4.92,11.69-4.05
			c3.31,0.64,6.06,2.69,8.67,4.66c4.58,3.46,9.15,6.93,13.73,10.39c2.25,1.7,4.67,3.68,5,6.34c0.33,2.65-2.26,6.22-0.1,7.88
			c6.33,4.86,1.77,12.71,2.43,15.07C88.57,67.67,43.91,76.27,43.91,76.27z"/>
		<path class="st18" d="M84.64,101.78c2-2.66,3.97-5.42,4.53-8.43c1.32-7.04-5.24-13.32-11.76-18.37
			c-3.54-2.74-7.24-5.49-10.09-8.68c-1.82,0.44-3.64,0.89-5.47,1.31c2.49,7.41,4.73,14.73,3.1,22.71
			c-1.33,6.47-4.97,12.63-6.04,19.13c-1.07,6.49,1.28,13.97,8.86,17.1c-0.02-1.11-0.04-2.23-0.06-3.34
			c2.29,4.38,9.26,7.02,15.42,5.82c6.16-1.19,10.73-6.06,10.1-10.76c-2.46,2.44-7.84,2.33-10.74,0.26c-2.9-2.07-3.57-5.44-2.76-8.41
			C80.56,107.14,82.64,104.44,84.64,101.78z"/>
		<g>
			<g>
				<path class="st2" d="M20.87,46.22c0,0-3.98-4.97-7.99-2.8c-6.83,3.69-0.98,19.13,7.44,16.22L20.87,46.22z"/>
				<path class="st3" d="M19.35,47.22c0,0-2.77-3.16-5.52-1.78c-4.67,2.35,1.06,13.44,5.25,10.31L19.35,47.22z"/>
			</g>
			<g>
				<path class="st2" d="M68.35,46.22c0,0,3.98-4.97,7.99-2.8c6.83,3.69,0.98,19.13-7.44,16.22L68.35,46.22z"/>
				<path class="st3" d="M69.87,47.22c0,0,2.77-3.16,5.52-1.78c4.67,2.35-1.06,13.44-5.25,10.31L69.87,47.22z"/>
			</g>
		</g>
		<path class="st2" d="M45.01,7.39c-14.96,0.15-27.03,8.94-27.03,29.15c0,8.92,0.24,24.01,3.69,29.61
			c3.46,5.6,8.09,7.98,11.91,10.21c3.71,2.17,7.01,3.65,11.42,3.73c4.42-0.09,7.71-1.56,11.42-3.73c3.82-2.23,8.45-4.61,11.91-10.21
			c3.46-5.6,3.69-20.69,3.69-29.61C72.04,16.33,59.97,7.54,45.01,7.39z"/>
		<path class="st5" d="M49.66,57.6c-0.08-0.34-0.26-0.62-0.42-0.81c-0.17-0.19-0.33-0.31-0.45-0.38c-0.12-0.07-0.2-0.09-0.22-0.06
			c-0.05,0.06,0.16,0.28,0.37,0.66c0.11,0.19,0.21,0.42,0.25,0.69c0.04,0.26,0.03,0.57-0.1,0.81c-0.13,0.24-0.37,0.37-0.54,0.33
			c-0.09-0.01-0.21-0.08-0.32-0.14c-0.11-0.07-0.23-0.14-0.36-0.2c-0.1-0.04-0.2-0.06-0.29-0.07c0.16-0.28,0.2-0.46,0.16-0.48
			c-0.07-0.04-0.29,0.27-0.73,0.66c-0.22,0.19-0.49,0.41-0.82,0.57c-0.33,0.17-0.72,0.29-1.14,0.3c-0.42,0-0.81-0.1-1.15-0.26
			c-0.34-0.16-0.62-0.36-0.85-0.54c-0.45-0.37-0.69-0.67-0.76-0.63c-0.03,0.02,0,0.17,0.13,0.39c-0.08,0.01-0.17,0.03-0.25,0.07
			c-0.13,0.05-0.24,0.13-0.36,0.2c-0.11,0.07-0.23,0.13-0.32,0.14c-0.18,0.04-0.42-0.09-0.54-0.33c-0.13-0.23-0.14-0.54-0.1-0.81
			c0.04-0.27,0.14-0.5,0.25-0.69c0.22-0.38,0.42-0.6,0.37-0.66c-0.02-0.03-0.1-0.01-0.22,0.06c-0.12,0.07-0.29,0.19-0.45,0.38
			c-0.17,0.19-0.34,0.46-0.42,0.81c-0.08,0.34-0.1,0.76,0.11,1.16c0.11,0.2,0.27,0.36,0.47,0.47c0.2,0.11,0.44,0.14,0.65,0.08
			c0.21-0.06,0.35-0.17,0.46-0.26c0.11-0.09,0.2-0.17,0.28-0.23c0.09-0.07,0.19-0.1,0.27-0.11c0.05,0.07,0.11,0.15,0.18,0.22
			c0.21,0.24,0.5,0.5,0.89,0.71c0.38,0.21,0.86,0.36,1.38,0.35c0.52-0.01,0.99-0.17,1.37-0.4c0.38-0.22,0.66-0.5,0.86-0.74
			c0.04-0.05,0.08-0.1,0.11-0.15c0.09,0.01,0.19,0.04,0.3,0.11c0.08,0.06,0.17,0.14,0.28,0.23c0.11,0.09,0.25,0.2,0.46,0.26
			c0.21,0.06,0.46,0.02,0.65-0.08c0.2-0.11,0.36-0.27,0.47-0.47C49.76,58.36,49.74,57.94,49.66,57.6z"/>
		<g>
			<path class="st18" d="M65.32,42.86c-0.07,0.06-0.24-0.04-0.51-0.19c-0.27-0.15-0.64-0.36-1.11-0.53
				c-0.47-0.18-1.04-0.32-1.66-0.39c-0.62-0.07-1.3-0.06-2-0.01c-0.7,0.05-1.42,0.15-2.13,0.24c-0.7,0.08-1.37,0.16-1.96,0.23
				c-1.17,0.13-2.02,0.22-2.2,0.23c-0.72,0.04-1.33-0.48-1.37-1.17c-0.04-0.69,0.5-1.28,1.22-1.32c0.18-0.01,1.03-0.03,2.21-0.04
				c0.59,0,1.26,0,1.97,0c0.71,0,1.48,0,2.26,0.06c0.78,0.06,1.57,0.18,2.29,0.41c0.72,0.22,1.35,0.55,1.83,0.9
				c0.48,0.35,0.81,0.73,0.99,1.03C65.34,42.61,65.38,42.81,65.32,42.86z"/>
			<path class="st18" d="M24.71,42.86c0.07,0.06,0.24-0.04,0.51-0.19c0.27-0.15,0.64-0.36,1.11-0.53c0.47-0.18,1.04-0.32,1.66-0.39
				c0.62-0.07,1.3-0.06,2-0.01c0.7,0.05,1.42,0.15,2.13,0.24c0.7,0.08,1.37,0.16,1.96,0.23c1.17,0.13,2.02,0.22,2.2,0.23
				c0.72,0.04,1.33-0.48,1.37-1.17c0.04-0.69-0.5-1.28-1.22-1.32c-0.18-0.01-1.03-0.03-2.21-0.04c-0.59,0-1.26,0-1.97,0
				c-0.71,0-1.48,0-2.26,0.06c-0.78,0.06-1.57,0.18-2.29,0.41c-0.72,0.22-1.35,0.55-1.83,0.9c-0.48,0.35-0.81,0.73-0.99,1.03
				C24.68,42.61,24.64,42.81,24.71,42.86z"/>
		</g>
		<g>
			<g>
				<g>
					<defs>
						<path id="SVGID_45_" d="M51.73,49c0,0,1.42-2.33,6.33-2.78c4.91-0.45,6.47,1.33,6.47,1.33s-1.04,2.94-6.08,3.4
							C53.41,51.42,51.73,49,51.73,49z"/>
					</defs>
					<use xlink:href="#SVGID_45_"  style="overflow:visible;fill:#FFFFFF;"/>
					<clipPath id="SVGID_2_">
						<use xlink:href="#SVGID_45_"  style="overflow:visible;"/>
					</clipPath>
					<g class="st6">
						<path class="st45" d="M61.59,47.52c0.17,1.85-1.19,3.48-3.04,3.65c-1.85,0.17-3.48-1.19-3.65-3.04
							c-0.17-1.85,1.19-3.48,3.04-3.65C59.79,44.31,61.42,45.67,61.59,47.52z"/>
						<path d="M60.12,47.65c0.09,1.04-0.67,1.95-1.7,2.05c-1.04,0.09-1.95-0.67-2.05-1.7c-0.09-1.04,0.67-1.95,1.7-2.05
							C59.11,45.86,60.03,46.62,60.12,47.65z"/>
						<path class="st8" d="M59.36,46.9c0.02,0.21-0.13,0.39-0.34,0.41c-0.21,0.02-0.39-0.13-0.41-0.34
							c-0.02-0.21,0.13-0.39,0.34-0.41C59.16,46.53,59.34,46.69,59.36,46.9z"/>
					</g>
				</g>
				<path class="st9" d="M51.73,49c0,0,0.42-3.38,6.23-3.92c5.81-0.53,6.57,2.47,6.57,2.47C60.37,45.28,55.08,46.12,51.73,49z"/>
			</g>
			<g>
				<g>
					<defs>
						<path id="SVGID_47_" d="M38.29,49c0,0-1.42-2.33-6.33-2.78c-4.91-0.45-6.47,1.33-6.47,1.33s1.04,2.94,6.08,3.4
							C36.61,51.42,38.29,49,38.29,49z"/>
					</defs>
					<use xlink:href="#SVGID_47_"  style="overflow:visible;fill:#FFFFFF;"/>
					<clipPath id="SVGID_4_">
						<use xlink:href="#SVGID_47_"  style="overflow:visible;"/>
					</clipPath>
					<g class="st10">
						<path class="st45" d="M28.43,47.52c-0.17,1.85,1.19,3.48,3.04,3.65c1.85,0.17,3.48-1.19,3.65-3.04
							c0.17-1.85-1.19-3.48-3.04-3.65C30.23,44.31,28.6,45.67,28.43,47.52z"/>
						<path d="M29.9,47.65c-0.09,1.04,0.67,1.95,1.7,2.05s1.95-0.67,2.05-1.7c0.09-1.04-0.67-1.95-1.7-2.05
							C30.91,45.86,30,46.62,29.9,47.65z"/>
						<path class="st8" d="M32.48,47.11c-0.02,0.21,0.13,0.39,0.34,0.41c0.21,0.02,0.39-0.13,0.41-0.34
							c0.02-0.21-0.13-0.39-0.34-0.41C32.69,46.75,32.5,46.91,32.48,47.11z"/>
					</g>
				</g>
				<path class="st9" d="M38.29,49c0,0-0.42-3.38-6.23-3.92c-5.81-0.53-6.57,2.47-6.57,2.47C29.65,45.28,34.95,46.12,38.29,49z"/>
			</g>
		</g>
		<g>
			<path class="st11" d="M33.37,57.08c0,1.62-2.53,2.93-5.65,2.93c-3.12,0-5.65-1.31-5.65-2.93c0-1.62,2.53-2.93,5.65-2.93
				C30.85,54.16,33.37,55.47,33.37,57.08z"/>
			<path class="st11" d="M67.95,57.08c0,1.62-2.53,2.93-5.65,2.93c-3.12,0-5.65-1.31-5.65-2.93c0-1.62,2.53-2.93,5.65-2.93
				C65.42,54.16,67.95,55.47,67.95,57.08z"/>
		</g>
		<g>
			<path class="st63" d="M57.45,63.99c-3.56,0.95-8.43-0.21-12.27-0.21c-3.84,0-8.9,1.08-12.27,0.21c3.29,2.86,5.94,7.87,12.27,7.9
				C51.51,71.92,53.74,67.65,57.45,63.99z"/>
			<path class="st8" d="M54.42,65.11c-2.68,0.71-6.36,0.22-9.25,0.22c-2.89,0-6.71,0.43-9.25-0.22c0,0,4.47,2.81,9.25,2.83
				C49.95,67.96,54.42,65.11,54.42,65.11z"/>
		</g>
		<path class="st18" d="M12.72,42.54C14.25,26.01,21.57,0.56,41.11,6.9C61.59-5.71,73.79,22.54,75.98,25.66
			c5.5,7.81,4.99,14.96,4.3,21.07c-0.71,6.27,0.88,8.89,4.34,7.23c-4.31,4.94-13.08,6.65-14.66-8.22
			c-1.33-12.51-28.17-12.16-39.43-27.99c-4,1.93-6.62,5.48-6.98,9.18c-1.04,10.89-4.31,13.62-6.42,16.4
			C15.84,42.52,14.33,42.14,12.72,42.54z"/>
		<g>
			<path class="st64" d="M85.24,54c-0.57,1.68-2.12,5.52-7.71,5.22c-1-0.19-2.02-0.54-2.96-1.07c-1.91-1.04-3.58-2.71-4.78-4.74
				c-1.2-2-1.95-4.24-2.58-6.4c-0.63-2.16-1.2-4.26-2.1-6.04c-0.45-0.89-0.96-1.66-1.63-2.4c-0.66-0.74-1.45-1.42-2.34-2.05
				c-1.79-1.26-3.91-2.22-6.07-2.98c-2.16-0.76-4.45-1.35-6.68-1.96c-2.23-0.61-4.43-1.25-6.47-2.04c-2.03-0.77-3.93-1.73-5.5-2.8
				c-3.16-2.13-5.08-4.7-5.81-6.65c-0.76-1.96-0.53-3.15-0.15-3.24c0.45-0.12,1.05,0.78,2.28,2.05c1.2,1.27,3.15,2.87,6.01,4.19
				c2.82,1.35,6.55,2.2,11.07,3.1c2.26,0.47,4.7,0.96,7.3,1.77c2.58,0.82,5.27,1.95,7.79,3.7c1.25,0.88,2.43,1.9,3.43,3.07
				c1.01,1.16,1.84,2.49,2.43,3.79c1.19,2.61,1.65,5.06,2.12,7.17c0.45,2.12,0.91,3.94,1.59,5.44c0.65,1.47,1.57,2.65,2.58,3.46
				C81.51,59.23,86.08,51.52,85.24,54z"/>
		</g>
	</g>
</g>
</svg>
