<?xml version="1.0" encoding="utf-8"?>
<!-- Generator: Adobe Illustrator 25.2.1, SVG Export Plug-In . SVG Version: 6.00 Build 0)  -->
<svg version="1.1" id="ëÎÓÈ_1" xmlns="http://www.w3.org/2000/svg" xmlns:xlink="http://www.w3.org/1999/xlink" x="0px" y="0px"
	 viewBox="0 0 111.85 109.16" style="enable-background:new 0 0 111.85 109.16;" xml:space="preserve">
<style type="text/css">
	.st0{fill:#D39775;}
	.st1{fill:#C68463;}
	.st2{fill:#FFC197;}
	.st3{fill:#FCA76D;}
	.st4{fill:#FF8599;}
	.st5{fill:#DD7B45;}
	.st6{clip-path:url(#SVGID_2_);}
	.st7{fill:#4E899B;}
	.st8{fill:#FFFFFF;}
	.st9{fill:#B28C79;}
	.st10{clip-path:url(#SVGID_4_);}
	.st11{fill:#FFA892;}
	.st12{fill:#E8A982;}
	.st13{fill:#FF7B6D;}
	.st14{fill:#04AEB7;}
	.st15{fill:#EA6835;}
	.st16{clip-path:url(#SVGID_6_);}
	.st17{clip-path:url(#SVGID_8_);}
	.st18{fill:#B68461;}
	.st19{fill:#915F3D;}
	.st20{fill:#F7F5ED;}
	.st21{fill:#E87870;}
	.st22{fill:#93322B;}
	.st23{fill:#725440;}
	.st24{clip-path:url(#SVGID_10_);}
	.st25{fill:#543927;}
	.st26{clip-path:url(#SVGID_12_);}
	.st27{fill:#2B211A;}
	.st28{fill:#492B14;}
	.st29{fill:#845535;}
	.st30{clip-path:url(#SVGID_14_);}
	.st31{fill:#186858;}
	.st32{clip-path:url(#SVGID_16_);}
	.st33{fill:#F95548;}
	.st34{fill:#C93F14;}
	.st35{fill:#77B232;}
	.st36{clip-path:url(#SVGID_18_);}
	.st37{fill:#407046;}
	.st38{clip-path:url(#SVGID_20_);}
	.st39{fill:#FF6666;}
	.st40{clip-path:url(#SVGID_22_);}
	.st41{fill:#5E361B;}
	.st42{clip-path:url(#SVGID_24_);}
	.st43{fill:#E2233A;}
	.st44{clip-path:url(#SVGID_26_);}
	.st45{fill:#82543D;}
	.st46{clip-path:url(#SVGID_28_);}
	.st47{fill:#E63236;}
	.st48{fill:#3D2C22;}
	.st49{clip-path:url(#SVGID_30_);}
	.st50{fill:#536784;}
	.st51{clip-path:url(#SVGID_32_);}
	.st52{fill:#52728A;}
	.st53{clip-path:url(#SVGID_34_);}
	.st54{clip-path:url(#SVGID_36_);}
	.st55{fill:#A30C0C;}
	.st56{clip-path:url(#SVGID_38_);}
	.st57{clip-path:url(#SVGID_40_);}
	.st58{fill:#75380E;}
	.st59{clip-path:url(#SVGID_42_);}
	.st60{clip-path:url(#SVGID_44_);}
	.st61{clip-path:url(#SVGID_46_);}
	.st62{clip-path:url(#SVGID_48_);}
	.st63{fill:#FC6054;}
	.st64{fill:#CC9A79;}
</style>
<g>
	<g>
		<path class="st2" d="M100.52,109.16c-1.57-4.97-3.14-9.08-4.68-11.83c-0.1-0.21-0.19-0.41-0.31-0.61
			c-0.25-0.42-0.55-0.83-0.87-1.22c-0.45-0.6-0.89-1.09-1.33-1.42c-0.02-0.01-0.04-0.02-0.05-0.04c-7.2-6.54-23.29-8.71-23.29-12.68
			c0-4.48,0-19.12,0-19.12H41.86c0,0,0,14.65,0,19.12c0,3.97-16,6.13-23.23,12.63c-0.04,0.03-0.08,0.06-0.13,0.09
			c-0.51,0.39-1.03,0.97-1.55,1.72c-0.23,0.3-0.44,0.61-0.63,0.92c-0.07,0.13-0.13,0.26-0.2,0.39c-1.58,2.75-3.2,6.94-4.81,12.04
			H100.52z"/>
		<path class="st3" d="M69.99,76.35c0-6,0-14.12,0-14.12H41.86c0,0,0,12.34,0,17.83c0.7-2.06,5.39,0.43,11.6,1.65
			C59.78,82.96,66.94,80.96,69.99,76.35z"/>
		<path class="st20" d="M95.84,97.33c-0.1-0.21-0.19-0.41-0.31-0.61c-0.25-0.42-0.55-0.83-0.87-1.22c-0.45-0.6-0.89-1.09-1.33-1.42
			c-0.02-0.01-0.04-0.02-0.05-0.04c-5.22-4.74-15.09-7.18-20.14-9.68c-4.15,4.88-10.32,7.97-17.22,7.97
			c-6.9,0-13.07-3.09-17.22-7.97c-5.04,2.49-14.85,4.92-20.07,9.62c-0.04,0.03-0.08,0.06-0.13,0.09c-0.51,0.39-1.03,0.97-1.55,1.72
			c-0.23,0.3-0.44,0.61-0.63,0.92c-0.07,0.13-0.13,0.26-0.2,0.39c-1.58,2.75-3.2,6.94-4.81,12.04h89.21
			C98.96,104.19,97.38,100.08,95.84,97.33z"/>
	</g>
	<g>
		<g>
			<path class="st29" d="M101.59,68.15c1.21-2.55,2.39-5.19,2.36-7.79c-0.09-6.09-6.61-10.21-12.9-13.32
				c-3.41-1.69-6.96-3.35-9.87-5.53c-1.44,0.68-2.89,1.35-4.33,2.01c3.33,5.75,6.43,11.47,6.41,18.4
				c-0.01,5.62-2.01,11.36-1.8,16.95c0.21,5.59,3.42,11.43,10.27,12.75c-0.2-0.92-0.41-1.85-0.61-2.77
				c2.65,3.27,8.9,4.28,13.83,2.25c4.93-2.03,7.91-6.86,6.6-10.67c-1.64,2.45-6.14,3.26-8.9,2.03c-2.76-1.23-3.89-3.93-3.72-6.54
				C99.09,73.31,100.37,70.71,101.59,68.15z"/>
			<path class="st29" d="M10.26,68.15c-1.21-2.55-2.39-5.19-2.36-7.79c0.09-6.09,6.61-10.21,12.9-13.32
				c3.41-1.69,6.96-3.35,9.87-5.53c1.44,0.68,2.89,1.35,4.33,2.01c-3.33,5.75-6.43,11.47-6.41,18.4c0.01,5.62,2.01,11.36,1.8,16.95
				c-0.21,5.59-3.42,11.43-10.27,12.75c0.2-0.92,0.41-1.85,0.61-2.77c-2.65,3.27-8.9,4.28-13.83,2.25
				c-4.93-2.03-7.91-6.86-6.6-10.67c1.64,2.45,6.14,3.26,8.9,2.03c2.76-1.23,3.89-3.93,3.72-6.54
				C12.75,73.31,11.47,70.71,10.26,68.15z"/>
			<path class="st29" d="M73.47,63.79c9.39-4.99,15.75-14.03,16.64-24.21c0.02-0.25,0.04-0.49,0.05-0.72
				c1.71-30.63-20.1-43.28-33.57-37.5C44-4.06,20.38,9.48,23.23,39.1c0.05,0.55,0.12,1.14,0.2,1.75c1.3,9.88,7.52,18.57,16.71,23.39
				l16.36,8.57L73.47,63.79z"/>
		</g>
		<g>
			<g>
				<path class="st2" d="M31.78,45.89c0,0-3.98-4.97-7.99-2.8c-6.83,3.69-0.98,19.13,7.44,16.22L31.78,45.89z"/>
				<path class="st3" d="M30.26,46.89c0,0-2.77-3.16-5.52-1.78c-4.67,2.35,1.06,13.44,5.25,10.31L30.26,46.89z"/>
			</g>
			<g>
				<path class="st2" d="M79.26,45.89c0,0,3.98-4.97,7.99-2.8c6.83,3.69,0.98,19.13-7.44,16.22L79.26,45.89z"/>
				<path class="st3" d="M80.78,46.89c0,0,2.77-3.16,5.52-1.78c4.67,2.35-1.06,13.44-5.25,10.31L80.78,46.89z"/>
			</g>
		</g>
		<path class="st2" d="M55.92,7.06C40.96,7.21,28.89,16,28.89,36.2c0,8.92,0.24,24.01,3.69,29.61c3.46,5.6,8.09,7.98,11.91,10.21
			c3.71,2.17,7.01,3.65,11.42,3.73c4.42-0.09,7.71-1.56,11.42-3.73c3.82-2.23,8.45-4.61,11.91-10.21c3.46-5.6,3.69-20.69,3.69-29.61
			C82.95,16,70.89,7.21,55.92,7.06z"/>
		<path class="st5" d="M60.57,59.1c-0.08-0.34-0.26-0.62-0.42-0.81c-0.17-0.19-0.33-0.31-0.45-0.38c-0.12-0.07-0.2-0.09-0.22-0.06
			c-0.05,0.06,0.16,0.28,0.37,0.66c0.11,0.19,0.21,0.42,0.25,0.69c0.04,0.26,0.03,0.57-0.1,0.81c-0.13,0.24-0.37,0.37-0.54,0.33
			c-0.09-0.01-0.21-0.07-0.32-0.14c-0.11-0.07-0.23-0.14-0.36-0.2c-0.1-0.04-0.2-0.06-0.29-0.07c0.16-0.28,0.2-0.46,0.16-0.48
			c-0.07-0.04-0.29,0.27-0.73,0.66c-0.22,0.19-0.49,0.41-0.82,0.57c-0.33,0.17-0.72,0.29-1.14,0.3c-0.42,0-0.81-0.1-1.15-0.26
			c-0.34-0.16-0.62-0.36-0.85-0.54c-0.45-0.37-0.69-0.67-0.76-0.63c-0.03,0.02,0,0.17,0.13,0.39c-0.08,0.01-0.17,0.03-0.25,0.07
			c-0.13,0.05-0.24,0.13-0.36,0.2c-0.11,0.07-0.23,0.13-0.32,0.14c-0.18,0.04-0.42-0.09-0.54-0.33c-0.13-0.23-0.14-0.54-0.1-0.81
			c0.04-0.27,0.14-0.5,0.25-0.69c0.22-0.38,0.42-0.6,0.37-0.66c-0.02-0.03-0.1-0.01-0.22,0.06c-0.12,0.07-0.29,0.19-0.45,0.38
			c-0.17,0.19-0.34,0.46-0.42,0.81c-0.08,0.34-0.1,0.76,0.11,1.16c0.11,0.2,0.27,0.36,0.47,0.47c0.2,0.11,0.44,0.14,0.65,0.08
			c0.21-0.06,0.35-0.17,0.46-0.26c0.11-0.09,0.2-0.17,0.28-0.23c0.09-0.07,0.19-0.1,0.27-0.11c0.05,0.07,0.11,0.15,0.18,0.22
			c0.21,0.24,0.5,0.5,0.89,0.71c0.38,0.21,0.86,0.36,1.38,0.35c0.52-0.01,0.99-0.17,1.37-0.4c0.38-0.22,0.66-0.5,0.86-0.74
			c0.04-0.05,0.08-0.1,0.11-0.15c0.09,0.01,0.19,0.04,0.3,0.11c0.08,0.06,0.17,0.14,0.28,0.23c0.11,0.09,0.25,0.2,0.46,0.26
			c0.21,0.06,0.46,0.02,0.65-0.08c0.2-0.11,0.36-0.27,0.47-0.47C60.67,59.86,60.66,59.44,60.57,59.1z"/>
		<g>
			<path class="st11" d="M44.29,56.75c0,1.62-2.53,2.93-5.65,2.93c-3.12,0-5.65-1.31-5.65-2.93s2.53-2.93,5.65-2.93
				C41.76,53.82,44.29,55.13,44.29,56.75z"/>
			<path class="st11" d="M78.86,56.75c0,1.62-2.53,2.93-5.65,2.93c-3.12,0-5.65-1.31-5.65-2.93s2.53-2.93,5.65-2.93
				C76.33,53.82,78.86,55.13,78.86,56.75z"/>
		</g>
		<g>
			<g>
				<g>
					<defs>
						<path id="SVGID_41_" d="M50.13,49.75c-3.8-4.64-9.09-5.2-13.22,0.32C42.63,53.34,47.94,50.74,50.13,49.75z"/>
					</defs>
					<use xlink:href="#SVGID_41_"  style="overflow:visible;fill:#FFFFFF;"/>
					<clipPath id="SVGID_2_">
						<use xlink:href="#SVGID_41_"  style="overflow:visible;"/>
					</clipPath>
					<g class="st6">
						<circle class="st29" cx="43.36" cy="49.09" r="3.21"/>
						<path d="M41.56,49.17c0.04,0.99,0.89,1.76,1.88,1.72c0.99-0.04,1.76-0.89,1.72-1.88c-0.04-0.99-0.89-1.76-1.88-1.72
							C42.28,47.33,41.52,48.18,41.56,49.17z"/>
						<path class="st8" d="M43.86,48.28c0.01,0.2,0.18,0.35,0.38,0.35c0.2-0.01,0.35-0.18,0.35-0.38c-0.01-0.2-0.18-0.35-0.38-0.35
							C44.01,47.91,43.85,48.08,43.86,48.28z"/>
					</g>
				</g>
				<path class="st9" d="M50.13,49.75c-1.49-3.35-4.4-4.25-6.93-4.12c-2.35,0.12-5.11,1.36-6.29,4.44
					C41.42,46.03,46.45,46.3,50.13,49.75z"/>
			</g>
			<g>
				<g>
					<defs>
						<path id="SVGID_43_" d="M61.72,49.79c3.77-4.66,9.06-5.26,13.22,0.23C69.24,53.34,63.91,50.77,61.72,49.79z"/>
					</defs>
					<use xlink:href="#SVGID_43_"  style="overflow:visible;fill:#FFFFFF;"/>
					<clipPath id="SVGID_4_">
						<use xlink:href="#SVGID_43_"  style="overflow:visible;"/>
					</clipPath>
					<g class="st10">
						<path class="st29" d="M71.69,49.21c-0.07,1.77-1.56,3.15-3.33,3.09c-1.77-0.07-3.15-1.56-3.09-3.33
							c0.07-1.77,1.56-3.15,3.33-3.09C70.38,45.95,71.76,47.44,71.69,49.21z"/>
						<path d="M70.28,49.16c-0.04,0.99-0.88,1.77-1.87,1.73c-0.99-0.04-1.77-0.88-1.73-1.87c0.04-0.99,0.88-1.77,1.87-1.73
							C69.54,47.33,70.32,48.16,70.28,49.16z"/>
						<path class="st8" d="M69.71,48.41c-0.01,0.2-0.18,0.36-0.38,0.35c-0.2-0.01-0.36-0.18-0.35-0.38c0.01-0.2,0.18-0.36,0.38-0.35
							C69.56,48.04,69.72,48.21,69.71,48.41z"/>
					</g>
				</g>
				<path class="st9" d="M61.72,49.79c1.47-3.36,4.38-4.28,6.9-4.17c2.35,0.1,5.12,1.32,6.32,4.4
					C70.4,46.01,65.37,46.32,61.72,49.79z"/>
			</g>
		</g>
		<g>
			<path class="st29" d="M73.65,43.83c-0.06,0.05-0.21-0.03-0.44-0.17c-0.23-0.13-0.55-0.32-0.96-0.47
				c-0.41-0.16-0.9-0.28-1.44-0.34c-0.54-0.06-1.13-0.05-1.73-0.01c-0.61,0.05-1.23,0.13-1.84,0.21c-0.61,0.07-1.19,0.14-1.7,0.21
				c-1.02,0.12-1.75,0.19-1.91,0.2c-0.62,0.04-1.15-0.42-1.19-1.03c-0.04-0.61,0.44-1.13,1.06-1.17c0.15-0.01,0.89-0.02,1.92-0.03
				c0.51,0,1.09,0,1.71,0c0.61,0,1.28,0,1.96,0.05c0.68,0.05,1.36,0.16,1.99,0.36c0.62,0.2,1.17,0.48,1.59,0.8
				c0.42,0.31,0.7,0.65,0.86,0.9C73.67,43.61,73.7,43.79,73.65,43.83z"/>
			<path class="st29" d="M38.2,43.83c0.06,0.05,0.21-0.03,0.44-0.17c0.23-0.13,0.55-0.32,0.96-0.47c0.41-0.16,0.9-0.28,1.44-0.34
				c0.54-0.06,1.13-0.05,1.73-0.01c0.61,0.05,1.23,0.13,1.84,0.21c0.61,0.07,1.19,0.14,1.7,0.21c1.02,0.12,1.75,0.19,1.91,0.2
				c0.62,0.04,1.15-0.42,1.19-1.03c0.04-0.61-0.44-1.13-1.06-1.17c-0.15-0.01-0.89-0.02-1.92-0.03c-0.51,0-1.09,0-1.71,0
				c-0.61,0-1.28,0-1.96,0.05c-0.68,0.05-1.36,0.16-1.99,0.36c-0.62,0.2-1.17,0.48-1.59,0.8c-0.42,0.31-0.7,0.65-0.86,0.9
				C38.18,43.61,38.14,43.79,38.2,43.83z"/>
		</g>
		<path class="st29" d="M56.16,34.07c3.44,0,6.52,0.36,9.3,1c0.23,0.05,0.92-9.16,1.14-9.1c0.44,0.11,0.4,9.49,0.82,9.61
			c1.47,0.43,2.86,0.94,4.15,1.51c0.18,0.08,0.58-7.01,0.76-6.92c0.17,0.08,0.12,7.33,0.29,7.41c4.53,2.19,8,5.17,10.81,8.19
			c3.37-24.09-4.64-39.58-27.31-39.58c-22.67,0-31.52,14.77-27.54,39.33c3.24-3.4,7.32-6.66,12.79-8.83
			c0.3-0.12,0.66-5.17,0.97-5.28c0.18-0.06,0.3,4.81,0.47,4.75C46.59,34.85,50.99,34.07,56.16,34.07z"/>
		<g>
			<path class="st13" d="M68.94,62.29c-3.72,0.84-4.29,0.64-7.42,0.71c-1.49,0.03-4.63,1.08-4.63,1.08s-2.97-0.91-4.53-0.87
				c-2.8,0.06-5.28,0.24-8.06,0.01c0,0,3.29,9.08,12.06,9.08C65.18,72.29,68.94,62.29,68.94,62.29z"/>
			<path class="st8" d="M45.27,63.78c0,0,3.23,5.68,11.02,5.68s12.02-6.6,12.02-6.6C59.83,65.54,52.69,65.07,45.27,63.78z"/>
			<path class="st22" d="M45.27,63.78c0,0,3.23,5.68,11.02,5.68s12.02-6.6,12.02-6.6C59.83,65.54,52.69,65.07,45.27,63.78z"/>
			<path class="st8" d="M45.27,63.78c0,0,0.01,0.02,0.04,0.07c2.22,1.48,5.92,2.49,11.03,2.49c5.48,0,9.39-1.54,11.9-3.36
				c0.05-0.07,0.07-0.11,0.07-0.11C59.83,65.54,52.69,65.07,45.27,63.78z"/>
			<path class="st47" d="M56.29,69.46c2.52,0,4.66-0.69,6.41-1.62c-0.78-0.39-1.81-0.75-3.02-0.72c-0.96,0.03-2.51,0.19-2.95,0.74
				c-0.11,0.14-0.19,0.29-0.35,0.4c-0.16,0.12-0.44,0.19-0.64,0.11c-0.26-0.1-0.22-0.36,0-0.5c0.22-0.13,0.54-0.17,0.84-0.2
				c-1.09-0.98-5.56-0.53-6.17,0.53C51.97,68.93,53.91,69.46,56.29,69.46z"/>
		</g>
	</g>
</g>
</svg>
