<?xml version="1.0" encoding="utf-8"?>
<!-- Generator: Adobe Illustrator 25.2.1, SVG Export Plug-In . SVG Version: 6.00 Build 0)  -->
<svg version="1.1" id="ëÎÓÈ_1" xmlns="http://www.w3.org/2000/svg" xmlns:xlink="http://www.w3.org/1999/xlink" x="0px" y="0px"
	 viewBox="0 0 97.12 114.08" style="enable-background:new 0 0 97.12 114.08;" xml:space="preserve">
<style type="text/css">
	.st0{fill:#D39775;}
	.st1{fill:#C68463;}
	.st2{fill:#FFC197;}
	.st3{fill:#FCA76D;}
	.st4{fill:#FF8599;}
	.st5{fill:#DD7B45;}
	.st6{clip-path:url(#SVGID_2_);}
	.st7{fill:#4E899B;}
	.st8{fill:#FFFFFF;}
	.st9{fill:#B28C79;}
	.st10{clip-path:url(#SVGID_4_);}
	.st11{fill:#FFA892;}
	.st12{fill:#E8A982;}
	.st13{fill:#FF7B6D;}
	.st14{fill:#04AEB7;}
	.st15{fill:#EA6835;}
	.st16{clip-path:url(#SVGID_6_);}
	.st17{clip-path:url(#SVGID_8_);}
	.st18{fill:#B68461;}
	.st19{fill:#915F3D;}
	.st20{fill:#F7F5ED;}
	.st21{fill:#E87870;}
	.st22{fill:#93322B;}
	.st23{fill:#725440;}
	.st24{clip-path:url(#SVGID_10_);}
	.st25{fill:#543927;}
	.st26{clip-path:url(#SVGID_12_);}
	.st27{fill:#2B211A;}
	.st28{fill:#492B14;}
	.st29{fill:#845535;}
	.st30{clip-path:url(#SVGID_14_);}
	.st31{fill:#186858;}
	.st32{clip-path:url(#SVGID_16_);}
	.st33{fill:#F95548;}
	.st34{fill:#C93F14;}
	.st35{fill:#77B232;}
	.st36{clip-path:url(#SVGID_18_);}
	.st37{fill:#407046;}
	.st38{clip-path:url(#SVGID_20_);}
	.st39{fill:#FF6666;}
	.st40{clip-path:url(#SVGID_22_);}
	.st41{fill:#5E361B;}
	.st42{clip-path:url(#SVGID_24_);}
	.st43{fill:#E2233A;}
	.st44{clip-path:url(#SVGID_26_);}
	.st45{fill:#82543D;}
	.st46{clip-path:url(#SVGID_28_);}
	.st47{fill:#E63236;}
	.st48{fill:#3D2C22;}
	.st49{clip-path:url(#SVGID_30_);}
	.st50{fill:#536784;}
	.st51{clip-path:url(#SVGID_32_);}
	.st52{fill:#52728A;}
	.st53{clip-path:url(#SVGID_34_);}
	.st54{clip-path:url(#SVGID_36_);}
	.st55{fill:#A30C0C;}
	.st56{clip-path:url(#SVGID_38_);}
	.st57{clip-path:url(#SVGID_40_);}
	.st58{fill:#75380E;}
	.st59{clip-path:url(#SVGID_42_);}
	.st60{clip-path:url(#SVGID_44_);}
	.st61{clip-path:url(#SVGID_46_);}
	.st62{clip-path:url(#SVGID_48_);}
	.st63{fill:#FC6054;}
	.st64{fill:#CC9A79;}
</style>
<g>
	<path class="st28" d="M54.23,81.79c-4.3,2.9-9.71,4.36-15.03,4.08c-5.32-0.29-10.5-2.32-14.41-5.66c-2.74,1.23-6.06,1.29-8.84,0.15
		c-2.78-1.13-4.98-3.44-5.83-6.13C5.25,74.8,0.31,71.04,0,66.53c2.1,1.67,5.63,0.15,6.75-2.19c1.12-2.34,0.63-5.03,0.27-7.56
		c-0.36-2.54-0.48-5.35,1.2-7.39c1.43-1.74,3.93-2.59,5.13-4.47c1.51-2.36,0.44-5.33-0.1-8.03c-1.64-8.06,0.22-18.43,7.6-23.02
		c2.22-1.39,4.77-2.46,6.45-4.39c1.36-1.56,3.31-3.13,4.93-4.43C39-0.41,45.37,2.46,47.25,4.31c2.16-3.65,7.27-4.92,11.69-4.05
		C62.25,0.9,65,2.95,67.61,4.92c4.58,3.46,9.15,6.93,13.73,10.39c2.25,1.7,4.67,3.68,5,6.34c0.33,2.65-1.5,5.54-0.1,7.88
		c0.82,1.36,2.49,2.04,3.98,2.78c1.49,0.73,3.04,1.81,3.22,3.36c0.28,2.43-2.98,4.3-2.73,6.73c0.17,1.68,1.91,2.78,3.43,3.72
		s3.16,2.27,2.96,3.94c-0.28,2.41-4.11,3.47-4.26,5.89c-0.11,1.85,1.97,3.06,3.14,4.57c1.17,1.51,1.44,3.57,0.7,5.29
		c-0.74,1.72-2.48,3.04-4.45,3.4c-1.02,0.91-1.49,2.55-0.66,3.6c0.83,1.06,2.54,1.43,3.79,0.82c0.95,2.82-1.81,5.79-4.93,6.42
		c-3.13,0.63-6.35-0.42-9.28-1.62c-3.49,3.73-8.52,6.22-13.82,6.82C62.03,85.87,58.6,84.63,54.23,81.79z"/>
	<g>
		<path class="st18" d="M93.17,114.08c-1.57-4.97-3.14-9.08-4.68-11.83c-0.1-0.21-0.19-0.41-0.31-0.61
			c-0.25-0.42-0.55-0.83-0.87-1.22c-0.45-0.6-0.89-1.09-1.33-1.42c-0.02-0.01-0.04-0.02-0.05-0.04c-7.2-6.54-23.29-8.71-23.29-12.68
			c0-4.48,0-19.12,0-19.12H34.5c0,0,0,14.65,0,19.12c0,3.97-16,6.13-23.23,12.63c-0.04,0.03-0.08,0.06-0.13,0.09
			c-0.51,0.39-1.03,0.97-1.55,1.72c-0.23,0.3-0.44,0.61-0.63,0.92c-0.07,0.13-0.13,0.26-0.2,0.39c-1.58,2.75-3.2,6.94-4.81,12.04
			H93.17z"/>
		<path class="st19" d="M62.64,81.27c0-6,0-14.12,0-14.12H34.5c0,0,0,12.34,0,17.83c0.7-2.06,5.39,0.43,11.6,1.65
			C52.43,87.88,59.59,85.88,62.64,81.27z"/>
		<path class="st39" d="M88.49,102.25c-0.1-0.21-0.19-0.41-0.31-0.61c-0.25-0.42-0.55-0.83-0.87-1.22c-0.45-0.6-0.89-1.09-1.33-1.42
			c-0.02-0.01-0.04-0.02-0.05-0.04c-5.22-4.74-15.09-7.18-20.14-9.68c-4.15,4.88-10.32,7.97-17.22,7.97
			c-6.9,0-13.07-3.09-17.22-7.97c-5.04,2.49-14.85,4.92-20.07,9.62c-0.04,0.03-0.08,0.06-0.13,0.09c-0.51,0.39-1.03,0.97-1.55,1.72
			c-0.23,0.3-0.44,0.61-0.63,0.92c-0.07,0.13-0.13,0.26-0.2,0.39c-1.58,2.75-3.2,6.94-4.81,12.04h89.21
			C91.6,109.11,90.03,105,88.49,102.25z"/>
	</g>
	<g>
		<g>
			<g>
				<path class="st18" d="M24.99,49.21c0,0-3.98-4.97-7.99-2.8c-6.83,3.69-0.98,19.13,7.44,16.22L24.99,49.21z"/>
				<path class="st19" d="M23.47,50.21c0,0-2.77-3.16-5.52-1.78c-4.67,2.35,1.06,13.44,5.25,10.31L23.47,50.21z"/>
			</g>
			<g>
				<path class="st18" d="M72.47,49.21c0,0,3.98-4.97,7.99-2.8c6.83,3.69,0.98,19.13-7.44,16.22L72.47,49.21z"/>
				<path class="st19" d="M73.99,50.21c0,0,2.77-3.16,5.52-1.78c4.67,2.35-1.06,13.44-5.25,10.31L73.99,50.21z"/>
			</g>
		</g>
		<path class="st18" d="M49.14,10.37c-14.96,0.15-27.03,8.94-27.03,29.15c0,8.92,0.24,24.01,3.69,29.61
			c3.46,5.6,8.09,7.98,11.91,10.21c3.71,2.17,7.01,4.84,11.42,4.93c4.42-0.09,7.71-2.76,11.42-4.93c3.82-2.23,8.45-4.61,11.91-10.21
			c3.46-5.6,3.69-20.69,3.69-29.61C76.16,19.31,64.1,10.52,49.14,10.37z"/>
		<path class="st23" d="M53.79,63.02c-0.08-0.34-0.26-0.62-0.42-0.81c-0.17-0.19-0.33-0.31-0.45-0.38c-0.12-0.07-0.2-0.09-0.22-0.06
			c-0.05,0.06,0.16,0.28,0.37,0.66c0.11,0.19,0.21,0.42,0.25,0.69c0.04,0.26,0.03,0.57-0.1,0.81c-0.13,0.24-0.37,0.37-0.54,0.33
			c-0.09-0.01-0.21-0.07-0.32-0.14c-0.11-0.07-0.23-0.14-0.36-0.2c-0.1-0.04-0.2-0.06-0.29-0.07c0.16-0.28,0.2-0.46,0.16-0.48
			c-0.07-0.04-0.29,0.27-0.73,0.66c-0.22,0.19-0.49,0.41-0.82,0.57c-0.33,0.17-0.72,0.29-1.14,0.3c-0.42,0-0.81-0.1-1.15-0.26
			c-0.34-0.16-0.62-0.36-0.85-0.54c-0.45-0.37-0.69-0.67-0.76-0.63c-0.03,0.02,0,0.17,0.13,0.39c-0.08,0.01-0.17,0.03-0.25,0.07
			c-0.13,0.05-0.24,0.13-0.36,0.2c-0.11,0.07-0.23,0.13-0.32,0.14c-0.18,0.04-0.42-0.09-0.54-0.33c-0.13-0.23-0.14-0.54-0.1-0.81
			c0.04-0.27,0.14-0.5,0.25-0.69c0.22-0.38,0.42-0.6,0.37-0.66c-0.02-0.03-0.1-0.01-0.22,0.06c-0.12,0.07-0.29,0.19-0.45,0.38
			c-0.17,0.19-0.34,0.46-0.42,0.81c-0.08,0.34-0.1,0.76,0.11,1.16c0.11,0.2,0.27,0.36,0.47,0.47c0.2,0.11,0.44,0.14,0.65,0.08
			c0.21-0.06,0.35-0.17,0.46-0.26c0.11-0.09,0.2-0.17,0.28-0.23c0.09-0.07,0.19-0.1,0.27-0.11c0.05,0.07,0.11,0.15,0.18,0.22
			c0.21,0.24,0.5,0.5,0.89,0.71c0.38,0.21,0.86,0.36,1.38,0.35c0.52-0.01,0.99-0.17,1.37-0.4c0.38-0.22,0.66-0.5,0.86-0.74
			c0.04-0.05,0.08-0.1,0.11-0.15c0.09,0.01,0.19,0.04,0.29,0.11c0.08,0.06,0.17,0.14,0.28,0.23c0.11,0.09,0.25,0.2,0.46,0.26
			c0.21,0.06,0.46,0.02,0.65-0.08c0.2-0.11,0.36-0.27,0.47-0.47C53.89,63.78,53.87,63.36,53.79,63.02z"/>
		<g>
			<path class="st28" d="M70.21,46.71c-0.08,0.06-0.26-0.04-0.54-0.21c-0.29-0.17-0.69-0.39-1.19-0.58
				c-0.5-0.19-1.11-0.35-1.78-0.42c-0.67-0.07-1.4-0.07-2.15-0.01c-0.75,0.06-1.52,0.17-2.28,0.26c-0.76,0.09-1.47,0.18-2.1,0.25
				c-1.26,0.15-2.17,0.24-2.36,0.25c-0.77,0.05-1.43-0.52-1.47-1.27c-0.04-0.75,0.54-1.4,1.31-1.45c0.19-0.01,1.11-0.03,2.37-0.04
				c0.63,0,1.35,0,2.12,0c0.76,0,1.58,0,2.42,0.07c0.84,0.06,1.69,0.2,2.46,0.44c0.77,0.25,1.45,0.6,1.97,0.99
				c0.52,0.39,0.87,0.8,1.06,1.12C70.24,46.44,70.28,46.65,70.21,46.71z"/>
			<path class="st28" d="M28.06,46.71c0.08,0.06,0.26-0.04,0.54-0.21c0.29-0.17,0.69-0.39,1.19-0.58c0.5-0.19,1.11-0.35,1.78-0.42
				c0.67-0.07,1.4-0.07,2.15-0.01c0.75,0.06,1.52,0.17,2.28,0.26c0.76,0.09,1.47,0.18,2.1,0.25c1.26,0.15,2.17,0.24,2.36,0.25
				c0.77,0.05,1.43-0.52,1.47-1.27c0.04-0.75-0.54-1.4-1.31-1.45c-0.19-0.01-1.11-0.03-2.37-0.04c-0.63,0-1.35,0-2.12,0
				c-0.76,0-1.58,0-2.42,0.07c-0.84,0.06-1.69,0.2-2.46,0.44c-0.77,0.25-1.45,0.6-1.97,0.99c-0.52,0.39-0.87,0.8-1.06,1.12
				C28.03,46.44,27.99,46.65,28.06,46.71z"/>
		</g>
		<g>
			<g>
				<g>
					<defs>
						<path id="SVGID_21_" d="M56.15,51.7c-0.08-1.67,3.6-3.56,5.68-3.54c1.84,0.01,5.66,1.09,5.47,3.29
							c-0.11,1.27-1.1,2.45-5.47,2.45S56.2,52.7,56.15,51.7z"/>
					</defs>
					<use xlink:href="#SVGID_21_"  style="overflow:visible;fill:#FFFFFF;"/>
					<clipPath id="SVGID_2_">
						<use xlink:href="#SVGID_21_"  style="overflow:visible;"/>
					</clipPath>
					<g class="st6">
						<path class="st41" d="M65.08,51.03c0,1.79-1.45,3.24-3.24,3.24c-1.79,0-3.24-1.45-3.24-3.24c0-1.79,1.45-3.24,3.24-3.24
							C63.63,47.79,65.08,49.24,65.08,51.03z"/>
						<path d="M63.65,51.03c0,1-0.81,1.82-1.82,1.82c-1,0-1.82-0.81-1.82-1.82s0.81-1.82,1.82-1.82
							C62.84,49.21,63.65,50.03,63.65,51.03z"/>
						<path class="st8" d="M63.3,51.4c0,0.2-0.16,0.37-0.37,0.37c-0.2,0-0.37-0.16-0.37-0.37c0-0.2,0.16-0.37,0.37-0.37
							C63.13,51.03,63.3,51.19,63.3,51.4z"/>
					</g>
				</g>
				<path class="st23" d="M56.15,51.54c-0.16-2.32,3.42-3.76,5.68-3.75c2.11,0.01,5.92,1.09,5.46,3.66
					C63.26,48.5,58.7,49.81,56.15,51.54z"/>
			</g>
			<g>
				<g>
					<defs>
						<path id="SVGID_23_" d="M42.12,51.7c0.08-1.67-3.6-3.56-5.68-3.54c-1.84,0.01-5.66,1.09-5.47,3.29
							c0.11,1.27,1.1,2.45,5.47,2.45S42.08,52.7,42.12,51.7z"/>
					</defs>
					<use xlink:href="#SVGID_23_"  style="overflow:visible;fill:#FFFFFF;"/>
					<clipPath id="SVGID_4_">
						<use xlink:href="#SVGID_23_"  style="overflow:visible;"/>
					</clipPath>
					<g class="st10">
						<circle class="st41" cx="36.44" cy="51.03" r="3.24"/>
						<path d="M34.62,51.03c0,1,0.81,1.82,1.82,1.82s1.82-0.81,1.82-1.82s-0.81-1.82-1.82-1.82S34.62,50.03,34.62,51.03z"/>
						<path class="st8" d="M37.14,51.4c0,0.2,0.16,0.37,0.37,0.37c0.2,0,0.37-0.16,0.37-0.37c0-0.2-0.16-0.37-0.37-0.37
							C37.31,51.03,37.14,51.19,37.14,51.4z"/>
					</g>
				</g>
				<path class="st23" d="M42.12,51.54c0.16-2.32-3.42-3.76-5.68-3.75c-2.11,0.01-5.92,1.09-5.46,3.66
					C35.01,48.5,39.57,49.81,42.12,51.54z"/>
			</g>
		</g>
		<path class="st28" d="M14.86,65.66c-4.33-4.85-2.05-10.67,1.36-23.55C20.29,26.72,27.44,4.44,46.96,5.2l-0.01-0.06
			C73.73,0,80.99,21.2,83.08,24.32c9.92,14.8-4.56,27.1,8.78,31.27c-6.99,4.48-13.88,2.28-16.87-9.93
			c-2.99-12.22-28.04-12.08-38.76-27.91c-3.81,1.93-6.37,5.47-6.64,9.18c-0.27,3.61,1.46,7.4-0.16,10.76
			c-1.51,3.11-5.71,5.36-5.66,8.72c0.03,1.95,1.56,3.65,2.17,5.54c0.82,2.53,2.21,8.1,2.08,10.74
			C27.59,71.73,18.37,70.56,14.86,65.66z"/>
		<g>
			<path class="st21" d="M58.99,68.59c-2.73,2.54-3.81,5.49-9.86,5.67c-5.99-0.16-7.44-3.46-9.85-5.68c-0.11-0.1,0-0.26,0.13-0.21
				c2.93,1.05,4.6-0.76,7.01-0.45c0.9,0.07,1.03,0.76,2.71,0.78c1.57-0.03,1.73-0.83,2.88-0.81c2-0.05,3.74,1.68,6.84,0.49
				C58.99,68.33,59.1,68.49,58.99,68.59z"/>
			<path class="st22" d="M54.98,69.73c-1.04,0.04-2.11,0.02-2.89,0.22c0.36-0.37,0.45-0.64,0.42-0.65
				c-0.05-0.02-0.29,0.26-0.81,0.58c-0.51,0.32-1.35,0.66-2.34,0.67c-0.99,0.01-1.86-0.28-2.41-0.56c-0.56-0.28-0.83-0.53-0.89-0.51
				c-0.05,0.01,0.07,0.25,0.42,0.56c-0.06-0.02-0.11-0.04-0.18-0.06c-0.79-0.24-1.92-0.21-3.02-0.25c-2.27-0.03-3.87-1.36-3.93-1.27
				c-0.02,0.01,0.06,0.1,0.22,0.24c0.15,0.15,0.4,0.35,0.75,0.57c0.34,0.22,0.8,0.44,1.32,0.62c0.53,0.16,1.13,0.27,1.72,0.3
				c1.19,0.04,2.14-0.05,2.85,0.08c0.38,0.06,0.67,0.14,0.88,0.19c0.55,0.29,1.34,0.55,2.27,0.54c0.92-0.01,1.7-0.31,2.21-0.64
				c0.14-0.03,0.29-0.06,0.46-0.09c0.71-0.13,1.66-0.04,2.85-0.08c0.59-0.03,1.19-0.14,1.72-0.3c0.53-0.18,0.98-0.4,1.32-0.62
				c0.35-0.22,0.59-0.42,0.75-0.57c0.16-0.15,0.23-0.23,0.22-0.24C58.85,68.37,57.25,69.7,54.98,69.73z"/>
		</g>
	</g>
</g>
</svg>
