<?xml version="1.0" encoding="utf-8"?>
<!-- Generator: Adobe Illustrator 25.2.1, SVG Export Plug-In . SVG Version: 6.00 Build 0)  -->
<svg version="1.1" id="ëÎÓÈ_1" xmlns="http://www.w3.org/2000/svg" xmlns:xlink="http://www.w3.org/1999/xlink" x="0px" y="0px"
	 viewBox="0 0 89.21 106.72" style="enable-background:new 0 0 89.21 106.72;" xml:space="preserve">
<style type="text/css">
	.st0{fill:#D39775;}
	.st1{fill:#C68463;}
	.st2{fill:#FFC197;}
	.st3{fill:#FCA76D;}
	.st4{fill:#FF8599;}
	.st5{fill:#DD7B45;}
	.st6{clip-path:url(#SVGID_2_);}
	.st7{fill:#4E899B;}
	.st8{fill:#FFFFFF;}
	.st9{fill:#B28C79;}
	.st10{clip-path:url(#SVGID_4_);}
	.st11{fill:#FFA892;}
	.st12{fill:#E8A982;}
	.st13{fill:#FF7B6D;}
	.st14{fill:#04AEB7;}
	.st15{fill:#EA6835;}
	.st16{clip-path:url(#SVGID_6_);}
	.st17{clip-path:url(#SVGID_8_);}
	.st18{fill:#B68461;}
	.st19{fill:#915F3D;}
	.st20{fill:#F7F5ED;}
	.st21{fill:#E87870;}
	.st22{fill:#93322B;}
	.st23{fill:#725440;}
	.st24{clip-path:url(#SVGID_10_);}
	.st25{fill:#543927;}
	.st26{clip-path:url(#SVGID_12_);}
	.st27{fill:#2B211A;}
	.st28{fill:#492B14;}
	.st29{fill:#845535;}
	.st30{clip-path:url(#SVGID_14_);}
	.st31{fill:#186858;}
	.st32{clip-path:url(#SVGID_16_);}
	.st33{fill:#F95548;}
	.st34{fill:#C93F14;}
	.st35{fill:#77B232;}
	.st36{clip-path:url(#SVGID_18_);}
	.st37{fill:#407046;}
	.st38{clip-path:url(#SVGID_20_);}
	.st39{fill:#FF6666;}
	.st40{clip-path:url(#SVGID_22_);}
	.st41{fill:#5E361B;}
	.st42{clip-path:url(#SVGID_24_);}
	.st43{fill:#E2233A;}
	.st44{clip-path:url(#SVGID_26_);}
	.st45{fill:#82543D;}
	.st46{clip-path:url(#SVGID_28_);}
	.st47{fill:#E63236;}
	.st48{fill:#3D2C22;}
	.st49{clip-path:url(#SVGID_30_);}
	.st50{fill:#536784;}
	.st51{clip-path:url(#SVGID_32_);}
	.st52{fill:#52728A;}
	.st53{clip-path:url(#SVGID_34_);}
	.st54{clip-path:url(#SVGID_36_);}
	.st55{fill:#A30C0C;}
	.st56{clip-path:url(#SVGID_38_);}
	.st57{clip-path:url(#SVGID_40_);}
	.st58{fill:#75380E;}
	.st59{clip-path:url(#SVGID_42_);}
	.st60{clip-path:url(#SVGID_44_);}
	.st61{clip-path:url(#SVGID_46_);}
	.st62{clip-path:url(#SVGID_48_);}
	.st63{fill:#FC6054;}
	.st64{fill:#CC9A79;}
</style>
<g>
	<g>
		<path class="st2" d="M89.21,106.72c-1.57-4.97-3.14-9.08-4.68-11.83c-0.1-0.21-0.19-0.41-0.31-0.61
			c-0.25-0.42-0.55-0.83-0.87-1.22c-0.45-0.6-0.89-1.09-1.33-1.42c-0.02-0.01-0.04-0.02-0.05-0.04c-7.2-6.54-23.29-8.71-23.29-12.68
			c0-4.48,0-19.12,0-19.12H30.55c0,0,0,14.65,0,19.12c0,3.97-16,6.13-23.23,12.63c-0.04,0.03-0.08,0.06-0.13,0.09
			c-0.51,0.39-1.03,0.97-1.55,1.72c-0.23,0.3-0.44,0.61-0.63,0.92c-0.07,0.13-0.13,0.26-0.2,0.39c-1.58,2.75-3.2,6.94-4.81,12.04
			H89.21z"/>
		<path class="st3" d="M58.68,73.91c0-6,0-14.12,0-14.12H30.55c0,0,0,12.34,0,17.83c0.7-2.06,5.39,0.43,11.6,1.65
			C48.48,80.52,55.63,78.52,58.68,73.91z"/>
		<path class="st28" d="M84.53,94.89c-0.1-0.21-0.19-0.41-0.31-0.61c-0.25-0.42-0.55-0.83-0.87-1.22c-0.45-0.6-0.89-1.09-1.33-1.42
			c-0.02-0.01-0.04-0.02-0.05-0.04c-5.22-4.74-15.09-7.18-20.14-9.68c-4.15,4.88-10.32,7.97-17.22,7.97
			c-6.9,0-13.07-3.09-17.22-7.97c-5.04,2.49-14.85,4.92-20.07,9.62c-0.04,0.03-0.08,0.06-0.13,0.09c-0.51,0.39-1.03,0.97-1.55,1.72
			c-0.23,0.3-0.44,0.61-0.63,0.92c-0.07,0.13-0.13,0.26-0.2,0.39c-1.58,2.75-3.2,6.94-4.81,12.04h89.21
			C87.65,101.75,86.07,97.64,84.53,94.89z"/>
	</g>
	<g>
		<path class="st29" d="M29.72,3.02c1.58,0.15,3.16,0.31,4.73,0.46c-6.39,1-12.3,4.36-16.09,9.16c0.74-0.01,1.48-0.03,2.22-0.04
			c-5.37,4.17-8.47,10.67-8.14,17.1c0.32-0.3,0.63-0.61,0.95-0.91c-1.74,13.28,6.59,27.99,6.59,27.99h50.83
			C82.27,23.58,73.49,5,65.39,7.02C54.52-2.76,35.28-0.52,29.72,3.02z"/>
		<g>
			<g>
				<path class="st2" d="M20.87,42.99c0,0-3.98-4.97-7.99-2.8c-6.83,3.69-0.98,19.13,7.44,16.22L20.87,42.99z"/>
				<path class="st3" d="M19.35,43.99c0,0-2.77-3.16-5.52-1.78c-4.67,2.35,1.06,13.44,5.25,10.31L19.35,43.99z"/>
			</g>
			<g>
				<path class="st2" d="M68.35,42.99c0,0,3.98-4.97,7.99-2.8c6.83,3.69,0.98,19.13-7.44,16.22L68.35,42.99z"/>
				<path class="st3" d="M69.87,43.99c0,0,2.77-3.16,5.52-1.78c4.67,2.35-1.06,13.44-5.25,10.31L69.87,43.99z"/>
			</g>
		</g>
		<path class="st2" d="M45.01,4.16C30.05,4.31,17.98,13.1,17.98,33.31c0,8.92,0.24,24.01,3.69,29.61c3.46,5.6,8.09,7.98,11.91,10.21
			c3.71,2.17,7.01,3.65,11.42,3.73c4.42-0.09,7.71-1.56,11.42-3.73c3.82-2.23,8.45-4.61,11.91-10.21c3.46-5.6,3.69-20.69,3.69-29.61
			C72.04,13.1,59.97,4.31,45.01,4.16z"/>
		<path class="st5" d="M49.66,56.21c-0.08-0.34-0.26-0.62-0.42-0.81c-0.17-0.19-0.33-0.31-0.45-0.38c-0.12-0.07-0.2-0.09-0.22-0.06
			c-0.05,0.06,0.16,0.28,0.37,0.66c0.11,0.19,0.21,0.42,0.25,0.69c0.04,0.26,0.03,0.57-0.1,0.81c-0.13,0.24-0.37,0.37-0.54,0.33
			c-0.09-0.01-0.21-0.08-0.32-0.14c-0.11-0.07-0.23-0.14-0.36-0.2c-0.1-0.04-0.2-0.06-0.29-0.07c0.16-0.28,0.2-0.46,0.16-0.48
			c-0.07-0.04-0.29,0.27-0.73,0.66c-0.22,0.19-0.49,0.41-0.82,0.57c-0.33,0.17-0.72,0.29-1.14,0.3c-0.42,0-0.81-0.1-1.15-0.26
			c-0.34-0.16-0.62-0.36-0.85-0.54c-0.45-0.37-0.69-0.67-0.76-0.63c-0.03,0.02,0,0.17,0.13,0.39c-0.08,0.01-0.17,0.03-0.25,0.07
			c-0.13,0.05-0.24,0.13-0.36,0.2c-0.11,0.07-0.23,0.13-0.32,0.14c-0.18,0.04-0.42-0.09-0.54-0.33c-0.13-0.23-0.14-0.54-0.1-0.81
			c0.04-0.27,0.14-0.5,0.25-0.69c0.22-0.38,0.42-0.6,0.37-0.66c-0.02-0.03-0.1-0.01-0.22,0.06c-0.12,0.07-0.29,0.19-0.45,0.38
			c-0.17,0.19-0.34,0.46-0.42,0.81c-0.08,0.34-0.1,0.76,0.11,1.16c0.11,0.2,0.27,0.36,0.47,0.47c0.2,0.11,0.44,0.14,0.65,0.08
			c0.21-0.06,0.35-0.17,0.46-0.26c0.11-0.09,0.2-0.17,0.28-0.23c0.09-0.07,0.19-0.1,0.27-0.11c0.05,0.07,0.11,0.15,0.18,0.22
			c0.21,0.24,0.5,0.5,0.89,0.71c0.38,0.21,0.86,0.36,1.38,0.35c0.52-0.01,0.99-0.17,1.37-0.4c0.38-0.22,0.66-0.5,0.86-0.74
			c0.04-0.05,0.08-0.1,0.11-0.15c0.09,0.01,0.19,0.04,0.3,0.11c0.08,0.06,0.17,0.14,0.28,0.23c0.11,0.09,0.25,0.2,0.46,0.26
			c0.21,0.06,0.46,0.02,0.65-0.08c0.2-0.11,0.36-0.27,0.47-0.47C49.76,56.96,49.74,56.54,49.66,56.21z"/>
		<g>
			<path class="st11" d="M33.37,53.85c0,1.62-2.53,2.93-5.65,2.93s-5.65-1.31-5.65-2.93c0-1.62,2.53-2.93,5.65-2.93
				S33.37,52.24,33.37,53.85z"/>
			<path class="st11" d="M67.95,53.85c0,1.62-2.53,2.93-5.65,2.93c-3.12,0-5.65-1.31-5.65-2.93c0-1.62,2.53-2.93,5.65-2.93
				C65.42,50.93,67.95,52.24,67.95,53.85z"/>
		</g>
		<g>
			<g>
				<g>
					<defs>
						<path id="SVGID_13_" d="M39.52,47.88c-3.61-4.4-8.62-4.93-12.53,0.3C32.41,51.29,37.45,48.83,39.52,47.88z"/>
					</defs>
					<use xlink:href="#SVGID_13_"  style="overflow:visible;fill:#FFFFFF;"/>
					<clipPath id="SVGID_2_">
						<use xlink:href="#SVGID_13_"  style="overflow:visible;"/>
					</clipPath>
					<g class="st6">
						<path class="st31" d="M30.06,47.4c0.08,1.68,1.5,2.98,3.18,2.91c1.68-0.08,2.98-1.5,2.91-3.18c-0.08-1.68-1.5-2.98-3.18-2.91
							C31.28,44.29,29.98,45.71,30.06,47.4z"/>
						<path d="M31.39,47.33c0.04,0.94,0.84,1.67,1.78,1.63c0.94-0.04,1.67-0.84,1.63-1.78c-0.04-0.94-0.84-1.67-1.78-1.63
							C32.08,45.59,31.35,46.39,31.39,47.33z"/>
						<path class="st8" d="M33.58,46.49c0.01,0.19,0.17,0.34,0.36,0.33c0.19-0.01,0.34-0.17,0.33-0.36
							c-0.01-0.19-0.17-0.34-0.36-0.33C33.71,46.14,33.57,46.3,33.58,46.49z"/>
					</g>
				</g>
				<path class="st9" d="M39.52,47.88c-1.42-3.18-4.18-4.03-6.57-3.91c-2.23,0.11-4.85,1.29-5.97,4.21
					C31.26,44.36,36.03,44.62,39.52,47.88z"/>
			</g>
			<g>
				<g>
					<defs>
						<path id="SVGID_15_" d="M50.5,47.93c3.58-4.42,8.59-4.99,12.54,0.22C57.64,51.29,52.58,48.86,50.5,47.93z"/>
					</defs>
					<use xlink:href="#SVGID_15_"  style="overflow:visible;fill:#FFFFFF;"/>
					<clipPath id="SVGID_4_">
						<use xlink:href="#SVGID_15_"  style="overflow:visible;"/>
					</clipPath>
					<g class="st10">
						<path class="st31" d="M59.96,47.37c-0.07,1.68-1.48,2.99-3.16,2.93c-1.68-0.07-2.99-1.48-2.93-3.16
							c0.07-1.68,1.48-2.99,3.16-2.93C58.72,44.28,60.03,45.69,59.96,47.37z"/>
						<path d="M58.63,47.32c-0.04,0.94-0.83,1.68-1.77,1.64c-0.94-0.04-1.68-0.83-1.64-1.77c0.04-0.94,0.83-1.68,1.77-1.64
							C57.93,45.59,58.66,46.38,58.63,47.32z"/>
						<path class="st8" d="M58.09,46.61c-0.01,0.19-0.17,0.34-0.36,0.33c-0.19-0.01-0.34-0.17-0.33-0.36
							c0.01-0.19,0.17-0.34,0.36-0.33C57.95,46.26,58.09,46.42,58.09,46.61z"/>
					</g>
				</g>
				<path class="st9" d="M50.5,47.93c1.4-3.18,4.15-4.06,6.54-3.95c2.23,0.1,4.85,1.25,5.99,4.17
					C58.74,44.34,53.97,44.63,50.5,47.93z"/>
			</g>
		</g>
		<g>
			<path class="st13" d="M45.45,63.73c0.84-0.32,1.65-0.66,2.45-1.02c2.18,0.64,4.48,1.12,6.86,1.4c0.06-0.09-2.77,3.8-9.66,3.91
				c-6.89-0.07-9.9-4-9.84-3.91c2.72-0.2,5.33-0.66,7.82-1.34C43.85,63.1,44.64,63.43,45.45,63.73z"/>
			<path class="st33" d="M45.45,63.73c0.84-0.32,1.65-0.66,2.45-1.02c2.18,0.64,4.48,1.12,6.86,1.4c-6.42,1.44-13.08,1.44-19.5,0
				c2.72-0.2,5.33-0.66,7.82-1.34C43.85,63.1,44.64,63.43,45.45,63.73z"/>
		</g>
		<g>
			<path class="st29" d="M65.28,42.22c-0.08,0.06-0.28-0.04-0.58-0.22c-0.31-0.18-0.73-0.42-1.27-0.62
				c-0.54-0.21-1.19-0.37-1.9-0.45c-0.71-0.08-1.49-0.07-2.3-0.01c-0.8,0.06-1.63,0.18-2.44,0.28c-0.81,0.1-1.57,0.19-2.24,0.27
				c-1.34,0.16-2.32,0.26-2.52,0.27c-0.82,0.05-1.52-0.56-1.57-1.36c-0.05-0.8,0.58-1.49,1.4-1.54c0.2-0.01,1.18-0.03,2.54-0.04
				c0.68,0,1.45,0,2.26,0c0.81,0,1.69,0,2.59,0.07c0.9,0.07,1.8,0.21,2.63,0.48c0.83,0.26,1.55,0.64,2.1,1.05
				c0.55,0.41,0.93,0.86,1.14,1.2C65.31,41.93,65.36,42.16,65.28,42.22z"/>
			<path class="st29" d="M24.74,42.22c0.08,0.06,0.28-0.04,0.58-0.22c0.31-0.18,0.73-0.42,1.27-0.62c0.54-0.21,1.19-0.37,1.9-0.45
				c0.71-0.08,1.49-0.07,2.3-0.01c0.8,0.06,1.63,0.18,2.44,0.28c0.81,0.1,1.57,0.19,2.24,0.27c1.34,0.16,2.32,0.26,2.52,0.27
				c0.82,0.05,1.52-0.56,1.57-1.36c0.05-0.8-0.58-1.49-1.4-1.54c-0.2-0.01-1.18-0.03-2.54-0.04c-0.68,0-1.45,0-2.26,0
				c-0.81,0-1.69,0-2.59,0.07c-0.9,0.07-1.8,0.21-2.63,0.48c-0.83,0.26-1.55,0.64-2.1,1.05c-0.55,0.41-0.93,0.86-1.14,1.2
				C24.71,41.93,24.66,42.16,24.74,42.22z"/>
		</g>
		<path class="st29" d="M18.23,45c0,0,1.28-6.18,3.09-9.99c1.81-3.8,5.09-6.98,8.98-7.5c-0.23,0.6-0.47,1.21-0.7,1.81
			c5.38-1.91,10.76-3.82,16.14-5.73c-0.37,0.55-0.74,1.09-1.1,1.64c6.96-0.07,13.84-3.43,18.54-9.05
			c1.38,5.35,2.66,10.86,4.04,16.21c0.3-0.73,0.59-1.46,0.89-2.19c0.58,5.26,3.22,12.82,3.3,14.22l1.19-1.74
			c0.49-18.34,1.52-39.4-27.67-39.4c-28.3,0-28.04,22.5-27.62,39.4L18.23,45z"/>
	</g>
</g>
</svg>
