<?xml version="1.0" encoding="utf-8"?>
<!-- Generator: Adobe Illustrator 25.2.1, SVG Export Plug-In . SVG Version: 6.00 Build 0)  -->
<svg version="1.1" id="ëÎÓÈ_1" xmlns="http://www.w3.org/2000/svg" xmlns:xlink="http://www.w3.org/1999/xlink" x="0px" y="0px"
	 viewBox="0 0 89.21 116.35" style="enable-background:new 0 0 89.21 116.35;" xml:space="preserve">
<style type="text/css">
	.st0{fill:#D39775;}
	.st1{fill:#C68463;}
	.st2{fill:#FFC197;}
	.st3{fill:#FCA76D;}
	.st4{fill:#FF8599;}
	.st5{fill:#DD7B45;}
	.st6{clip-path:url(#SVGID_2_);}
	.st7{fill:#4E899B;}
	.st8{fill:#FFFFFF;}
	.st9{fill:#B28C79;}
	.st10{clip-path:url(#SVGID_4_);}
	.st11{fill:#FFA892;}
	.st12{fill:#E8A982;}
	.st13{fill:#FF7B6D;}
	.st14{fill:#04AEB7;}
	.st15{fill:#EA6835;}
	.st16{clip-path:url(#SVGID_6_);}
	.st17{clip-path:url(#SVGID_8_);}
	.st18{fill:#B68461;}
	.st19{fill:#915F3D;}
	.st20{fill:#F7F5ED;}
	.st21{fill:#E87870;}
	.st22{fill:#93322B;}
	.st23{fill:#725440;}
	.st24{clip-path:url(#SVGID_10_);}
	.st25{fill:#543927;}
	.st26{clip-path:url(#SVGID_12_);}
	.st27{fill:#2B211A;}
	.st28{fill:#492B14;}
	.st29{fill:#845535;}
	.st30{clip-path:url(#SVGID_14_);}
	.st31{fill:#186858;}
	.st32{clip-path:url(#SVGID_16_);}
	.st33{fill:#F95548;}
	.st34{fill:#C93F14;}
	.st35{fill:#77B232;}
	.st36{clip-path:url(#SVGID_18_);}
	.st37{fill:#407046;}
	.st38{clip-path:url(#SVGID_20_);}
	.st39{fill:#FF6666;}
	.st40{clip-path:url(#SVGID_22_);}
	.st41{fill:#5E361B;}
	.st42{clip-path:url(#SVGID_24_);}
	.st43{fill:#E2233A;}
	.st44{clip-path:url(#SVGID_26_);}
	.st45{fill:#82543D;}
	.st46{clip-path:url(#SVGID_28_);}
	.st47{fill:#E63236;}
	.st48{fill:#3D2C22;}
	.st49{clip-path:url(#SVGID_30_);}
	.st50{fill:#536784;}
	.st51{clip-path:url(#SVGID_32_);}
	.st52{fill:#52728A;}
	.st53{clip-path:url(#SVGID_34_);}
	.st54{clip-path:url(#SVGID_36_);}
	.st55{fill:#A30C0C;}
	.st56{clip-path:url(#SVGID_38_);}
	.st57{clip-path:url(#SVGID_40_);}
	.st58{fill:#75380E;}
	.st59{clip-path:url(#SVGID_42_);}
	.st60{clip-path:url(#SVGID_44_);}
	.st61{clip-path:url(#SVGID_46_);}
	.st62{clip-path:url(#SVGID_48_);}
	.st63{fill:#FC6054;}
	.st64{fill:#CC9A79;}
</style>
<g>
	<g>
		<path class="st2" d="M89.21,116.35c-1.57-4.97-3.14-9.08-4.68-11.83c-0.1-0.21-0.19-0.41-0.31-0.61
			c-0.25-0.42-0.55-0.83-0.87-1.22c-0.45-0.6-0.89-1.09-1.33-1.42c-0.02-0.01-0.04-0.02-0.05-0.04c-7.2-6.54-23.29-8.71-23.29-12.68
			c0-4.48,0-19.12,0-19.12H30.55c0,0,0,14.65,0,19.12c0,3.97-16,6.13-23.23,12.63c-0.04,0.03-0.08,0.06-0.13,0.09
			c-0.51,0.39-1.03,0.97-1.55,1.72c-0.23,0.3-0.44,0.61-0.63,0.92c-0.07,0.13-0.13,0.26-0.2,0.39c-1.58,2.75-3.2,6.94-4.81,12.04
			H89.21z"/>
		<path class="st3" d="M58.68,83.54c0-6,0-14.12,0-14.12H30.55c0,0,0,12.34,0,17.83c0.7-2.06,5.39,0.43,11.6,1.65
			C48.48,90.15,55.63,88.15,58.68,83.54z"/>
		<path d="M84.53,104.52c-0.1-0.21-0.19-0.41-0.31-0.61c-0.25-0.42-0.55-0.83-0.87-1.22c-0.45-0.6-0.89-1.09-1.33-1.42
			c-0.02-0.01-0.04-0.02-0.05-0.04c-5.22-4.74-15.09-7.18-20.14-9.68c-4.15,4.88-10.32,7.97-17.22,7.97
			c-6.9,0-13.07-3.09-17.22-7.97c-5.04,2.49-14.85,4.92-20.07,9.62c-0.04,0.03-0.08,0.06-0.13,0.09c-0.51,0.39-1.03,0.97-1.55,1.72
			c-0.23,0.3-0.44,0.61-0.63,0.92c-0.07,0.13-0.13,0.26-0.2,0.39c-1.58,2.75-3.2,6.94-4.81,12.04h89.21
			C87.65,111.38,86.07,107.27,84.53,104.52z"/>
	</g>
	<g>
		<g>
			<g>
				<path class="st2" d="M20.35,50.94c0,0-3.98-4.97-7.99-2.8c-6.83,3.69-0.98,19.13,7.44,16.22L20.35,50.94z"/>
				<path class="st3" d="M18.83,51.94c0,0-2.77-3.16-5.52-1.78c-4.67,2.35,1.06,13.44,5.25,10.31L18.83,51.94z"/>
			</g>
			<g>
				<path class="st2" d="M67.82,50.94c0,0,3.98-4.97,7.99-2.8c6.83,3.69,0.98,19.13-7.44,16.22L67.82,50.94z"/>
				<path class="st3" d="M69.34,51.94c0,0,2.77-3.16,5.52-1.78c4.67,2.35-1.06,13.44-5.25,10.31L69.34,51.94z"/>
			</g>
		</g>
		<path class="st2" d="M44.49,12.1c-14.96,0.15-27.03,8.94-27.03,29.15c0,8.92,0.24,24.01,3.69,29.61
			c3.46,5.6,8.09,8.72,11.91,10.95c3.71,2.17,7.01,4.59,11.42,4.68c4.42-0.09,7.71-2.51,11.42-4.68c3.82-2.23,8.45-5.35,11.91-10.95
			c3.46-5.6,3.69-20.69,3.69-29.61C71.52,21.04,59.45,12.25,44.49,12.1z"/>
		<g>
			<path class="st13" d="M47.68,69.64c-1.49,0.2-1.74,0.32-3.18,0.35c-1.44-0.03-1.69-0.15-3.18-0.35
				c-3.13-0.55-5.07,0.14-9.05,0.25c2.09,3.29,6.78,7.03,12.22,7.03s10.14-3.74,12.22-7.03C52.76,69.78,50.82,69.08,47.68,69.64z"/>
			<path class="st8" d="M44.5,74.08c-5.2,0-9.31-3.01-9.31-3.01s7.79,0.01,9.64,0c0.93,0,9.03,0.13,9.03,0.13
				S49.71,74.08,44.5,74.08z"/>
		</g>
		<path class="st5" d="M49.14,64.75c-0.08-0.34-0.26-0.62-0.42-0.81c-0.17-0.19-0.33-0.31-0.45-0.38c-0.12-0.07-0.2-0.09-0.22-0.06
			c-0.05,0.06,0.16,0.28,0.37,0.66c0.11,0.19,0.21,0.42,0.25,0.69c0.04,0.26,0.03,0.57-0.1,0.81c-0.13,0.24-0.37,0.37-0.54,0.33
			c-0.09-0.01-0.21-0.08-0.32-0.14c-0.11-0.07-0.23-0.14-0.36-0.2c-0.1-0.04-0.2-0.06-0.29-0.07c0.16-0.28,0.2-0.46,0.16-0.48
			c-0.07-0.04-0.29,0.27-0.73,0.66c-0.22,0.19-0.49,0.41-0.82,0.57c-0.33,0.17-0.72,0.29-1.14,0.3c-0.42,0-0.81-0.1-1.15-0.26
			c-0.34-0.16-0.62-0.36-0.85-0.54c-0.45-0.37-0.69-0.67-0.76-0.63c-0.03,0.02,0,0.17,0.13,0.39c-0.08,0.01-0.17,0.03-0.25,0.07
			c-0.13,0.05-0.24,0.13-0.36,0.2c-0.11,0.07-0.23,0.13-0.32,0.14c-0.18,0.04-0.42-0.09-0.54-0.33c-0.13-0.23-0.14-0.54-0.1-0.81
			c0.04-0.27,0.14-0.5,0.25-0.69c0.22-0.38,0.42-0.6,0.37-0.66c-0.02-0.03-0.1-0.01-0.22,0.06c-0.12,0.07-0.29,0.19-0.45,0.38
			c-0.17,0.19-0.34,0.46-0.42,0.81c-0.08,0.34-0.1,0.76,0.11,1.16c0.11,0.2,0.27,0.36,0.47,0.47c0.2,0.11,0.44,0.14,0.65,0.08
			c0.21-0.06,0.35-0.17,0.46-0.26c0.11-0.09,0.2-0.17,0.28-0.23c0.09-0.07,0.19-0.1,0.27-0.11c0.05,0.07,0.11,0.15,0.18,0.22
			c0.21,0.24,0.5,0.5,0.89,0.71c0.38,0.21,0.86,0.36,1.38,0.35c0.52-0.01,0.99-0.17,1.37-0.4c0.38-0.22,0.66-0.5,0.86-0.74
			c0.04-0.05,0.08-0.1,0.11-0.15c0.09,0.01,0.19,0.04,0.29,0.11c0.08,0.06,0.17,0.14,0.28,0.23c0.11,0.09,0.25,0.2,0.46,0.26
			c0.21,0.06,0.46,0.02,0.65-0.08c0.2-0.11,0.36-0.27,0.47-0.47C49.24,65.51,49.22,65.09,49.14,64.75z"/>
		<g>
			<g>
				<g>
					<defs>
						<path id="SVGID_37_" d="M50.76,53.62c0,0,1.66-2.24,6.7-2.24c5.04,0,6.45,1.96,6.45,1.96s-1.33,2.9-6.5,2.9
							S50.76,53.62,50.76,53.62z"/>
					</defs>
					<use xlink:href="#SVGID_37_"  style="overflow:visible;fill:#FFFFFF;"/>
					<clipPath id="SVGID_2_">
						<use xlink:href="#SVGID_37_"  style="overflow:visible;"/>
					</clipPath>
					<g class="st6">
						<path class="st7" d="M60.89,53.24c0,1.9-1.54,3.43-3.43,3.43s-3.43-1.54-3.43-3.43s1.54-3.43,3.43-3.43
							S60.89,51.34,60.89,53.24z"/>
						<path d="M59.38,53.24c0,1.06-0.86,1.92-1.92,1.92c-1.06,0-1.92-0.86-1.92-1.92s0.86-1.92,1.92-1.92
							C58.52,51.32,59.38,52.18,59.38,53.24z"/>
						<path class="st8" d="M58.68,52.4c0,0.21-0.17,0.39-0.39,0.39c-0.21,0-0.39-0.17-0.39-0.39c0-0.21,0.17-0.39,0.39-0.39
							C58.51,52.01,58.68,52.18,58.68,52.4z"/>
					</g>
				</g>
				<path class="st9" d="M50.76,53.62c0,0,0.74-3.4,6.7-3.4c5.96,0,6.46,3.13,6.46,3.13C59.89,50.64,54.43,51,50.76,53.62z"/>
			</g>
			<g>
				<g>
					<defs>
						<path id="SVGID_39_" d="M38.22,53.62c0,0-1.66-2.24-6.7-2.24s-6.45,1.96-6.45,1.96s1.33,2.9,6.5,2.9
							C36.74,56.23,38.22,53.62,38.22,53.62z"/>
					</defs>
					<use xlink:href="#SVGID_39_"  style="overflow:visible;fill:#FFFFFF;"/>
					<clipPath id="SVGID_4_">
						<use xlink:href="#SVGID_39_"  style="overflow:visible;"/>
					</clipPath>
					<g class="st10">
						<path class="st7" d="M28.09,53.24c0,1.9,1.54,3.43,3.43,3.43c1.9,0,3.43-1.54,3.43-3.43s-1.54-3.43-3.43-3.43
							C29.62,49.81,28.09,51.34,28.09,53.24z"/>
						<path d="M29.6,53.24c0,1.06,0.86,1.92,1.92,1.92s1.92-0.86,1.92-1.92s-0.86-1.92-1.92-1.92S29.6,52.18,29.6,53.24z"/>
						<path class="st8" d="M31.96,52.4c0,0.21,0.17,0.39,0.39,0.39c0.21,0,0.39-0.17,0.39-0.39c0-0.21-0.17-0.39-0.39-0.39
							C32.13,52.01,31.96,52.18,31.96,52.4z"/>
					</g>
				</g>
				<path class="st9" d="M38.22,53.62c0,0-0.74-3.4-6.7-3.4c-5.96,0-6.45,3.13-6.45,3.13C29.08,50.64,34.55,51,38.22,53.62z"/>
			</g>
		</g>
		<g>
			<path class="st58" d="M64.76,48.44c-0.08,0.06-0.28-0.04-0.58-0.22c-0.31-0.18-0.73-0.42-1.27-0.62
				c-0.54-0.21-1.19-0.37-1.9-0.45c-0.71-0.08-1.49-0.07-2.3-0.01c-0.8,0.06-1.63,0.18-2.44,0.28c-0.81,0.1-1.57,0.19-2.24,0.27
				c-1.34,0.16-2.32,0.26-2.52,0.27c-0.82,0.05-1.52-0.56-1.57-1.36c-0.05-0.8,0.58-1.49,1.4-1.54c0.2-0.01,1.18-0.03,2.54-0.04
				c0.68,0,1.45,0,2.26,0c0.81,0,1.69,0,2.59,0.07c0.9,0.07,1.8,0.21,2.63,0.48c0.83,0.26,1.55,0.64,2.1,1.05
				c0.55,0.41,0.93,0.86,1.14,1.2C64.79,48.15,64.84,48.38,64.76,48.44z"/>
			<path class="st58" d="M24.22,48.44c0.08,0.06,0.28-0.04,0.58-0.22c0.31-0.18,0.73-0.42,1.27-0.62c0.54-0.21,1.19-0.37,1.9-0.45
				c0.71-0.08,1.49-0.07,2.3-0.01c0.8,0.06,1.63,0.18,2.44,0.28c0.81,0.1,1.57,0.19,2.24,0.27c1.34,0.16,2.32,0.26,2.52,0.27
				c0.82,0.05,1.52-0.56,1.57-1.36c0.05-0.8-0.58-1.49-1.4-1.54c-0.2-0.01-1.18-0.03-2.54-0.04c-0.68,0-1.45,0-2.26,0
				c-0.81,0-1.69,0-2.59,0.07c-0.9,0.07-1.8,0.21-2.63,0.48c-0.83,0.26-1.55,0.64-2.1,1.05c-0.55,0.41-0.93,0.86-1.14,1.2
				C24.19,48.15,24.14,48.38,24.22,48.44z"/>
		</g>
		<g>
			<ellipse class="st11" cx="27.2" cy="61.8" rx="5.65" ry="2.93"/>
			<path class="st11" d="M67.43,61.8c0,1.62-2.53,2.93-5.65,2.93s-5.65-1.31-5.65-2.93c0-1.62,2.53-2.93,5.65-2.93
				S67.43,60.18,67.43,61.8z"/>
		</g>
		<path class="st58" d="M26.79,14.89c-0.43-2.26,0.64-4.61,2.25-6.26c1.61-1.65,3.71-2.72,5.78-3.72C38.52,3.14,42.28,1.5,46.1,0
			c-0.21,0.76-0.43,1.51-0.64,2.27c5.33-0.47,10.7-0.39,16.01,0.25C61,3.01,60.52,3.51,60.05,4c3.96,0.15,7.93,0.3,11.89,0.45
			c-0.75,1.36-1.51,2.72-2.26,4.08c0.82,0.01,1.64,0.03,2.46,0.04c0.33,2.92,0.66,5.85,0.99,8.77c0.41-0.3,0.82-0.59,1.23-0.89
			c0.54,9.81,0.28,31.26,0.28,31.26c-1.66-0.3-3.18,0.41-3.18,0.41l-0.16,4.45l-0.54-0.13c0.81-16.78-1.79-24.09-6.83-27.04
			c-5.2-3.04-5.53,0.81-19.22,0.59c-13.69-0.21-15.9-3.95-22.18,2c-2.39,2.27-4.39,24.16-4.39,24.16h-0.45l-0.13-3.61
			c-0.84-0.44-1.52-0.78-2.32-0.89c0,0-0.75-13.08,0.92-16.63c-0.55,0.57-1.1,1.15-1.64,1.72c0.24-4.28,1.47-8.51,3.57-12.25
			c-0.6,0.04-1.2,0.08-1.81,0.13C18.27,16.38,23.03,13.87,26.79,14.89z"/>
	</g>
</g>
</svg>
