<?xml version="1.0" encoding="utf-8"?>
<!-- Generator: Adobe Illustrator 25.2.1, SVG Export Plug-In . SVG Version: 6.00 Build 0)  -->
<svg version="1.1" id="ëÎÓÈ_1" xmlns="http://www.w3.org/2000/svg" xmlns:xlink="http://www.w3.org/1999/xlink" x="0px" y="0px"
	 viewBox="0 0 89.21 125.25" style="enable-background:new 0 0 89.21 125.25;" xml:space="preserve">
<style type="text/css">
	.st0{fill:#D39775;}
	.st1{fill:#C68463;}
	.st2{fill:#FFC197;}
	.st3{fill:#FCA76D;}
	.st4{fill:#FF8599;}
	.st5{fill:#DD7B45;}
	.st6{clip-path:url(#SVGID_2_);}
	.st7{fill:#4E899B;}
	.st8{fill:#FFFFFF;}
	.st9{fill:#B28C79;}
	.st10{clip-path:url(#SVGID_4_);}
	.st11{fill:#FFA892;}
	.st12{fill:#E8A982;}
	.st13{fill:#FF7B6D;}
	.st14{fill:#04AEB7;}
	.st15{fill:#EA6835;}
	.st16{clip-path:url(#SVGID_6_);}
	.st17{clip-path:url(#SVGID_8_);}
	.st18{fill:#B68461;}
	.st19{fill:#915F3D;}
	.st20{fill:#F7F5ED;}
	.st21{fill:#E87870;}
	.st22{fill:#93322B;}
	.st23{fill:#725440;}
	.st24{clip-path:url(#SVGID_10_);}
	.st25{fill:#543927;}
	.st26{clip-path:url(#SVGID_12_);}
	.st27{fill:#2B211A;}
	.st28{fill:#492B14;}
	.st29{fill:#845535;}
	.st30{clip-path:url(#SVGID_14_);}
	.st31{fill:#186858;}
	.st32{clip-path:url(#SVGID_16_);}
	.st33{fill:#F95548;}
	.st34{fill:#C93F14;}
	.st35{fill:#77B232;}
	.st36{clip-path:url(#SVGID_18_);}
	.st37{fill:#407046;}
	.st38{clip-path:url(#SVGID_20_);}
	.st39{fill:#FF6666;}
	.st40{clip-path:url(#SVGID_22_);}
	.st41{fill:#5E361B;}
	.st42{clip-path:url(#SVGID_24_);}
	.st43{fill:#E2233A;}
	.st44{clip-path:url(#SVGID_26_);}
	.st45{fill:#82543D;}
	.st46{clip-path:url(#SVGID_28_);}
	.st47{fill:#E63236;}
	.st48{fill:#3D2C22;}
	.st49{clip-path:url(#SVGID_30_);}
	.st50{fill:#536784;}
	.st51{clip-path:url(#SVGID_32_);}
	.st52{fill:#52728A;}
	.st53{clip-path:url(#SVGID_34_);}
	.st54{clip-path:url(#SVGID_36_);}
	.st55{fill:#A30C0C;}
	.st56{clip-path:url(#SVGID_38_);}
	.st57{clip-path:url(#SVGID_40_);}
	.st58{fill:#75380E;}
	.st59{clip-path:url(#SVGID_42_);}
	.st60{clip-path:url(#SVGID_44_);}
	.st61{clip-path:url(#SVGID_46_);}
	.st62{clip-path:url(#SVGID_48_);}
	.st63{fill:#FC6054;}
	.st64{fill:#CC9A79;}
</style>
<g>
	<g>
		<path class="st0" d="M83.54,52.38c0.85,9.09,0.13,18.47-3.39,26.9c-1.47,3.53-3.42,6.85-4.89,10.38
			c-1.47,3.53-2.46,7.39-1.88,11.17c0.58,3.78,2.99,7.45,6.6,8.69c-5.46,2.52-12.14,1.61-17.25-1.56
			c-5.11-3.17-8.75-8.35-10.94-13.96c-2.18-5.6-3.01-11.64-3.43-17.64C46.7,52.6,53.88,26.37,64.03,4.83
			C75.73,0.65,82.69,43.29,83.54,52.38z"/>
		<path class="st1" d="M70.24,49.07c-0.32-1.36,4.49-27.95-9.33-37.06c-13.82-9.12-34.86,7.5-40.16,20.44
			C15.44,45.38,3.4,65.21,6.09,72.6c4.06,11.19,11.46,24.2,16.7,34.89l36.37-1.46c0,0,0.49-9.77,3.82-18.1
			c3.33-8.33,7.25-16.61,8.16-25.67C71.58,57.85,71.26,53.35,70.24,49.07z"/>
	</g>
	<g>
		<path class="st2" d="M89.21,110.97c-1.57-4.97-3.14-9.08-4.68-11.83c-0.1-0.21-0.19-0.41-0.31-0.61
			c-0.25-0.42-0.55-0.83-0.87-1.22c-0.45-0.6-0.89-1.09-1.33-1.42c-0.02-0.01-0.04-0.02-0.05-0.04c-7.2-6.54-23.29-8.71-23.29-12.68
			c0-4.48,0-19.13,0-19.13H30.55c0,0,0,14.65,0,19.13c0,3.97-16,6.13-23.23,12.63c-0.04,0.03-0.08,0.06-0.13,0.09
			c-0.51,0.39-1.03,0.97-1.55,1.72c-0.23,0.3-0.44,0.61-0.63,0.92c-0.07,0.13-0.13,0.26-0.2,0.39c-1.58,2.75-3.2,6.94-4.81,12.04
			H89.21z"/>
		<path class="st3" d="M58.68,78.16c0-6,0-14.12,0-14.12H30.55c0,0,0,12.34,0,17.83c0.7-2.06,5.39,0.43,11.6,1.65
			C48.48,84.77,55.63,82.77,58.68,78.16z"/>
		<path class="st4" d="M84.53,99.14c-0.1-0.21-0.19-0.41-0.31-0.61c-0.25-0.42-0.55-0.83-0.87-1.22c-0.45-0.6-0.89-1.09-1.33-1.42
			c-0.02-0.01-0.04-0.02-0.05-0.04c-5.22-4.74-15.09-7.18-20.14-9.68c-4.15,4.88-10.32,7.97-17.22,7.97
			c-6.9,0-13.07-3.09-17.22-7.97c-5.04,2.49-14.85,4.92-20.07,9.62c-0.04,0.03-0.08,0.06-0.13,0.09c-0.51,0.39-1.03,0.97-1.55,1.72
			c-0.23,0.3-0.44,0.61-0.63,0.92c-0.07,0.13-0.13,0.26-0.2,0.39c-1.58,2.75-3.2,6.94-4.81,12.04h89.21
			C87.65,106,86.07,101.89,84.53,99.14z"/>
	</g>
	<g>
		<g>
			<g>
				<path class="st2" d="M20.4,47.36c0,0-3.98-4.97-7.99-2.8c-6.83,3.69-0.98,19.13,7.44,16.22L20.4,47.36z"/>
				<path class="st3" d="M18.88,48.36c0,0-2.77-3.16-5.52-1.78c-4.67,2.35,1.06,13.44,5.25,10.31L18.88,48.36z"/>
			</g>
			<g>
				<path class="st2" d="M67.88,47.36c0,0,3.98-4.97,7.99-2.8c6.83,3.69,0.98,19.13-7.44,16.22L67.88,47.36z"/>
				<path class="st3" d="M69.4,48.36c0,0,2.77-3.16,5.52-1.78c4.67,2.35-1.06,13.44-5.25,10.31L69.4,48.36z"/>
			</g>
		</g>
		<path class="st2" d="M44.55,8.52c-14.96,0.15-27.03,8.94-27.03,29.15c0,8.92,0.24,24.01,3.69,29.61s8.09,7.98,11.91,10.21
			c3.71,2.17,7.01,3.65,11.42,3.73c4.42-0.09,7.71-1.56,11.42-3.73c3.82-2.23,8.45-4.61,11.91-10.21c3.46-5.6,3.69-20.69,3.69-29.61
			C71.58,17.47,59.51,8.68,44.55,8.52z"/>
		<path class="st5" d="M49.2,59.34c-0.08-0.34-0.26-0.62-0.42-0.81c-0.17-0.19-0.33-0.31-0.45-0.38c-0.12-0.07-0.2-0.09-0.22-0.06
			c-0.05,0.06,0.16,0.28,0.37,0.66c0.11,0.19,0.21,0.42,0.25,0.69c0.04,0.26,0.03,0.57-0.1,0.81c-0.13,0.24-0.37,0.37-0.54,0.33
			c-0.09-0.01-0.21-0.08-0.32-0.14c-0.11-0.07-0.23-0.14-0.36-0.2c-0.1-0.04-0.2-0.06-0.29-0.07c0.16-0.28,0.2-0.46,0.16-0.48
			c-0.07-0.04-0.29,0.27-0.73,0.66c-0.22,0.19-0.49,0.41-0.82,0.57c-0.33,0.17-0.72,0.29-1.14,0.3c-0.42,0-0.81-0.1-1.15-0.26
			c-0.34-0.16-0.62-0.36-0.85-0.54c-0.45-0.37-0.69-0.67-0.76-0.63c-0.03,0.02,0,0.17,0.13,0.39c-0.08,0.01-0.17,0.03-0.25,0.07
			c-0.13,0.05-0.24,0.13-0.36,0.2c-0.11,0.07-0.23,0.13-0.32,0.14c-0.18,0.04-0.42-0.09-0.54-0.33c-0.13-0.23-0.14-0.54-0.1-0.81
			c0.04-0.27,0.14-0.5,0.25-0.69c0.22-0.38,0.42-0.6,0.37-0.66c-0.02-0.03-0.1-0.01-0.22,0.06c-0.12,0.07-0.29,0.19-0.45,0.38
			c-0.17,0.19-0.34,0.46-0.42,0.81c-0.08,0.34-0.1,0.76,0.11,1.16c0.11,0.2,0.27,0.36,0.47,0.47c0.2,0.11,0.44,0.14,0.65,0.08
			c0.21-0.06,0.35-0.17,0.46-0.26c0.11-0.09,0.2-0.17,0.28-0.23c0.09-0.07,0.19-0.1,0.27-0.11c0.05,0.07,0.11,0.15,0.18,0.22
			c0.21,0.24,0.5,0.5,0.89,0.71c0.38,0.21,0.86,0.36,1.38,0.35c0.52-0.01,0.99-0.17,1.37-0.4c0.38-0.22,0.66-0.5,0.86-0.74
			c0.04-0.05,0.08-0.1,0.11-0.15c0.09,0.01,0.19,0.04,0.3,0.11c0.08,0.06,0.17,0.14,0.28,0.23c0.11,0.09,0.25,0.2,0.46,0.26
			c0.21,0.06,0.46,0.02,0.65-0.08c0.2-0.11,0.36-0.27,0.47-0.47C49.3,60.1,49.28,59.68,49.2,59.34z"/>
		<g>
			<g>
				<g>
					<defs>
						<path id="SVGID_1_" d="M51.16,49.59c0,0,1.75-2.36,7.07-2.36s6.81,2.06,6.81,2.06s-1.4,3.06-6.86,3.06
							C52.73,52.35,51.16,49.59,51.16,49.59z"/>
					</defs>
					<use xlink:href="#SVGID_1_"  style="overflow:visible;fill:#FFFFFF;"/>
					<clipPath id="SVGID_2_">
						<use xlink:href="#SVGID_1_"  style="overflow:visible;"/>
					</clipPath>
					<g class="st6">
						<path class="st7" d="M61.85,49.19c0,2-1.62,3.62-3.62,3.62s-3.62-1.62-3.62-3.62s1.62-3.62,3.62-3.62S61.85,47.19,61.85,49.19
							z"/>
						<circle cx="58.23" cy="49.19" r="2.03"/>
						<path class="st8" d="M59.52,48.3c0,0.23-0.18,0.41-0.41,0.41c-0.23,0-0.41-0.18-0.41-0.41c0-0.23,0.18-0.41,0.41-0.41
							C59.33,47.89,59.52,48.08,59.52,48.3z"/>
					</g>
				</g>
				<path class="st9" d="M51.16,49.59c0,0,0.78-3.59,7.07-3.59c6.28,0,6.81,3.3,6.81,3.3C60.8,46.45,55.03,46.83,51.16,49.59z"/>
			</g>
			<g>
				<g>
					<defs>
						<path id="SVGID_3_" d="M37.93,49.59c0,0-1.75-2.36-7.07-2.36s-6.81,2.06-6.81,2.06s1.4,3.06,6.86,3.06
							C36.37,52.35,37.93,49.59,37.93,49.59z"/>
					</defs>
					<use xlink:href="#SVGID_3_"  style="overflow:visible;fill:#FFFFFF;"/>
					<clipPath id="SVGID_4_">
						<use xlink:href="#SVGID_3_"  style="overflow:visible;"/>
					</clipPath>
					<g class="st10">
						<path class="st7" d="M27.24,49.19c0,2,1.62,3.62,3.62,3.62c2,0,3.62-1.62,3.62-3.62s-1.62-3.62-3.62-3.62
							C28.87,45.57,27.24,47.19,27.24,49.19z"/>
						<circle cx="30.87" cy="49.19" r="2.03"/>
						<path class="st8" d="M31.33,48.3c0,0.23,0.18,0.41,0.41,0.41c0.23,0,0.41-0.18,0.41-0.41c0-0.23-0.18-0.41-0.41-0.41
							C31.51,47.89,31.33,48.08,31.33,48.3z"/>
					</g>
				</g>
				<path class="st9" d="M37.93,49.59c0,0-0.78-3.59-7.07-3.59c-6.28,0-6.81,3.3-6.81,3.3C28.3,46.45,34.06,46.83,37.93,49.59z"/>
			</g>
		</g>
		<g>
			<path class="st1" d="M65.97,43.21c-0.07,0.06-0.25-0.04-0.54-0.2c-0.28-0.16-0.67-0.38-1.17-0.56c-0.49-0.19-1.09-0.34-1.75-0.41
				c-0.65-0.07-1.37-0.06-2.11-0.01c-0.74,0.06-1.5,0.16-2.24,0.25c-0.74,0.09-1.45,0.17-2.06,0.25c-1.24,0.14-2.13,0.23-2.32,0.24
				c-0.75,0.05-1.4-0.51-1.44-1.23c-0.04-0.73,0.53-1.35,1.29-1.4c0.19-0.01,1.09-0.03,2.33-0.04c0.62,0,1.33,0,2.08,0
				c0.75,0,1.56,0,2.38,0.07c0.82,0.06,1.66,0.19,2.42,0.43c0.76,0.24,1.43,0.58,1.93,0.95c0.51,0.37,0.86,0.77,1.04,1.08
				C65.99,42.95,66.04,43.16,65.97,43.21z"/>
			<path class="st1" d="M23.13,43.21c0.07,0.06,0.25-0.04,0.54-0.2c0.28-0.16,0.67-0.38,1.17-0.56c0.49-0.19,1.09-0.34,1.75-0.41
				c0.65-0.07,1.37-0.06,2.11-0.01c0.74,0.06,1.5,0.16,2.24,0.25c0.74,0.09,1.45,0.17,2.06,0.25c1.24,0.14,2.13,0.23,2.32,0.24
				c0.75,0.05,1.4-0.51,1.44-1.23c0.04-0.73-0.53-1.35-1.29-1.4c-0.19-0.01-1.09-0.03-2.33-0.04c-0.62,0-1.33,0-2.08,0
				c-0.75,0-1.56,0-2.38,0.07c-0.82,0.06-1.66,0.19-2.42,0.43c-0.76,0.24-1.43,0.58-1.93,0.95c-0.51,0.37-0.86,0.77-1.04,1.08
				C23.1,42.95,23.06,43.16,23.13,43.21z"/>
		</g>
		<g>
			<path class="st11" d="M32.91,58.22c0,1.62-2.53,2.93-5.65,2.93c-3.12,0-5.65-1.31-5.65-2.93c0-1.62,2.53-2.93,5.65-2.93
				C30.38,55.29,32.91,56.6,32.91,58.22z"/>
			<path class="st11" d="M67.48,58.22c0,1.62-2.53,2.93-5.65,2.93c-3.12,0-5.65-1.31-5.65-2.93c0-1.62,2.53-2.93,5.65-2.93
				C64.95,55.29,67.48,56.6,67.48,58.22z"/>
		</g>
		<g>
			<path class="st0" d="M71.58,44.49c3.18-4.87,3.35-21.19,1.8-26.8c-1.55-5.61-5.6-10.47-10.83-13.02
				c0.09,0.04-1.55,3.84-1.64,4.22c-0.25,1.11-0.11,1.96,0,3.11c0.28,2.82,0.63,5.53,1.46,8.26C63.99,25.56,67.67,40.55,71.58,44.49
				z"/>
			<path class="st0" d="M7.71,54.69c9.65-21.05,21.65-26.83,32-30.21c7.31-2.38,14.46-5.84,20.18-11.06c2.41-2.2,5.36-5.03,4.15-8.6
				C31.94-11.27-0.56,14.82,7.71,54.69z"/>
			<path class="st12" d="M31.89,121.11c12.77-17.26-9.65-27.8-14.56-37.16c-3.17-6.05-5.64-13.21-5.39-20.37
				c0.25-7.16,2.71-13.95,6.74-18.6c4.5-5.18,10.58-7.52,16.55-9.44s12.13-3.6,17.23-7.79S63.65,16.73,62.86,8.71
				c-3.18,7.16-12.08,10.06-18.36,12.24c-6.27,2.18-12.89,3.1-18.9,6.13c-16.69,8.43-22.5,23-23.34,39.88
				c0.2,43.23,28.81,38.24,20.56,58.29C26.48,125.24,30.01,123.65,31.89,121.11z"/>
		</g>
		<g>
			<path class="st13" d="M47.37,64.57c-1.32,0.2-1.55,0.33-2.82,0.36c-1.28-0.03-1.5-0.15-2.82-0.36c-2.78-0.57-4.51,0.14-8.04,0.26
				c1.85,3.39,6.02,7.23,10.86,7.23c4.84,0,9.01-3.84,10.86-7.23C51.88,64.72,50.16,64.01,47.37,64.57z"/>
			<path class="st8" d="M44.54,69.15c-4.62,0-8.27-3.1-8.27-3.1s6.92,0.01,8.56,0c0.82,0,8.03,0.14,8.03,0.14
				S49.17,69.15,44.54,69.15z"/>
		</g>
	</g>
</g>
</svg>
