<?xml version="1.0" encoding="utf-8"?>
<!-- Generator: Adobe Illustrator 25.2.1, SVG Export Plug-In . SVG Version: 6.00 Build 0)  -->
<svg version="1.1" id="ëÎÓÈ_1" xmlns="http://www.w3.org/2000/svg" xmlns:xlink="http://www.w3.org/1999/xlink" x="0px" y="0px"
	 viewBox="0 0 89.21 108.38" style="enable-background:new 0 0 89.21 108.38;" xml:space="preserve">
<style type="text/css">
	.st0{fill:#D39775;}
	.st1{fill:#C68463;}
	.st2{fill:#FFC197;}
	.st3{fill:#FCA76D;}
	.st4{fill:#FF8599;}
	.st5{fill:#DD7B45;}
	.st6{clip-path:url(#SVGID_2_);}
	.st7{fill:#4E899B;}
	.st8{fill:#FFFFFF;}
	.st9{fill:#B28C79;}
	.st10{clip-path:url(#SVGID_4_);}
	.st11{fill:#FFA892;}
	.st12{fill:#E8A982;}
	.st13{fill:#FF7B6D;}
	.st14{fill:#04AEB7;}
	.st15{fill:#EA6835;}
	.st16{clip-path:url(#SVGID_6_);}
	.st17{clip-path:url(#SVGID_8_);}
	.st18{fill:#B68461;}
	.st19{fill:#915F3D;}
	.st20{fill:#F7F5ED;}
	.st21{fill:#E87870;}
	.st22{fill:#93322B;}
	.st23{fill:#725440;}
	.st24{clip-path:url(#SVGID_10_);}
	.st25{fill:#543927;}
	.st26{clip-path:url(#SVGID_12_);}
	.st27{fill:#2B211A;}
	.st28{fill:#492B14;}
	.st29{fill:#845535;}
	.st30{clip-path:url(#SVGID_14_);}
	.st31{fill:#186858;}
	.st32{clip-path:url(#SVGID_16_);}
	.st33{fill:#F95548;}
	.st34{fill:#C93F14;}
	.st35{fill:#77B232;}
	.st36{clip-path:url(#SVGID_18_);}
	.st37{fill:#407046;}
	.st38{clip-path:url(#SVGID_20_);}
	.st39{fill:#FF6666;}
	.st40{clip-path:url(#SVGID_22_);}
	.st41{fill:#5E361B;}
	.st42{clip-path:url(#SVGID_24_);}
	.st43{fill:#E2233A;}
	.st44{clip-path:url(#SVGID_26_);}
	.st45{fill:#82543D;}
	.st46{clip-path:url(#SVGID_28_);}
	.st47{fill:#E63236;}
	.st48{fill:#3D2C22;}
	.st49{clip-path:url(#SVGID_30_);}
	.st50{fill:#536784;}
	.st51{clip-path:url(#SVGID_32_);}
	.st52{fill:#52728A;}
	.st53{clip-path:url(#SVGID_34_);}
	.st54{clip-path:url(#SVGID_36_);}
	.st55{fill:#A30C0C;}
	.st56{clip-path:url(#SVGID_38_);}
	.st57{clip-path:url(#SVGID_40_);}
	.st58{fill:#75380E;}
	.st59{clip-path:url(#SVGID_42_);}
	.st60{clip-path:url(#SVGID_44_);}
	.st61{clip-path:url(#SVGID_46_);}
	.st62{clip-path:url(#SVGID_48_);}
	.st63{fill:#FC6054;}
	.st64{fill:#CC9A79;}
</style>
<g>
	<g>
		<path class="st2" d="M89.21,108.38c-1.57-4.97-3.14-9.08-4.68-11.83c-0.1-0.21-0.19-0.41-0.31-0.61
			c-0.25-0.42-0.55-0.83-0.87-1.22c-0.45-0.6-0.89-1.09-1.33-1.42c-0.02-0.01-0.04-0.02-0.05-0.04c-7.2-6.54-23.29-8.71-23.29-12.68
			c0-4.48,0-19.12,0-19.12H30.55c0,0,0,14.65,0,19.12c0,3.97-16,6.13-23.23,12.63c-0.04,0.03-0.08,0.06-0.13,0.09
			c-0.51,0.39-1.03,0.97-1.55,1.72c-0.23,0.3-0.44,0.61-0.63,0.92c-0.07,0.13-0.13,0.26-0.2,0.39c-1.58,2.75-3.2,6.94-4.81,12.04
			H89.21z"/>
		<path class="st3" d="M58.68,75.57c0-6,0-14.12,0-14.12H30.55c0,0,0,12.34,0,17.83c0.7-2.06,5.39,0.43,11.6,1.65
			C48.48,82.18,55.63,80.17,58.68,75.57z"/>
		<path class="st43" d="M84.53,96.55c-0.1-0.21-0.19-0.41-0.31-0.61c-0.25-0.42-0.55-0.83-0.87-1.22c-0.45-0.6-0.89-1.09-1.33-1.42
			c-0.02-0.01-0.04-0.02-0.05-0.04c-5.22-4.74-15.09-7.18-20.14-9.68c-4.15,4.88-10.32,7.97-17.22,7.97
			c-6.9,0-13.07-3.09-17.22-7.97c-5.04,2.49-14.85,4.92-20.07,9.62c-0.04,0.03-0.08,0.06-0.13,0.09c-0.51,0.39-1.03,0.97-1.55,1.72
			c-0.23,0.3-0.44,0.61-0.63,0.92c-0.07,0.13-0.13,0.26-0.2,0.39c-1.58,2.75-3.2,6.94-4.81,12.04h89.21
			C87.65,103.4,86.07,99.3,84.53,96.55z"/>
	</g>
	<g>
		<g>
			<g>
				<path class="st2" d="M20.87,44.65c0,0-3.98-4.97-7.99-2.8c-6.83,3.69-0.98,19.13,7.44,16.22L20.87,44.65z"/>
				<path class="st3" d="M19.35,45.65c0,0-2.77-3.16-5.52-1.78c-4.67,2.35,1.06,13.44,5.25,10.31L19.35,45.65z"/>
			</g>
			<g>
				<path class="st2" d="M68.35,44.65c0,0,3.98-4.97,7.99-2.8c6.83,3.69,0.98,19.13-7.44,16.22L68.35,44.65z"/>
				<path class="st3" d="M69.87,45.65c0,0,2.77-3.16,5.52-1.78c4.67,2.35-1.06,13.44-5.25,10.31L69.87,45.65z"/>
			</g>
		</g>
		<path class="st2" d="M45.01,5.82c-14.96,0.15-27.03,8.94-27.03,29.15c0,8.92,0.24,24.01,3.69,29.61
			c3.46,5.6,8.09,7.98,11.91,10.21c3.71,2.17,7.01,3.65,11.42,3.73c4.42-0.09,7.71-1.56,11.42-3.73c3.82-2.23,8.45-4.61,11.91-10.21
			c3.46-5.6,3.69-20.69,3.69-29.61C72.04,14.76,59.97,5.97,45.01,5.82z"/>
		<path class="st5" d="M49.66,56.03c-0.08-0.34-0.26-0.62-0.42-0.81c-0.17-0.19-0.33-0.31-0.45-0.38c-0.12-0.07-0.2-0.09-0.22-0.06
			c-0.05,0.06,0.16,0.28,0.37,0.66c0.11,0.19,0.21,0.42,0.25,0.69c0.04,0.26,0.03,0.57-0.1,0.81c-0.13,0.24-0.37,0.37-0.54,0.33
			c-0.09-0.01-0.21-0.08-0.32-0.14c-0.11-0.07-0.23-0.14-0.36-0.2c-0.1-0.04-0.2-0.06-0.29-0.07c0.16-0.28,0.2-0.46,0.16-0.48
			c-0.07-0.04-0.29,0.27-0.73,0.66c-0.22,0.19-0.49,0.41-0.82,0.57c-0.33,0.17-0.72,0.29-1.14,0.3c-0.42,0-0.81-0.1-1.15-0.26
			c-0.34-0.16-0.62-0.36-0.85-0.54c-0.45-0.37-0.69-0.67-0.76-0.63c-0.03,0.02,0,0.17,0.13,0.39c-0.08,0.01-0.17,0.03-0.25,0.07
			c-0.13,0.05-0.24,0.13-0.36,0.2c-0.11,0.07-0.23,0.13-0.32,0.14c-0.18,0.04-0.42-0.09-0.54-0.33c-0.13-0.23-0.14-0.54-0.1-0.81
			c0.04-0.27,0.14-0.5,0.25-0.69c0.22-0.38,0.42-0.6,0.37-0.66c-0.02-0.03-0.1-0.01-0.22,0.06c-0.12,0.07-0.29,0.19-0.45,0.38
			c-0.17,0.19-0.34,0.46-0.42,0.81c-0.08,0.34-0.1,0.76,0.11,1.16c0.11,0.2,0.27,0.36,0.47,0.47c0.2,0.11,0.44,0.14,0.65,0.08
			c0.21-0.06,0.35-0.17,0.46-0.26c0.11-0.09,0.2-0.17,0.28-0.23c0.09-0.07,0.19-0.1,0.27-0.11c0.05,0.07,0.11,0.15,0.18,0.22
			c0.21,0.24,0.5,0.5,0.89,0.71c0.38,0.21,0.86,0.36,1.38,0.35c0.52-0.01,0.99-0.17,1.37-0.4c0.38-0.22,0.66-0.5,0.86-0.74
			c0.04-0.05,0.08-0.1,0.11-0.15c0.09,0.01,0.19,0.04,0.3,0.11c0.08,0.06,0.17,0.14,0.28,0.23c0.11,0.09,0.25,0.2,0.46,0.26
			c0.21,0.06,0.46,0.02,0.65-0.08c0.2-0.11,0.36-0.27,0.47-0.47C49.76,56.79,49.74,56.37,49.66,56.03z"/>
		<g>
			<path class="st27" d="M65.32,41.29c-0.07,0.06-0.24-0.04-0.51-0.19c-0.27-0.15-0.64-0.36-1.11-0.53
				c-0.47-0.18-1.04-0.32-1.66-0.39c-0.62-0.07-1.3-0.06-2-0.01c-0.7,0.05-1.42,0.15-2.13,0.24c-0.7,0.08-1.37,0.16-1.96,0.23
				c-1.17,0.13-2.02,0.22-2.2,0.23c-0.72,0.04-1.33-0.48-1.37-1.17c-0.04-0.69,0.5-1.28,1.22-1.32c0.18-0.01,1.03-0.03,2.21-0.04
				c0.59,0,1.26,0,1.97,0c0.71,0,1.48,0,2.26,0.06c0.78,0.06,1.57,0.18,2.29,0.41c0.72,0.22,1.35,0.55,1.83,0.9
				c0.48,0.35,0.81,0.73,0.99,1.03C65.34,41.04,65.38,41.24,65.32,41.29z"/>
			<path class="st27" d="M24.71,41.29c0.07,0.06,0.24-0.04,0.51-0.19c0.27-0.15,0.64-0.36,1.11-0.53c0.47-0.18,1.04-0.32,1.66-0.39
				c0.62-0.07,1.3-0.06,2-0.01c0.7,0.05,1.42,0.15,2.13,0.24c0.7,0.08,1.37,0.16,1.96,0.23c1.17,0.13,2.02,0.22,2.2,0.23
				c0.72,0.04,1.33-0.48,1.37-1.17c0.04-0.69-0.5-1.28-1.22-1.32c-0.18-0.01-1.03-0.03-2.21-0.04c-0.59,0-1.26,0-1.97,0
				c-0.71,0-1.48,0-2.26,0.06c-0.78,0.06-1.57,0.18-2.29,0.41c-0.72,0.22-1.35,0.55-1.83,0.9c-0.48,0.35-0.81,0.73-0.99,1.03
				C24.68,41.04,24.64,41.24,24.71,41.29z"/>
		</g>
		<g>
			<g>
				<g>
					<defs>
						<path id="SVGID_25_" d="M51.73,47.42c0,0,1.42-2.33,6.33-2.78c4.91-0.45,6.47,1.33,6.47,1.33s-1.04,2.94-6.08,3.4
							C53.41,49.84,51.73,47.42,51.73,47.42z"/>
					</defs>
					<use xlink:href="#SVGID_25_"  style="overflow:visible;fill:#FFFFFF;"/>
					<clipPath id="SVGID_2_">
						<use xlink:href="#SVGID_25_"  style="overflow:visible;"/>
					</clipPath>
					<g class="st6">
						<path class="st45" d="M61.59,45.95c0.17,1.85-1.19,3.48-3.04,3.65c-1.85,0.17-3.48-1.19-3.65-3.04
							c-0.17-1.85,1.19-3.48,3.04-3.65C59.79,42.74,61.42,44.1,61.59,45.95z"/>
						<path d="M60.12,46.08c0.09,1.04-0.67,1.95-1.7,2.05c-1.04,0.09-1.95-0.67-2.05-1.7c-0.09-1.04,0.67-1.95,1.7-2.05
							C59.11,44.28,60.03,45.05,60.12,46.08z"/>
						<path class="st8" d="M59.36,45.32c0.02,0.21-0.13,0.39-0.34,0.41c-0.21,0.02-0.39-0.13-0.41-0.34
							c-0.02-0.21,0.13-0.39,0.34-0.41C59.16,44.96,59.34,45.12,59.36,45.32z"/>
					</g>
				</g>
				<path class="st9" d="M51.73,47.42c0,0,0.42-3.38,6.23-3.92c5.81-0.53,6.57,2.47,6.57,2.47C60.38,43.71,55.08,44.55,51.73,47.42z
					"/>
			</g>
			<g>
				<g>
					<defs>
						<path id="SVGID_27_" d="M38.29,47.42c0,0-1.42-2.33-6.33-2.78c-4.91-0.45-6.47,1.33-6.47,1.33s1.04,2.94,6.08,3.4
							C36.61,49.84,38.29,47.42,38.29,47.42z"/>
					</defs>
					<use xlink:href="#SVGID_27_"  style="overflow:visible;fill:#FFFFFF;"/>
					<clipPath id="SVGID_4_">
						<use xlink:href="#SVGID_27_"  style="overflow:visible;"/>
					</clipPath>
					<g class="st10">
						<path class="st45" d="M28.43,45.95c-0.17,1.85,1.19,3.48,3.04,3.65c1.85,0.17,3.48-1.19,3.65-3.04
							c0.17-1.85-1.19-3.48-3.04-3.65C30.23,42.74,28.6,44.1,28.43,45.95z"/>
						<path d="M29.9,46.08c-0.09,1.04,0.67,1.95,1.7,2.05c1.04,0.09,1.95-0.67,2.05-1.7c0.09-1.04-0.67-1.95-1.7-2.05
							C30.91,44.28,30,45.05,29.9,46.08z"/>
						<path class="st8" d="M32.48,45.54c-0.02,0.21,0.13,0.39,0.34,0.41c0.21,0.02,0.39-0.13,0.41-0.34
							c0.02-0.21-0.13-0.39-0.34-0.41C32.69,45.18,32.5,45.33,32.48,45.54z"/>
					</g>
				</g>
				<path class="st9" d="M38.29,47.42c0,0-0.42-3.38-6.23-3.92c-5.81-0.53-6.57,2.47-6.57,2.47C29.65,43.71,34.95,44.55,38.29,47.42
					z"/>
			</g>
		</g>
		<path class="st27" d="M45.01,0c9.49,0,13.85,4,20.39,11.47c15.68,0.31,6.56,30.35,6.56,30.35s0.42-20.17-7.14-24.34
			c-12.74,10.27-36.09,8.03-41.55,1.4c-4.1,5.4-5.39,13.65-5.22,23.37c0,0-5.24-19.45,1.28-28.26c-2.99-3.39-0.55-10.03,3.8-11.34
			c-1.38,6.05,1.42,4.91,6.64,1.61C34.74,1.12,38.64,0,45.01,0z"/>
		<g>
			<path class="st13" d="M57.12,59.62c-3.65,0.93-4.22,0.71-7.29,0.79c-1.47,0.04-4.56,1.19-4.56,1.19s-2.92-1-4.45-0.97
				c-2.75,0.07-5.19,0.27-7.92,0.01c0,0,3.24,10.06,11.85,10.06C53.42,70.7,57.12,59.62,57.12,59.62z"/>
			<path class="st8" d="M33.85,61.26c0,0,3.17,6.29,10.83,6.29c7.66,0,11.82-7.31,11.82-7.31C48.16,63.22,41.15,62.7,33.85,61.26z"
				/>
			<path class="st22" d="M33.85,61.26c0,0,3.17,6.29,10.83,6.29c7.66,0,11.82-7.31,11.82-7.31C48.16,63.22,41.15,62.7,33.85,61.26z"
				/>
			<path class="st8" d="M33.85,61.26c0,0,0.01,0.03,0.04,0.07c2.18,1.64,5.82,2.76,10.84,2.76c5.39,0,9.23-1.7,11.7-3.72
				c0.05-0.08,0.07-0.12,0.07-0.12C48.16,63.22,41.15,62.7,33.85,61.26z"/>
			<path class="st47" d="M44.68,67.56c2.47,0,4.58-0.76,6.3-1.79c-0.77-0.43-1.78-0.83-2.97-0.8c-0.94,0.03-2.47,0.21-2.9,0.82
				c-0.11,0.15-0.19,0.32-0.34,0.44s-0.43,0.21-0.63,0.12c-0.26-0.11-0.22-0.4,0-0.55c0.22-0.15,0.53-0.19,0.83-0.23
				c-1.07-1.09-5.46-0.58-6.07,0.59C40.43,66.97,42.35,67.56,44.68,67.56z"/>
		</g>
		<g>
			<path class="st11" d="M33.37,55.51c0,1.62-2.53,2.93-5.65,2.93c-3.12,0-5.65-1.31-5.65-2.93c0-1.62,2.53-2.93,5.65-2.93
				C30.85,52.59,33.37,53.89,33.37,55.51z"/>
			<path class="st11" d="M67.95,55.51c0,1.62-2.53,2.93-5.65,2.93c-3.12,0-5.65-1.31-5.65-2.93c0-1.62,2.53-2.93,5.65-2.93
				C65.42,52.59,67.95,53.89,67.95,55.51z"/>
		</g>
	</g>
</g>
</svg>
